<?xml version="1.0" encoding="UTF-8"?>
<svg width="62px" height="60px" viewBox="0 0 62 60" version="1.1" xmlns="http://www.w3.org/2000/svg" xmlns:xlink="http://www.w3.org/1999/xlink">
    <!-- Generator: Sketch 56.3 (81716) - https://sketch.com -->
    <title>agile-devlopement</title>
    <desc>Created with Sketch.</desc>
    <g id="agile-devlopement" stroke="none" stroke-width="1" fill="none" fill-rule="evenodd">
        <g id="Group-13" transform="translate(1.000000, 1.000000)">
            <path d="M15.25134,49.90614 C15.35754,49.98234 15.48054,50.01954 15.60174,50.01954 C15.78834,50.01954 15.97194,49.93314 16.08894,49.77054 C16.28334,49.50174 16.22274,49.12674 15.95394,48.93294 C9.50394,44.27814 5.65314,36.75654 5.65314,28.81374 C5.65314,17.15154 13.58514,7.20774 24.94134,4.63314 C25.26414,4.55994 25.46694,4.23834 25.39374,3.91554 C25.32054,3.59214 25.00014,3.38874 24.67614,3.46314 C12.76914,6.16254 4.45314,16.58754 4.45314,28.81374 C4.45314,37.14114 8.48994,45.02634 15.25134,49.90614" id="Fill-1" fill="#404042"></path>
            <path d="M56.44218,28.81386 C56.44218,14.82966 45.34038,3.39486 31.48818,2.84586 L33.42858,1.03926 C33.67098,0.81366 33.68478,0.43386 33.45918,0.19086 C33.23358,-0.05154 32.85318,-0.06474 32.61138,0.16086 L29.69118,2.87946 C29.57178,2.99046 29.50278,3.14526 29.49978,3.30786 C29.49678,3.47106 29.56038,3.62766 29.67558,3.74286 L32.59578,6.66366 C32.71278,6.78066 32.86638,6.83886 33.01998,6.83886 C33.17358,6.83886 33.32718,6.78066 33.44418,6.66366 C33.67878,6.42906 33.67878,6.04926 33.44418,5.81466 L31.68018,4.05126 C44.78118,4.69566 55.24218,15.55566 55.24218,28.81386 C55.24218,42.42906 44.21058,53.51286 30.61638,53.60406 C30.61278,53.60406 30.60978,53.60166 30.60558,53.60166 L0.60018,53.60166 C0.26838,53.60166 0.00018,53.87046 0.00018,54.20166 C0.00018,54.53346 0.26838,54.80166 0.60018,54.80166 L30.41598,54.80166 C30.42678,54.80226 30.43638,54.80826 30.44778,54.80826 C44.78118,54.80826 56.44218,43.14726 56.44218,28.81386" id="Fill-3" fill="#404042"></path>
            <path d="M38.68128,21.63846 L33.04188,27.27786 C33.31068,27.72966 33.47508,28.25106 33.47508,28.81386 C33.47508,30.48306 32.11728,31.84086 30.44748,31.84086 C28.77888,31.84086 27.42048,30.48306 27.42048,28.81386 C27.42048,27.14466 28.77888,25.78686 30.44748,25.78686 C31.11948,25.78686 31.73448,26.01366 32.23728,26.38566 L37.83288,20.79006 C38.06748,20.55546 38.44668,20.55546 38.68128,20.79006 C38.91588,21.02466 38.91588,21.40386 38.68128,21.63846 M30.44748,13.36686 C21.71028,13.36686 14.62728,20.44986 14.62728,29.18766 C14.62728,37.92486 21.71028,45.00786 30.44748,45.00786 C39.18468,45.00786 46.26828,37.92486 46.26828,29.18766 C46.26828,20.44986 39.18468,13.36686 30.44748,13.36686" id="Fill-5" fill="#00BBA6"></path>
            <path d="M30.44766,30.6411 C29.44026,30.6411 28.62066,29.8215 28.62066,28.8141 C28.62066,27.8061 29.44026,26.9865 30.44766,26.9865 C31.45506,26.9865 32.27466,27.8061 32.27466,28.8141 C32.27466,29.8215 31.45506,30.6411 30.44766,30.6411 M37.83306,20.7903 L32.23746,26.3853 C31.73466,26.0139 31.11966,25.7865 30.44766,25.7865 C28.77846,25.7865 27.42066,27.1443 27.42066,28.8141 C27.42066,30.4833 28.77846,31.8411 30.44766,31.8411 C32.11686,31.8411 33.47466,30.4833 33.47466,28.8141 C33.47466,28.2513 33.31026,27.7299 33.04146,27.2781 L38.68146,21.6387 C38.91546,21.4041 38.91546,21.0243 38.68146,20.7903 C38.44686,20.5557 38.06706,20.5557 37.83306,20.7903" id="Fill-7" fill="#404042"></path>
            <path d="M59.51868,54.0909 C59.51568,53.9283 59.44668,53.7735 59.32788,53.6625 L56.40708,50.9433 C56.16528,50.7177 55.78608,50.7309 55.55928,50.9733 C55.33308,51.2157 55.34688,51.5955 55.58928,51.8217 L57.50148,53.6019 L43.91268,53.6019 C43.58148,53.6019 43.31268,53.8707 43.31268,54.2019 C43.31268,54.5331 43.58148,54.8019 43.91268,54.8019 L57.36948,54.8019 L55.57428,56.5971 C55.33968,56.8317 55.33968,57.2115 55.57428,57.4455 C55.69128,57.5631 55.84488,57.6213 55.99848,57.6213 C56.15208,57.6213 56.30568,57.5631 56.42268,57.4455 L59.10408,54.7647 C59.34348,54.6855 59.51868,54.4677 59.51868,54.2019 C59.51868,54.1833 59.50968,54.1671 59.50788,54.1491 C59.50968,54.1287 59.51868,54.1107 59.51868,54.0909" id="Fill-9" fill="#404042"></path>
            <path d="M30.44766,13.59354 C38.83986,13.59354 45.66786,20.42154 45.66786,28.81374 C45.66786,37.20594 38.83986,44.03394 30.44766,44.03394 C22.05546,44.03394 15.22746,37.20594 15.22746,28.81374 C15.22746,20.42154 22.05546,13.59354 30.44766,13.59354 M14.02746,28.81374 C14.02746,37.86834 21.39366,45.23394 30.44766,45.23394 C39.50166,45.23394 46.86786,37.86834 46.86786,28.81374 C46.86786,19.75974 39.50166,12.39354 30.44766,12.39354 C21.39366,12.39354 14.02746,19.75974 14.02746,28.81374" id="Fill-11" fill="#404042"></path>
        </g>
    </g>
</svg>