<?xml version="1.0" encoding="UTF-8"?>
<svg width="32px" height="32px" viewBox="0 0 32 32" version="1.1" xmlns="http://www.w3.org/2000/svg" xmlns:xlink="http://www.w3.org/1999/xlink">
    <!-- Generator: Sketch 56.3 (81716) - https://sketch.com -->
    <title>backend</title>
    <desc>Created with Sketch.</desc>
    <g id="backend" stroke="none" stroke-width="1" fill="none" fill-rule="evenodd">
        <g id="Group-27-Copy-2" transform="translate(1.000000, 1.000000)">
            <path d="M5.44111765,29.8814706 L2.49994118,29.8814706 C2.25611765,29.8814706 2.05876471,29.6838235 2.05876471,29.4402941 L2.05876471,17.7061765 L0.0946470588,15.2138235 C-0.0350588235,15.0491176 -0.0309411765,14.8161765 0.104058824,14.6561765 L2.05876471,12.3388235 L2.05876471,0.441176471 C2.05876471,0.197647059 2.25611765,-1.42108547e-14 2.49994118,-1.42108547e-14 L5.44111765,-1.42108547e-14 C5.68494118,-1.42108547e-14 5.88229412,0.197647059 5.88229412,0.441176471 C5.88229412,0.684705882 5.68494118,0.882352941 5.44111765,0.882352941 L2.94111765,0.882352941 L2.94111765,12.5 C2.94111765,12.6044118 2.90435294,12.705 2.837,12.7844118 L1.01023529,14.95 L2.84641176,17.28 C2.90788235,17.3579412 2.94111765,17.4541176 2.94111765,17.5532353 L2.94111765,28.9991176 L5.44111765,28.9991176 C5.68494118,28.9991176 5.88229412,29.1967647 5.88229412,29.4402941 C5.88229412,29.6838235 5.68494118,29.8814706 5.44111765,29.8814706" id="Fill-1" fill="#231F20"></path>
            <path d="M27.4999412,29.8814706 L24.5587647,29.8814706 C24.3149412,29.8814706 24.1175882,29.6838235 24.1175882,29.4402941 C24.1175882,29.1967647 24.3149412,28.9991176 24.5587647,28.9991176 L27.0587647,28.9991176 L27.0587647,17.5532353 C27.0587647,17.4541176 27.092,17.3579412 27.1534706,17.28 L28.9896471,14.95 L27.1628824,12.7844118 C27.0955294,12.705 27.0587647,12.6044118 27.0587647,12.5 L27.0587647,0.882352941 L24.5587647,0.882352941 C24.3149412,0.882352941 24.1175882,0.684705882 24.1175882,0.441176471 C24.1175882,0.197647059 24.3149412,-1.42108547e-14 24.5587647,-1.42108547e-14 L27.4999412,-1.42108547e-14 C27.7437647,-1.42108547e-14 27.9411176,0.197647059 27.9411176,0.441176471 L27.9411176,12.3388235 L29.8958235,14.6561765 C30.0308235,14.8161765 30.0349412,15.0491176 29.9052353,15.2138235 L27.9411176,17.7061765 L27.9411176,29.4402941 C27.9411176,29.6838235 27.7437647,29.8814706 27.4999412,29.8814706" id="Fill-3" fill="#231F20"></path>
            <path d="M8.81529412,10.8445294 C8.70235294,10.8445294 8.58941176,10.8015882 8.50323529,10.7154118 L4.80147059,7.01364706 C4.71735294,6.92923529 4.67088235,6.81511765 4.67231907,6.69629412 C4.67352941,6.57717647 4.72294118,6.46394118 4.80911765,6.38217647 L8.51088235,2.85658824 C8.68735294,2.68894118 8.96647059,2.69541176 9.13470588,2.87188235 C9.30294118,3.04805882 9.29588235,3.32717647 9.11970588,3.49541176 L5.745,6.70923529 L9.12735294,10.0912941 C9.29941176,10.2636471 9.29941176,10.5430588 9.12735294,10.7154118 C9.04117647,10.8015882 8.92823529,10.8445294 8.81529412,10.8445294" id="Fill-5" fill="#12B8A3"></path>
            <path d="M21.2452059,27.1465294 C21.1322647,27.1465294 21.0193235,27.1035882 20.9331471,27.0174118 C20.7610882,26.8450588 20.7610882,26.5656471 20.9331471,26.3932941 L24.3152059,23.0112353 L20.9407941,19.7977059 C20.7646176,19.6294706 20.7575588,19.3503529 20.9257941,19.1741765 C21.0937353,18.9974118 21.3731471,18.9909412 21.5496176,19.1588824 L25.2513824,22.6841765 C25.3372647,22.7659412 25.3866765,22.8791765 25.3881809,22.9982941 C25.3896176,23.1171176 25.3431471,23.2312353 25.2587353,23.3156471 L21.5572647,27.0174118 C21.4710882,27.1035882 21.3581471,27.1465294 21.2452059,27.1465294" id="Fill-7" fill="#12B8A3"></path>
            <path d="M10.9921765,8.43702941 C10.7483529,8.43702941 10.551,8.23938235 10.551,7.99585294 L10.551,4.39967647 C10.551,4.15614706 10.7483529,3.9585 10.9921765,3.9585 C11.236,3.9585 11.4333529,4.15614706 11.4333529,4.39967647 L11.4333529,7.99585294 C11.4333529,8.23938235 11.236,8.43702941 10.9921765,8.43702941" id="Fill-9" fill="#12B8A3"></path>
            <path d="M10.9921765,10.1353824 C10.7483529,10.1353824 10.551,9.93773529 10.551,9.69420588 L10.551,9.51361765 C10.551,9.27008824 10.7483529,9.07244118 10.9921765,9.07244118 C11.236,9.07244118 11.4333529,9.27008824 11.4333529,9.51361765 L11.4333529,9.69420588 C11.4333529,9.93773529 11.236,10.1353824 10.9921765,10.1353824" id="Fill-11" fill="#12B8A3"></path>
            <path d="M14.5418235,7.42770588 L12.7771176,7.42770588 C12.5332941,7.42770588 12.3359412,7.23005882 12.3359412,6.98652941 C12.3359412,6.743 12.5332941,6.54535294 12.7771176,6.54535294 L14.5418235,6.54535294 C14.7856471,6.54535294 14.983,6.743 14.983,6.98652941 C14.983,7.23005882 14.7856471,7.42770588 14.5418235,7.42770588" id="Fill-13" fill="#12B8A3"></path>
            <path d="M18.2937059,7.42770588 L16.4178235,7.42770588 C16.174,7.42770588 15.9766471,7.23005882 15.9766471,6.98652941 C15.9766471,6.743 16.174,6.54535294 16.4178235,6.54535294 L18.2937059,6.54535294 C18.5375294,6.54535294 18.7348824,6.743 18.7348824,6.98652941 C18.7348824,7.23005882 18.5375294,7.42770588 18.2937059,7.42770588" id="Fill-15" fill="#12B8A3"></path>
            <path d="M21.9342647,7.42770588 L20.1695588,7.42770588 C19.9257353,7.42770588 19.7283824,7.23005882 19.7283824,6.98652941 C19.7283824,6.743 19.9257353,6.54535294 20.1695588,6.54535294 L21.9342647,6.54535294 C22.1780882,6.54535294 22.3754412,6.743 22.3754412,6.98652941 C22.3754412,7.23005882 22.1780882,7.42770588 21.9342647,7.42770588" id="Fill-17" fill="#12B8A3"></path>
            <path d="M8.36535294,23.5329412 L6.60064706,23.5329412 C6.35682353,23.5329412 6.15947059,23.3352941 6.15947059,23.0917647 C6.15947059,22.8482353 6.35682353,22.6505882 6.60064706,22.6505882 L8.36535294,22.6505882 C8.60917647,22.6505882 8.80652941,22.8482353 8.80652941,23.0917647 C8.80652941,23.3352941 8.60917647,23.5329412 8.36535294,23.5329412" id="Fill-19" fill="#12B8A3"></path>
            <path d="M13.3129412,23.6505882 L10.4858824,23.6505882 C10.2420588,23.6505882 10.0447059,23.4265882 10.0447059,23.1505882 C10.0447059,22.8745882 10.2420588,22.6505882 10.4858824,22.6505882 L13.3129412,22.6505882 C13.5567647,22.6505882 13.7541176,22.8745882 13.7541176,23.1505882 C13.7541176,23.4265882 13.5567647,23.6505882 13.3129412,23.6505882 M18.2602941,23.6505882 L15.4332353,23.6505882 C15.1894118,23.6505882 14.9920588,23.4265882 14.9920588,23.1505882 C14.9920588,22.8745882 15.1894118,22.6505882 15.4332353,22.6505882 L18.2602941,22.6505882 C18.5041176,22.6505882 18.7014706,22.8745882 18.7014706,23.1505882 C18.7014706,23.4265882 18.5041176,23.6505882 18.2602941,23.6505882" id="Fill-21" fill="#12B8A3"></path>
            <path d="M22.1453824,23.5329412 L20.3806765,23.5329412 C20.1368529,23.5329412 19.9395,23.3352941 19.9395,23.0917647 C19.9395,22.8482353 20.1368529,22.6505882 20.3806765,22.6505882 L22.1453824,22.6505882 C22.3892059,22.6505882 22.5865588,22.8482353 22.5865588,23.0917647 C22.5865588,23.3352941 22.3892059,23.5329412 22.1453824,23.5329412" id="Fill-23" fill="#12B8A3"></path>
            <path d="M9.31823529,15.4994706 L6.67117647,15.4994706 C6.42735294,15.4994706 6.23,15.2754706 6.23,14.9994706 C6.23,14.7234706 6.42735294,14.4994706 6.67117647,14.4994706 L9.31823529,14.4994706 C9.56205882,14.4994706 9.75941176,14.7234706 9.75941176,14.9994706 C9.75941176,15.2754706 9.56205882,15.4994706 9.31823529,15.4994706 M14.0241176,15.4994706 L11.3770588,15.4994706 C11.1332353,15.4994706 10.9358824,15.2754706 10.9358824,14.9994706 C10.9358824,14.7234706 11.1332353,14.4994706 11.3770588,14.4994706 L14.0241176,14.4994706 C14.2679412,14.4994706 14.4652941,14.7234706 14.4652941,14.9994706 C14.4652941,15.2754706 14.2679412,15.4994706 14.0241176,15.4994706 M18.73,15.4994706 L16.0829412,15.4994706 C15.8391176,15.4994706 15.6417647,15.2754706 15.6417647,14.9994706 C15.6417647,14.7234706 15.8391176,14.4994706 16.0829412,14.4994706 L18.73,14.4994706 C18.9738235,14.4994706 19.1711765,14.7234706 19.1711765,14.9994706 C19.1711765,15.2754706 18.9738235,15.4994706 18.73,15.4994706 M23.0347059,15.4994706 L20.7888235,15.4994706 C20.545,15.4994706 20.3476471,15.2754706 20.3476471,14.9994706 C20.3476471,14.7234706 20.545,14.4994706 20.7888235,14.4994706 L23.0347059,14.4994706 C23.2782353,14.4994706 23.4758824,14.7234706 23.4758824,14.9994706 C23.4758824,15.2754706 23.2782353,15.4994706 23.0347059,15.4994706" id="Fill-25" fill="#231F20"></path>
        </g>
    </g>
</svg>