<?xml version="1.0" encoding="UTF-8"?>
<svg width="32px" height="32px" viewBox="0 0 32 32" version="1.1" xmlns="http://www.w3.org/2000/svg" xmlns:xlink="http://www.w3.org/1999/xlink">
    <!-- Generator: Sketch 56.3 (81716) - https://sketch.com -->
    <title>cloud</title>
    <desc>Created with Sketch.</desc>
    <defs>
        <polygon id="path-1" points="0.00012 0.281233561 30 0.281233561 30 30 0.00012 30"></polygon>
    </defs>
    <g id="cloud" stroke="none" stroke-width="1" fill="none" fill-rule="evenodd">
        <g id="Group-14-Copy" transform="translate(1.000000, 1.000000)">
            <polygon id="Fill-1" fill="#11B8A4" points="9.0066 23.24211 20.6934 23.24211 20.6934 17.08041 9.0066 17.08041"></polygon>
            <g id="Group-13" transform="translate(0.000000, 0.018810)">
                <mask id="mask-2" fill="white">
                    <use xlink:href="#path-1"></use>
                </mask>
                <g id="Clip-3"></g>
                <path d="M9.4566,22.7733 L20.2434,22.7733 L20.2434,17.5116 L9.4566,17.5116 L9.4566,22.7733 Z M20.6934,23.6733 L9.0066,23.6733 C8.7579,23.6733 8.5566,23.4717 8.5566,23.2233 L8.5566,17.0616 C8.5566,16.8132 8.7579,16.6116 9.0066,16.6116 L20.6934,16.6116 C20.9418,16.6116 21.1434,16.8132 21.1434,17.0616 L21.1434,23.2233 C21.1434,23.4717 20.9418,23.6733 20.6934,23.6733 L20.6934,23.6733 Z" id="Fill-2" fill="#231F20" mask="url(#mask-2)"></path>
                <path d="M8.20092,15.12891 L20.37132,15.12891 C20.37132,15.12891 25.09092,14.92281 25.76352,11.75241 C26.27562,9.33711 24.82002,7.09281 22.91832,6.92181 C22.91832,6.92181 24.11772,3.02181 20.45112,1.24731 C17.63232,-0.11709 14.09892,1.29711 13.44552,4.49931 C13.44552,4.49931 12.23202,2.55141 9.49122,3.64971 C7.31532,4.52211 7.69392,6.92181 7.69392,6.92181 C7.69392,6.92181 3.83832,7.05621 3.83771991,10.70871 C3.83712,14.25291 6.71352,15.12891 8.20092,15.12891" id="Fill-4" fill="#FEFEFE" mask="url(#mask-2)"></path>
                <path d="M11.07699,3.76641 C10.67199,3.76641 10.20069,3.85011 9.65859,4.06761 C7.83669,4.79781 8.12529,6.76821 8.13849,6.85161 C8.15859,6.97881 8.12319,7.10871 8.04099,7.20801 C7.95909,7.30761 7.83849,7.36701 7.70949,7.37151 C7.57089,7.37691 4.28829,7.54251 4.28768986,10.70871 C4.28739,12.11721 4.77159,13.18581 5.72709,13.88481 C6.73419,14.62191 7.87539,14.67891 8.20089,14.67891 L20.37129,14.67891 C20.39499,14.67741 24.73179,14.44791 25.32309,11.65911 C25.56339,10.52631 25.32639,9.33501 24.68949,8.47251 C24.21009,7.82331 23.56689,7.43181 22.87809,7.37001 C22.74279,7.35771 22.62039,7.28511 22.54479,7.17261 C22.46919,7.06011 22.44819,6.91911 22.48839,6.78921 C22.53159,6.64611 23.52099,3.23301 20.25519,1.65231 C18.95499,1.02261 17.41899,1.02261 16.14669,1.65261 C14.95539,2.24211 14.15259,3.28521 13.88649,4.58931 C13.84959,4.76991 13.70649,4.90971 13.52529,4.94241 C13.34379,4.97361 13.16109,4.89411 13.06359,4.73721 C13.03209,4.68861 12.41919,3.76641 11.07699,3.76641 L11.07699,3.76641 Z M8.20089,15.57891 C7.80639,15.57891 6.42309,15.50931 5.19579,14.61081 C4.37079,14.00751 3.38739,12.84051 3.38768993,10.70871 C3.38829,7.78941 5.67639,6.73011 7.21269,6.51351 C7.20639,5.47761 7.62909,3.91131 9.32379,3.23211 C10.90149,2.60001 12.03609,2.90181 12.71019,3.26691 C12.91239,3.37641 13.08549,3.49701 13.23069,3.61521 C13.68009,2.40411 14.55279,1.43691 15.74769,0.84591 C17.26749,0.09411 19.09899,0.09321 20.64699,0.84201 C23.80719,2.37171 23.65569,5.37711 23.45619,6.55971 C24.20949,6.75441 24.89169,7.23171 25.41339,7.93761 C26.21259,9.02031 26.50059,10.44471 26.20359,11.84601 C25.46739,15.31701 20.59779,15.56961 20.39079,15.57861 L8.20089,15.57891 Z" id="Fill-5" fill="#231F20" mask="url(#mask-2)"></path>
                <path d="M14.85,17.37891 C14.6013,17.37891 14.4,17.17731 14.4,16.92891 L14.4,15.23421 C14.4,14.98551 14.6013,14.78421 14.85,14.78421 C15.0987,14.78421 15.3,14.98551 15.3,15.23421 L15.3,16.92891 C15.3,17.17731 15.0987,17.37891 14.85,17.37891" id="Fill-6" fill="#231F20" mask="url(#mask-2)"></path>
                <path d="M12.64482,27.93429 L0.45012,27.93429 C0.20142,27.93429 0.00012,27.73269 0.00012,27.48429 C0.00012,27.23589 0.20142,27.03429 0.45012,27.03429 L12.64482,27.03429 C12.89352,27.03429 13.09482,27.23589 13.09482,27.48429 C13.09482,27.73269 12.89352,27.93429 12.64482,27.93429" id="Fill-7" fill="#231F20" mask="url(#mask-2)"></path>
                <path d="M29.55,27.88008 L17.3553,27.88008 C17.1066,27.88008 16.9053,27.67848 16.9053,27.43008 C16.9053,27.18168 17.1066,26.98008 17.3553,26.98008 L29.55,26.98008 C29.7987,26.98008 30,27.18168 30,27.43008 C30,27.67848 29.7987,27.88008 29.55,27.88008" id="Fill-8" fill="#231F20" mask="url(#mask-2)"></path>
                <path d="M20.49741,20.59248 L9.20271,20.59248 C8.95401,20.59248 8.75271,20.39088 8.75271,20.14248 C8.75271,19.89408 8.95401,19.69248 9.20271,19.69248 L20.49741,19.69248 C20.74611,19.69248 20.94741,19.89408 20.94741,20.14248 C20.94741,20.39088 20.74611,20.59248 20.49741,20.59248" id="Fill-9" fill="#231F20" mask="url(#mask-2)"></path>
                <path d="M16.97211,27.43008 C16.97211,28.60068 16.02291,29.54988 14.85231,29.54988 C13.68171,29.54988 12.73251,28.60068 12.73251,27.43008 C12.73251,26.25948 13.68171,25.31058 14.85231,25.31058 C16.02291,25.31058 16.97211,26.25948 16.97211,27.43008" id="Fill-10" fill="#11B8A4" mask="url(#mask-2)"></path>
                <path d="M14.85234,25.76046 C13.93164,25.76046 13.18254,26.50956 13.18254,27.42996 C13.18254,28.35096 13.93164,29.10006 14.85234,29.10006 C15.77304,29.10006 16.52214,28.35096 16.52214,27.42996 C16.52214,26.50956 15.77304,25.76046 14.85234,25.76046 M14.85234,30.00006 C13.43544,30.00006 12.28254,28.84716 12.28254,27.42996 C12.28254,26.01336 13.43544,24.86046 14.85234,24.86046 C16.26924,24.86046 17.42214,26.01336 17.42214,27.42996 C17.42214,28.84716 16.26924,30.00006 14.85234,30.00006" id="Fill-11" fill="#231F20" mask="url(#mask-2)"></path>
                <path d="M14.85,25.47891 C14.6013,25.47891 14.4,25.27731 14.4,25.02891 L14.4,23.33421 C14.4,23.08551 14.6013,22.88421 14.85,22.88421 C15.0987,22.88421 15.3,23.08551 15.3,23.33421 L15.3,25.02891 C15.3,25.27731 15.0987,25.47891 14.85,25.47891" id="Fill-12" fill="#231F20" mask="url(#mask-2)"></path>
            </g>
        </g>
    </g>
</svg>