<?xml version="1.0" encoding="UTF-8"?>
<svg width="32px" height="32px" viewBox="0 0 32 32" version="1.1" xmlns="http://www.w3.org/2000/svg" xmlns:xlink="http://www.w3.org/1999/xlink">
    <!-- Generator: Sketch 56.3 (81716) - https://sketch.com -->
    <title>compliance</title>
    <desc>Created with Sketch.</desc>
    <defs>
        <polygon id="path-1" points="0 30.0199394 29.8575758 30.0199394 29.8575758 -6.06060606e-05 0 -6.06060606e-05"></polygon>
    </defs>
    <g id="compliance" stroke="none" stroke-width="1" fill="none" fill-rule="evenodd">
        <g id="Group-16-Copy" transform="translate(1.000000, 1.000000)">
            <path d="M19.2168182,22.5606667 L19.2168182,29.4021818 L21.3656061,27.4433939 L23.3704545,29.4021818 L23.2528788,22.4061212 C23.2528788,22.4061212 22.0159091,21.1670303 21.2937879,21.3670303 C20.5710606,21.5667273 19.2168182,22.5606667 19.2168182,22.5606667" id="Fill-1" fill="#FEFEFE"></path>
            <mask id="mask-2" fill="white">
                <use xlink:href="#path-1"></use>
            </mask>
            <g id="Clip-4"></g>
            <polygon id="Fill-3" fill="#FEFEFE" mask="url(#mask-2)" points="0.591818182 20.9878182 29.280303 20.9878182 29.280303 0.527212121 0.591818182 0.527212121"></polygon>
            <path d="M29.4029697,21.3668788 L25.1387273,21.3668788 C24.8878182,21.3668788 24.6841818,21.1632424 24.6841818,20.9123333 C24.6841818,20.6614242 24.8878182,20.4577879 25.1387273,20.4577879 L28.9484242,20.4577879 L28.9484242,0.909 L0.909030303,0.909 L0.909030303,20.4577879 L17.5820606,20.4577879 C17.8329697,20.4577879 18.0366061,20.6614242 18.0366061,20.9123333 C18.0366061,21.1632424 17.8329697,21.3668788 17.5820606,21.3668788 L0.454484848,21.3668788 C0.203575758,21.3668788 -6.06060606e-05,21.1632424 -6.06060606e-05,20.9123333 L-6.06060606e-05,0.454454545 C-6.06060606e-05,0.203545455 0.203575758,-9.09090909e-05 0.454484848,-9.09090909e-05 L29.4029697,-9.09090909e-05 C29.6541818,-9.09090909e-05 29.8575152,0.203545455 29.8575152,0.454454545 L29.8575152,20.9123333 C29.8575152,21.1632424 29.6541818,21.3668788 29.4029697,21.3668788" id="Fill-5" fill="#231F20" mask="url(#mask-2)"></path>
            <path d="M3.70575758,9.83054545 L12.9654545,9.83054545 L12.9654545,3.776 L3.70575758,3.776 L3.70575758,9.83054545 Z M13.419697,10.7396364 L3.25121212,10.7396364 C3,10.7396364 2.79666667,10.536 2.79666667,10.2850909 L2.79666667,3.32115152 C2.79666667,3.07024242 3,2.86660606 3.25121212,2.86660606 L13.419697,2.86660606 C13.6709091,2.86660606 13.8742424,3.07024242 13.8742424,3.32115152 L13.8742424,10.2850909 C13.8742424,10.536 13.6709091,10.7396364 13.419697,10.7396364 L13.419697,10.7396364 Z" id="Fill-6" fill="#231F20" mask="url(#mask-2)"></path>
            <path d="M26.1388788,3.77572727 L17.791303,3.77572727 C17.5400909,3.77572727 17.3367576,3.57209091 17.3367576,3.32118182 C17.3367576,3.07027273 17.5400909,2.86663636 17.791303,2.86663636 L26.1388788,2.86663636 C26.3900909,2.86663636 26.5934242,3.07027273 26.5934242,3.32118182 C26.5934242,3.57209091 26.3900909,3.77572727 26.1388788,3.77572727" id="Fill-7" fill="#231F20" mask="url(#mask-2)"></path>
            <path d="M26.1388788,6.95460606 L17.791303,6.95460606 C17.5400909,6.95460606 17.3367576,6.7509697 17.3367576,6.50006061 C17.3367576,6.24915152 17.5400909,6.04551515 17.791303,6.04551515 L26.1388788,6.04551515 C26.3900909,6.04551515 26.5934242,6.24915152 26.5934242,6.50006061 C26.5934242,6.7509697 26.3900909,6.95460606 26.1388788,6.95460606" id="Fill-8" fill="#231F20" mask="url(#mask-2)"></path>
            <path d="M13.4197576,14.2285152 L3.2509697,14.2285152 C3.00006061,14.2285152 2.79642424,14.0248788 2.79642424,13.7739697 C2.79642424,13.5230606 3.00006061,13.3194242 3.2509697,13.3194242 L13.4197576,13.3194242 C13.6709697,13.3194242 13.874303,13.5230606 13.874303,13.7739697 C13.874303,14.0248788 13.6709697,14.2285152 13.4197576,14.2285152" id="Fill-9" fill="#231F20" mask="url(#mask-2)"></path>
            <path d="M13.4197576,17.5106364 L3.2509697,17.5106364 C3.00006061,17.5106364 2.79642424,17.307 2.79642424,17.0560909 C2.79642424,16.8051818 3.00006061,16.6015455 3.2509697,16.6015455 L13.4197576,16.6015455 C13.6709697,16.6015455 13.874303,16.8051818 13.874303,17.0560909 C13.874303,17.307 13.6709697,17.5106364 13.4197576,17.5106364" id="Fill-10" fill="#231F20" mask="url(#mask-2)"></path>
            <path d="M22.3268788,12.9885758 L23.1520303,14.6603939 C23.3080909,14.9767576 23.6099091,15.1958485 23.959,15.2467576 L25.8038485,15.5149394 C26.6829394,15.6425152 27.0341515,16.7231212 26.3977879,17.3431212 L25.0629394,18.6443333 C24.8102121,18.890697 24.6950606,19.2452424 24.7547576,19.5934242 L25.0699091,21.4303939 C25.2199091,22.3061515 24.3008182,22.9740303 23.5144545,22.560697 L21.8644545,21.6934242 C21.5520303,21.5291818 21.179,21.5291818 20.8668788,21.6934242 L19.2168788,22.560697 C18.4305152,22.9740303 17.5111212,22.3061515 17.6614242,21.4303939 L17.9765758,19.5934242 C18.0362727,19.2452424 17.9208182,18.890697 17.6680909,18.6443333 L16.3332424,17.3431212 C15.6971818,16.7231212 16.0480909,15.6425152 16.9274848,15.5149394 L18.7723333,15.2467576 C19.1214242,15.1958485 19.4232424,14.9767576 19.579303,14.6603939 L20.4044545,12.9885758 C20.7974848,12.1919091 21.9338485,12.1919091 22.3268788,12.9885758" id="Fill-11" fill="#11B8A4" mask="url(#mask-2)"></path>
            <path d="M21.3655455,21.1156364 C21.6097879,21.1156364 21.8534242,21.1738182 22.0761515,21.2907879 L23.7258485,22.1580606 C23.9385758,22.2701818 24.1816061,22.2526061 24.3761515,22.1110909 C24.570697,21.9698788 24.6625152,21.7441212 24.6219091,21.5074545 L24.3067576,19.6701818 C24.2216061,19.1747273 24.3858485,18.6695758 24.7458485,18.3189697 L26.080697,17.0177576 C26.2525152,16.8498788 26.311,16.6135152 26.2367576,16.3847273 C26.1625152,16.1562424 25.9761515,15.9992727 25.7385758,15.9647273 L23.8937273,15.6965455 C23.3961515,15.6241212 22.9664545,15.312 22.7443333,14.8613939 L21.9191818,13.1898788 C21.8131212,12.9744242 21.6058485,12.8456364 21.3655455,12.8456364 C21.1252424,12.8456364 20.9182727,12.9744242 20.8119091,13.1898788 L19.9870606,14.8613939 C19.7646364,15.312 19.3349394,15.6241212 18.8376667,15.6965455 L16.9928182,15.9647273 C16.7549394,15.9992727 16.5685758,16.1562424 16.4943333,16.3850303 C16.4200909,16.6135152 16.4785758,16.8498788 16.6503939,17.0177576 L17.9855455,18.3189697 C18.3452424,18.6695758 18.5094848,19.1747273 18.4246364,19.6698788 L18.1094848,21.5074545 C18.0688788,21.7441212 18.160697,21.9698788 18.3549394,22.1110909 C18.5494848,22.2526061 18.7922121,22.2701818 19.0052424,22.1580606 L20.6552424,21.2907879 C20.8776667,21.1738182 21.1216061,21.1156364 21.3655455,21.1156364 M24.0146364,23.1401818 C23.7719091,23.1401818 23.5282727,23.0813939 23.3031212,22.9632121 L21.6531212,22.0956364 C21.4728182,22.0010909 21.2582727,22.0010909 21.0782727,22.0956364 L19.4282727,22.9632121 C18.910697,23.2353333 18.2943333,23.1910909 17.820697,22.8468485 C17.3470606,22.5026061 17.1146364,21.9304848 17.2134242,21.3535152 L17.5285758,19.5165455 C17.5628182,19.3162424 17.4964545,19.111697 17.351,18.9698788 L16.0161515,17.6686667 C15.5967576,17.2601818 15.4488788,16.6607879 15.6297879,16.1038182 C15.810697,15.5471515 16.2831212,15.1492727 16.8622121,15.0650303 L18.7067576,14.7968485 C18.9079697,14.7677576 19.0816061,14.6413939 19.1716061,14.4589697 L19.9967576,12.7874545 C20.2558485,12.2626061 20.7803939,11.9365455 21.3655455,11.9365455 C21.951,11.9365455 22.4755455,12.2626061 22.7346364,12.7874545 L23.5594848,14.4589697 C23.6494848,14.6413939 23.8234242,14.7677576 24.0246364,14.7968485 L25.8691818,15.0650303 C26.4482727,15.1492727 26.9203939,15.5471515 27.101303,16.1038182 C27.2822121,16.6604848 27.1343333,17.2601818 26.7149394,17.6686667 L25.3803939,18.9698788 C25.2346364,19.111697 25.1682727,19.3162424 25.2028182,19.5168485 L25.5179697,21.3535152 C25.6167576,21.9304848 25.3840303,22.5026061 24.9103939,22.8468485 C24.6428182,23.0410909 24.3297879,23.1398788 24.0146364,23.1401818" id="Fill-12" fill="#231F20" mask="url(#mask-2)"></path>
            <path d="M19.320697,30.0198975 C19.2585758,30.0198975 19.1958485,30.0070909 19.1367576,29.9807273 C18.9722121,29.908 18.8661515,29.7452727 18.8661515,29.5652727 L18.8661515,22.537697 C18.8661515,22.2864848 19.0697879,22.0831515 19.320697,22.0831515 C19.5719091,22.0831515 19.7752424,22.2864848 19.7752424,22.537697 L19.7752424,28.5398182 L21.0603939,27.3752727 C21.2334242,27.2186061 21.4976667,27.2186061 21.670697,27.3752727 L22.9558485,28.5398182 L22.9558485,22.537697 C22.9558485,22.2864848 23.1591818,22.0831515 23.4103939,22.0831515 C23.6616061,22.0831515 23.8649394,22.2864848 23.8649394,22.537697 L23.8649394,29.5652727 C23.8649394,29.7452727 23.7588788,29.908 23.5946364,29.9807273 C23.4297879,30.0540606 23.2382727,30.0225455 23.1052424,29.9019394 L21.3655455,28.3255758 L19.6261515,29.9019394 C19.541,29.9792121 19.4316061,30.0198975 19.320697,30.0198975" id="Fill-13" fill="#231F20" mask="url(#mask-2)"></path>
            <path d="M23.3703333,18.1007273 C23.3703333,19.207697 22.4727576,20.1052727 21.3654848,20.1052727 C20.2582121,20.1052727 19.3609394,19.207697 19.3609394,18.1007273 C19.3609394,16.9934545 20.2582121,16.0958788 21.3654848,16.0958788 C22.4727576,16.0958788 23.3703333,16.9934545 23.3703333,18.1007273" id="Fill-14" fill="#FEFEFE" mask="url(#mask-2)"></path>
            <path d="M21.3655455,16.5503636 C20.510697,16.5503636 19.8152424,17.2458182 19.8152424,18.1006667 C19.8152424,18.9555152 20.510697,19.6506667 21.3655455,19.6506667 C22.2203939,19.6506667 22.9158485,18.9555152 22.9158485,18.1006667 C22.9158485,17.2458182 22.2203939,16.5503636 21.3655455,16.5503636 M21.3655455,20.5597576 C20.0094848,20.5597576 18.9061515,19.4567273 18.9061515,18.1006667 C18.9061515,16.7446061 20.0094848,15.6412727 21.3655455,15.6412727 C22.7216061,15.6412727 23.8249394,16.7446061 23.8249394,18.1006667 C23.8249394,19.4567273 22.7216061,20.5597576 21.3655455,20.5597576" id="Fill-15" fill="#231F20" mask="url(#mask-2)"></path>
        </g>
    </g>
</svg>