<?xml version="1.0" encoding="UTF-8"?>
<svg width="300px" height="51px" viewBox="0 0 300 51" version="1.1" xmlns="http://www.w3.org/2000/svg" xmlns:xlink="http://www.w3.org/1999/xlink">
    <!-- Generator: Sketch 56.3 (81716) - https://sketch.com -->
    <title>dagknows-logo</title>
    <desc>Created with Sketch.</desc>
    <g id="dagknows-logo" stroke="none" stroke-width="1" fill="none" fill-rule="evenodd">
        <g id="Group" transform="translate(1.000000, 1.000000)">
            <path d="M6.83882099,20.930381 L6.83882099,8.96 C7.79237958,8.01708124 8.84025881,7.12793674 9.96290439,6.30867002 L9.96290439,30.8515888 L6.44083393,30.8515888 C1.71531272,30.8515888 -7.10542736e-15,27.1135586 -7.10542736e-15,24.6014091 C-7.10542736e-15,19.9886125 1.53472322,15.5454781 4.45003595,11.6849461 L4.45003595,20.9306686 C3.24083393,21.4154996 2.41955428,22.6060101 2.41955428,23.9241984 C2.41955428,24.8909849 2.84917326,25.7996837 3.59856219,26.4156434 C4.3465133,27.0307405 5.3271028,27.2751689 6.29043853,27.0859526 C7.56089145,26.836348 8.57426312,25.8120489 8.81179008,24.5375701 C9.09935298,22.9947951 8.26110712,21.4963048 6.83882099,20.930381 Z M17.9252624,20.7194824 C19.2431632,20.7194824 20.4339612,19.8984903 20.9185047,18.6892883 L37.7118907,18.6892883 L37.7118907,30.8514738 L27.8254781,30.8514738 L16.7551689,40 L16.7551689,30.8514738 L12.3517182,30.8514738 L12.3517182,26.0494608 L27.5672466,26.0494608 C28.1127534,27.1367362 29.2152696,27.8257369 30.4460388,27.8257369 C31.4125377,27.8257369 32.3203738,27.396693 32.9366211,26.6475917 C33.5517182,25.9005032 33.7964342,24.919051 33.607793,23.9562904 C33.3532998,22.6585191 32.3031201,21.6402588 30.9938462,21.4219986 C29.3581884,21.1502516 27.8272035,22.119051 27.3619267,23.6609633 L12.3517182,23.6609633 L12.3517182,10.7367362 L24.1438102,10.7367362 C24.6703379,11.860532 25.8099497,12.5978433 27.0619986,12.5978433 C28.028785,12.5978433 28.9366211,12.1682243 29.5528684,11.4194105 C30.1682531,10.6717469 30.412394,9.69029475 30.2234651,8.72753415 C29.9706973,7.43838965 28.9288569,6.42185478 27.6313731,6.19813084 C26.0397124,5.92063264 24.5067146,6.85291157 24.0066427,8.34823868 L12.3517182,8.34823868 L12.3517182,4.72983465 C16.3364774,2.37296909 21.0611359,0.821279655 26.030798,0.238102085 C27.3811934,0.0802300503 28.7344644,2.48689958e-14 30.0526528,2.48689958e-14 C30.563652,2.48689958e-14 31.089317,0.0126527678 31.6204457,0.0385334292 L31.6204457,16.3007908 L20.9190798,16.3007908 C20.353156,14.877642 18.8549533,14.0408339 17.3118907,14.3272466 C16.0374119,14.5647735 15.0134004,15.5781452 14.7635083,16.8491733 C14.5745794,17.8122214 14.8190079,18.7936736 15.4343925,19.5410496 C16.0506398,20.2898634 16.9584759,20.7194824 17.9252624,20.7194824 Z M47.2069303,19.4731848 C48.4161323,18.9880661 49.2371244,17.7975557 49.2371244,16.4793674 C49.2371244,15.513156 48.8075054,14.6047448 48.0586916,13.9884975 C47.3104529,13.3734004 46.3290007,13.1286844 45.3659526,13.3181884 C44.0949245,13.5683681 43.0818404,14.592092 42.844601,15.8671459 C42.5579008,17.4096334 43.3961467,18.9078361 44.8181452,19.4734723 L44.8181452,22.8816679 C44.8181452,22.9130122 44.8204457,22.9432063 44.8247592,22.9794393 C44.8210208,23.0119339 44.8181452,23.0444285 44.8181452,23.0783609 C44.8181452,23.7368799 45.3538749,24.2726096 46.0126815,24.2726096 L49.6052049,24.2726096 C48.5955715,25.8734723 44.9279942,29.7572969 40.1003882,30.6596693 L40.1003882,16.3007908 L34.0092308,16.3007908 L34.0092308,0.242127965 C35.4113875,0.411790079 36.819583,0.671459382 38.2016104,1.01538462 C42.8923364,2.1837527 46.7511431,4.71488138 49.1505679,8.17886413 L42.7563192,8.17886413 C42.195284,7.14306254 41.1094464,6.486844 39.9212365,6.486844 C38.9541625,6.486844 38.0460388,6.91646298 37.4297915,7.66585191 C36.8146945,8.41380302 36.5705536,9.39496765 36.7597699,10.3580158 C37.0168512,11.6655643 38.0768081,12.6846873 39.3972969,12.8943206 C41.0381308,13.1571531 42.5970093,12.1296909 43.0269159,10.5673616 L50.5058519,10.5673616 C52.1032638,14.1311287 52.1777426,18.0330697 50.7215241,21.8841121 L47.2069303,21.8841121 L47.2069303,19.4731848 Z" id="Combined-Shape" fill="#00CFC1"></path>
            <path d="M79.0838796,14.7545806 C78.7208848,13.9266604 78.2282707,13.1982366 77.6197296,12.5896955 C77.0114927,11.9817629 76.283069,11.4888446 75.4545402,11.1255455 C74.6397037,10.7689404 73.760666,10.5878994 72.8423774,10.5878994 C71.9234803,10.5878994 71.0444426,10.7689404 70.229606,11.1255455 C69.4019901,11.4888446 68.6735664,11.9811544 68.0653295,12.5896955 C67.4558756,13.1988452 66.9632615,13.9272689 66.6011795,14.7545806 C66.2439659,15.5691129 66.0629249,16.4481506 66.0629249,17.3670477 C66.0629249,18.2868576 66.2439659,19.165591 66.6008753,19.9792105 C66.9629572,20.8068264 67.4555713,21.5349459 68.0650252,22.1443999 C68.6741749,22.7535495 69.4025986,23.2461636 70.229606,23.6085498 C71.0441384,23.9657635 71.923176,24.1465002 72.8423774,24.1465002 C73.7612745,24.1465002 74.6403122,23.9657635 75.4545402,23.6085498 C76.2821562,23.2461636 77.0105799,22.7535495 77.6197296,22.1443999 C78.228575,21.5355545 78.7211891,20.8071307 79.0838796,19.9795148 C79.4407889,19.1643739 79.6218299,18.2856405 79.6218299,17.3670477 C79.6218299,16.4493676 79.4407889,15.57033 79.0838796,14.7545806 Z M79.6218299,8.92566931 L79.6218299,3 L83.6850591,3 L83.6850591,17.3670477 C83.6850591,18.8874877 83.399349,20.3251661 82.8364485,21.6390064 C82.2771992,22.9443272 81.5037434,24.0959913 80.5376843,25.0620503 C79.5719296,26.0284137 78.4120502,26.802478 77.0909074,27.3626401 C75.7648962,27.9246278 74.3354331,28.2097294 72.8423774,28.2097294 C71.3213288,28.2097294 69.884259,27.9240193 68.5704186,27.3611187 C67.2635766,26.8009566 66.1116082,26.0275008 65.1467662,25.0620503 C64.18162,24.0972084 63.4081642,22.9455443 62.8486106,21.6387022 C62.2854058,20.3251661 62,18.887792 62,17.3670477 C62,15.8742963 62.2847973,14.4448331 62.846785,13.118822 C63.4069471,11.7979835 64.1810114,10.6384083 65.1470705,9.67204501 C66.1134338,8.70568169 67.2650979,7.93253017 68.5707229,7.37328087 C69.884259,6.81007605 71.3216331,6.52436599 72.8423774,6.52436599 C74.5709385,6.52436599 76.2228234,6.92661168 77.7520873,7.71923651 C78.4239167,8.06853912 79.0498013,8.47230616 79.6218299,8.92566931 Z M94.5089369,23.6083673 C95.3234692,23.9655809 96.2025068,24.1466219 97.1217082,24.1466219 C98.0406053,24.1466219 98.9193387,23.9655809 99.7338711,23.6083673 C100.561487,23.2462853 101.289911,22.7536712 101.898756,22.1445216 C102.507602,21.5359804 103.000216,20.8075567 103.36321,19.9793322 C103.72012,19.1641914 103.901161,18.2851537 103.901161,17.3671694 C103.901161,16.4491851 103.72012,15.5701474 103.362906,14.7547023 C102.999911,13.9267821 102.507297,13.1983583 101.89906,12.5898172 C101.290519,11.9815803 100.562096,11.488662 99.7335668,11.125363 C98.9187302,10.7687578 98.0399968,10.5877169 97.1217082,10.5877169 C96.2028111,10.5877169 95.3237734,10.7687578 94.5089369,11.1256672 C93.6807124,11.4889663 92.9522886,11.9818846 92.344356,12.5898172 C91.7349021,13.1992711 91.2425923,13.9276949 90.8802061,14.7547023 C90.5229924,15.5689303 90.3422557,16.4476637 90.3422557,17.3671694 C90.3422557,18.286675 90.5229924,19.1657127 90.8799018,19.9793322 C91.2419838,20.8063396 91.7345978,21.5347633 92.344356,22.1445216 C92.9532014,22.7536712 93.6816252,23.245981 94.5089369,23.6083673 Z M101.369934,7.37157696 C102.689555,7.93113053 103.84913,8.70489058 104.817319,9.67216672 C105.783683,10.6394429 106.557747,11.799018 107.117301,13.1186394 C107.679288,14.4446506 107.96439,15.874418 107.96439,17.3671694 L107.96439,28.2098511 L103.901161,28.2098511 L103.901161,25.808852 C103.328524,26.2625194 102.702639,26.6665907 102.031722,27.0146763 C100.503371,27.8076054 98.8514864,28.2098511 97.1217082,28.2098511 C95.6006597,28.2098511 94.1632855,27.924141 92.8497495,27.3609362 C91.5426031,26.8010783 90.3906347,26.0276226 89.426097,25.062172 C88.4606465,24.0970258 87.687495,22.9453617 87.1276372,21.6388239 C86.5647366,20.3246793 86.2790265,18.8879137 86.2790265,17.3671694 C86.2790265,15.874418 86.5641281,14.4446506 87.1261158,13.1189437 C87.6859736,11.7984094 88.4597337,10.6388343 89.4264013,9.67216672 C90.3924603,8.7058034 91.5444287,7.93234761 92.8500537,7.37340258 C94.1635898,6.80989349 95.6006597,6.5244877 97.1217082,6.5244877 C98.6141554,6.5244877 100.043923,6.80958922 101.369934,7.37157696 Z M127.672055,20.0020916 C128.009492,19.1814739 128.180492,18.2951338 128.180492,17.3671085 C128.180492,16.4396918 128.009492,15.5530474 127.672055,14.7324297 C127.335532,13.913029 126.859044,13.1922121 126.256589,12.5897563 C125.648656,11.9818237 124.920232,11.4892097 124.091399,11.1253021 C123.276563,10.768697 122.371054,10.5879603 121.401039,10.5879603 C120.482142,10.5879603 119.603104,10.768697 118.788268,11.1256064 C117.960652,11.4889054 117.232228,11.9812152 116.623687,12.5897563 C116.014537,13.1992103 115.521619,13.9273298 115.159841,14.7546414 C114.802323,15.5691737 114.621282,16.4479071 114.621282,17.3671085 C114.621282,18.2863099 114.802323,19.1653476 115.159233,19.9792714 C115.521619,20.806583 116.013929,21.5350068 116.623687,22.1444607 C117.232837,22.7536104 117.96126,23.2462244 118.788268,23.6086107 C119.6028,23.9658243 120.481838,24.146561 121.401039,24.146561 C122.371966,24.146561 123.277171,23.9658243 124.091704,23.6086107 C124.91932,23.2459202 125.647743,22.7533061 126.256589,22.1444607 C126.859653,21.5417007 127.335836,20.8208837 127.672055,20.0020916 Z M125.649569,7.3715161 C126.96919,7.93137395 128.128766,8.705134 129.09665,9.67210587 C130.063318,10.6399905 130.837078,11.7992614 131.396327,13.1185786 C131.958619,14.444894 132.243721,15.8743571 132.243721,17.3671085 L132.243721,27.1573183 C132.243721,28.6269452 131.957402,30.0326752 131.393284,31.3352575 C130.836165,32.6211049 130.066969,33.7742904 129.1073,34.7631697 C128.140632,35.7578302 126.980448,36.5541063 125.658697,37.1291776 C124.32873,37.7069874 122.896225,38 121.401039,38 C119.928369,38 118.519901,37.7060746 117.214276,37.1261349 C115.925994,36.5531935 114.771896,35.7617857 113.784234,34.7741234 C112.795355,33.7852441 112.003947,32.6308416 111.432222,31.3437771 C111.249052,30.9317947 111.089005,30.4884725 110.956952,30.0262855 L110.79082,29.4445202 L115.021702,29.4445202 L115.154669,29.7576146 C115.521619,30.5967928 116.014537,31.3255208 116.623687,31.9346705 C117.232228,32.5432116 117.960652,33.0358257 118.788572,33.3985162 C119.604017,33.7557298 120.48275,33.9367708 121.401039,33.9367708 C122.370445,33.9367708 123.275954,33.7557298 124.092312,33.3985162 C124.920841,33.0346086 125.649265,32.5422988 126.256589,31.9346705 C126.859349,31.3319105 127.335532,30.6107893 127.672055,29.7919972 C128.009492,28.9713794 128.180492,28.084735 128.180492,27.1573183 L128.180492,25.8285687 C127.631892,26.2709782 127.037347,26.6656171 126.403856,27.0070087 C124.924188,27.8051104 123.240963,28.2097902 121.401039,28.2097902 C119.930804,28.2097902 118.525378,27.9234716 117.2231,27.359354 C115.935731,26.8019303 114.782546,26.03243 113.794883,25.0730649 C112.800223,24.1073101 112.004555,22.9547332 111.430397,21.6475869 C110.851674,20.3325295 110.558357,18.8924169 110.558357,17.3671085 C110.558357,15.8697931 110.851066,14.4372872 111.428875,13.1094505 C112.003338,11.7886119 112.79931,10.6287325 113.794883,9.66115212 C114.784067,8.70148275 115.937252,7.93228676 117.222796,7.37516735 C118.525986,6.81074545 119.931716,6.52442684 121.401039,6.52442684 C122.89379,6.52442684 124.322949,6.80952836 125.649569,7.3715161 Z M149.798246,6.09452296 L152.659911,8.95618765 L144.741878,16.6943967 C145.379629,16.8742206 145.995777,17.1118559 146.581498,17.4045642 C147.788539,18.008237 148.85379,18.8112071 149.747737,19.7912626 C150.638337,20.7685796 151.34394,21.8959021 151.845378,23.1418901 C152.350772,24.3988318 152.606663,25.7500974 152.606663,27.1573487 L152.606663,28.2098206 L148.543738,28.2098206 L148.543738,27.1573487 C148.543738,26.2393644 148.362697,25.3603268 148.005484,24.5445774 C147.642489,23.7166572 147.149875,22.9882334 146.541334,22.3796923 C145.933401,21.7714554 145.204978,21.2788414 144.376144,20.9155423 C143.560699,20.5586329 142.681662,20.377592 141.764286,20.377592 L141.199864,20.377592 L138.900796,22.5236123 L138.900796,28.2098206 L134.837566,28.2098206 L134.837566,3.00009128 L138.900796,3.00009128 L138.900796,16.8136708 L149.798246,6.09452296 Z M169.407936,7.3985049 C170.696522,7.97144638 171.850621,8.7631584 172.837979,9.75051639 C173.825641,10.7378744 174.616744,11.8916684 175.189686,13.1802542 C175.769625,14.485575 176.063551,15.8940434 176.063551,17.3670172 L176.063551,28.2096989 L172.000626,28.2096989 L172.000626,17.3670172 C172.000626,16.4493372 171.819585,15.5702995 171.462371,14.7545501 C171.099377,13.9269342 170.606762,13.1982062 169.998221,12.5896651 C169.38968,11.9814282 168.661256,11.4888141 167.833032,11.1255151 C167.018195,10.76891 166.139158,10.587869 165.220869,10.587869 C164.302276,10.587869 163.423239,10.76891 162.608402,11.1258194 C161.780178,11.4891184 161.051754,11.9817325 160.443517,12.5896651 C159.834367,13.1994233 159.341753,13.927847 158.979671,14.7545501 C158.622458,15.5690825 158.441417,16.4478159 158.441417,17.3670172 L158.441417,28.2096989 L154.378492,28.2096989 L154.378492,17.3670172 C154.378492,15.8970861 154.664506,14.4916604 155.228624,13.1893823 C155.786656,11.9017093 156.556156,10.7482196 157.515217,9.76116586 C158.47945,8.76772246 159.631723,7.97205492 160.939782,7.39698355 C162.25697,6.81795666 163.697082,6.52433556 165.220869,6.52433556 C166.694147,6.52433556 168.10292,6.8185652 169.407936,7.3985049 Z M195.741489,19.9798799 C196.098703,19.1644348 196.279744,18.2857014 196.279744,17.3671085 C196.279744,16.4491242 196.098703,15.5703908 195.741489,14.7546414 C195.378799,13.9264169 194.88588,13.1982975 194.277643,12.5897563 C193.669711,11.9818237 192.940983,11.4892097 192.112454,11.1253021 C191.297617,10.768697 190.41858,10.5879603 189.500291,10.5879603 C188.581394,10.5879603 187.702661,10.768697 186.887824,11.1256064 C186.059904,11.4886012 185.33148,11.9812152 184.722939,12.5897563 C184.113789,13.1992103 183.621175,13.9273298 183.259093,14.7546414 C182.90188,15.5688695 182.720839,16.4479071 182.720839,17.3671085 C182.720839,18.2866142 182.90188,19.1656519 183.258789,19.9792714 C183.620871,20.806583 184.113181,21.5347025 184.722939,22.1444607 C185.332393,22.7536104 186.060512,23.2462244 186.88752,23.6086107 C187.702052,23.9658243 188.58109,24.146561 189.500291,24.146561 C190.419188,24.146561 191.298226,23.9658243 192.112454,23.6086107 C192.940374,23.2459202 193.668798,22.7533061 194.277643,22.1444607 C194.886185,21.5356153 195.378799,20.8074958 195.741489,19.9798799 Z M193.67823,7.37516735 C194.964078,7.93198249 196.117263,8.70117848 197.106447,9.66115212 C198.100803,10.6278197 198.897079,11.7876991 199.472151,13.1091462 C200.050265,14.4388086 200.342973,15.8713144 200.342973,17.3671085 C200.342973,18.8908955 200.049656,20.3310081 199.470629,21.6478911 C198.895862,22.955646 198.100195,24.1079187 197.106143,25.0733692 C196.118785,26.03243 194.965295,26.8019303 193.67823,27.359354 C192.375952,27.9234716 190.970527,28.2097902 189.500291,28.2097902 C187.979243,28.2097902 186.542173,27.9240801 185.228332,27.3611796 C183.921795,26.801626 182.770131,26.0281702 181.80468,25.0621112 C180.839534,24.0972692 180.066382,22.9456051 179.506524,21.638763 C178.943015,20.325227 178.65761,18.8878528 178.65761,17.3671085 C178.65761,15.8743571 178.942711,14.444894 179.504699,13.1188829 C180.064861,11.7980443 180.838621,10.6384692 181.804984,9.67210587 C182.771348,8.70574254 183.923316,7.93259103 185.228637,7.37334173 C186.542173,6.8101369 187.979547,6.52442684 189.500291,6.52442684 C190.969614,6.52442684 192.375344,6.81074545 193.67823,7.37516735 Z M238.18127,17.3671085 L238.18127,6.52442684 L242.244499,6.52442684 L242.244499,17.3671085 C242.244499,18.8908955 241.950878,20.3310081 241.372459,21.6478911 C240.796779,22.9562546 240.001112,24.1085272 239.007364,25.0733692 C238.020615,26.03243 236.867125,26.801626 235.579756,27.359354 C234.277478,27.9234716 232.871748,28.2097902 231.401513,28.2097902 C230.308877,28.2097902 229.256101,28.055525 228.271482,27.751863 C227.293556,27.4497223 226.373746,27.0188752 225.537915,26.4711882 C224.70969,25.928978 223.955708,25.2836202 223.296962,24.5527623 C223.04533,24.2740504 222.807695,23.9819507 222.586794,23.6801143 C222.360417,23.9846891 222.116696,24.2795273 221.857154,24.5612818 C221.184716,25.2906184 220.41765,25.9347592 219.57695,26.4760565 C218.731382,27.0207008 217.807617,27.4500266 216.831517,27.7515587 C215.847201,28.055525 214.820593,28.2097902 213.779683,28.2097902 C212.258634,28.2097902 210.821564,27.9240801 209.507724,27.3611796 C208.200273,26.8010175 207.048609,26.0275617 206.084072,25.0621112 C205.118621,24.0969649 204.345165,22.9449966 203.785612,21.638763 C203.222407,20.3249227 202.937001,18.8878528 202.937001,17.3671085 L202.937001,6.52442684 L206.999926,6.52442684 L206.999926,17.3671085 C206.999926,18.2863099 207.180967,19.1653476 207.538181,19.9792714 C207.899958,20.8068873 208.392572,21.5350068 209.002331,22.1444607 C209.61148,22.7536104 210.339904,23.2462244 211.166912,23.6086107 C211.98114,23.9658243 212.860177,24.146561 213.779683,24.146561 C214.69858,24.146561 215.577313,23.9658243 216.391846,23.6086107 C217.219157,23.2462244 217.947581,22.7536104 218.557035,22.1444607 C219.165272,21.5362238 219.65819,20.8078001 220.021185,19.9792714 C220.378094,19.1644348 220.559135,18.2857014 220.559135,17.3671085 L220.559135,6.52442684 L224.62206,6.52442684 L224.62206,17.3671085 C224.62206,18.2866142 224.803101,19.1656519 225.160315,19.9792714 C225.522093,20.806583 226.014707,21.5350068 226.624161,22.1444607 C227.23331,22.7536104 227.961734,23.2459202 228.789046,23.6086107 C229.603578,23.9658243 230.482616,24.146561 231.401513,24.146561 C232.320714,24.146561 233.199448,23.9658243 234.01398,23.6086107 C234.8419,23.2459202 235.57002,22.7533061 236.178865,22.1444607 C236.787406,21.5359196 237.280324,20.8078001 237.643015,19.9792714 C238.000229,19.1641305 238.18127,18.2853971 238.18127,17.3671085 Z M251.373224,10.5878081 C250.634455,10.5878081 250.062122,10.7941036 249.572551,11.236513 C249.114624,11.6500167 248.90133,12.1672767 248.90133,12.863752 C248.90133,13.5821348 249.126795,14.1419926 249.610889,14.6254786 C250.095288,15.1098773 250.655146,15.3356461 251.373224,15.3356461 L260.184291,15.3356461 C261.054505,15.3356461 261.885772,15.5026906 262.65436,15.8319114 C263.413515,16.1568723 264.091126,16.614191 264.668023,17.1901752 C265.244311,17.7673765 265.70163,18.4446827 266.027199,19.2044463 C266.35642,19.9733381 266.523464,20.804301 266.523464,21.6748191 C266.523464,22.5404689 266.358246,23.3805599 266.03298,24.1707506 C265.708628,24.9588113 265.252831,25.6574166 264.678063,26.2470929 C264.107556,26.8328138 263.437552,27.3080844 262.686917,27.6601254 C261.910114,28.0246416 261.067893,28.2096381 260.184291,28.2096381 L244.838101,28.2096381 L244.838101,24.1467132 L260.184291,24.1467132 C260.791311,24.1467132 261.293053,23.9233786 261.762847,23.4441524 C262.238726,22.9588409 262.460235,22.3965489 262.460235,21.6748191 C262.460235,20.9743882 262.250897,20.4549984 261.800881,20.0402776 C261.325915,19.6024323 260.812002,19.398571 260.184291,19.398571 L251.373224,19.398571 C250.442461,19.398571 249.565553,19.2157044 248.766538,18.8548395 C247.98791,18.504624 247.296607,18.029962 246.712408,17.4448497 C246.120602,16.8539562 245.655068,16.152004 245.328585,15.3596835 C245.00332,14.5688842 244.838101,13.7290975 244.838101,12.863752 C244.838101,11.9929296 245.005146,11.1619667 245.334366,10.3933792 C245.661762,9.62935585 246.129121,8.94839832 246.722753,8.36997997 C247.312429,7.79521287 248.011035,7.33941556 248.798791,7.01506313 C249.589286,6.68949362 250.45524,6.52457898 251.373224,6.52457898 L266.523464,6.52457898 L266.523464,10.5878081 L251.373224,10.5878081 Z" id="Combined-Shape" fill="#004993"></path>
        </g>
    </g>
</svg>