<?xml version="1.0" encoding="UTF-8"?>
<svg width="45px" height="45px" viewBox="0 0 45 45" version="1.1" xmlns="http://www.w3.org/2000/svg" xmlns:xlink="http://www.w3.org/1999/xlink">
    <!-- Generator: Sketch 56.3 (81716) - https://sketch.com -->
    <title>database</title>
    <desc>Created with Sketch.</desc>
    <g id="database" stroke="none" stroke-width="1" fill="none" fill-rule="evenodd">
        <g id="Group-30" transform="translate(1.000000, 7.000000)">
            <path d="M38.5174989,28.6567842 L4.33657263,28.6567842 C2.67088842,28.6567842 1.32023579,27.3065842 1.32023579,25.6404474 L1.32023579,24.2042474 L41.5338358,24.2042474 L41.5338358,25.6404474 C41.5338358,27.3065842 40.1831832,28.6567842 38.5174989,28.6567842" id="Fill-1" fill="#8F50F4"></path>
            <path d="M41.9435579,23.0068105 C42.4165579,23.0068105 42.7994842,23.3901895 42.7994842,23.8627368 L42.7994842,25.5745895 C42.7994842,27.9346105 40.8794211,29.8546737 38.5194,29.8546737 L4.28008421,29.8546737 C1.92006316,29.8546737 3.48165941e-13,27.9346105 3.48165941e-13,25.5745895 L3.48165941e-13,23.8627368 C3.48165941e-13,23.3901895 0.382473684,23.0068105 0.855926316,23.0068105 L2.46412632,23.0068105 L2.46412632,2.56777895 C2.46412632,1.15194737 3.61607368,2.7000624e-13 5.03235789,2.7000624e-13 L37.7739158,2.7000624e-13 C39.1902,2.7000624e-13 40.3421474,1.15194737 40.3421474,2.56777895 L40.3421474,23.0068105 L41.9435579,23.0068105 Z M4.17643158,2.56777895 L4.17643158,23.0068105 L38.6298421,23.0068105 L38.6298421,2.56777895 C38.6298421,2.09613684 38.2464632,1.71185263 37.7739158,1.71185263 L5.03235789,1.71185263 C4.55981053,1.71185263 4.17643158,2.09613684 4.17643158,2.56777895 Z M11.1960232,13.6125326 C10.8194337,13.6125326 10.5130021,13.9189642 10.5130021,14.2951011 L10.5130021,17.9926484 C10.5130021,18.3687853 10.8194337,18.6752168 11.1960232,18.6752168 L30.4215495,18.6752168 C30.7976863,18.6752168 31.1041179,18.3687853 31.1041179,17.9926484 L31.1041179,14.2951011 C31.1041179,13.9189642 30.7976863,13.6125326 30.4215495,13.6125326 L11.1960232,13.6125326 Z M30.4215495,12.0201747 C30.7976863,12.0201747 31.1041179,11.7141958 31.1041179,11.3376063 L31.1041179,7.64051158 C31.1041179,7.26392211 30.7976863,6.95749053 30.4215495,6.95749053 L11.1960232,6.95749053 C10.8194337,6.95749053 10.5130021,7.26392211 10.5130021,7.64051158 L10.5130021,11.3376063 C10.5130021,11.7141958 10.8194337,12.0201747 11.1960232,12.0201747 L30.4215495,12.0201747 Z M32.6960232,7.64051158 L32.6960232,11.3376063 C32.6942126,11.88348 32.4968653,12.4062695 32.1388337,12.8163537 C32.4968653,13.2259853 32.6942126,13.7492274 32.6960232,14.2951011 L32.6960232,17.9926484 C32.6960232,19.2468905 31.6757916,20.2671221 30.4215495,20.2671221 L11.1960232,20.2671221 C9.94178105,20.2671221 8.92109684,19.2468905 8.92109684,17.9926484 L8.92109684,14.2951011 C8.92290737,13.7492274 9.12070737,13.2259853 9.47873895,12.8163537 C9.12070737,12.4062695 8.92290737,11.8830274 8.92109684,11.3376063 L8.92109684,7.64051158 C8.92109684,5.39138526 11.1733916,5.36513263 11.1960232,5.36513263 L30.4215495,5.36513263 C30.4441811,5.36513263 32.6960232,5.39138526 32.6960232,7.64051158 Z M18.5904389,8.69283474 C19.0294916,8.69283474 19.3861653,9.04996105 19.3861653,9.48901368 C19.3861653,9.92806632 19.0294916,10.2851926 18.5904389,10.2851926 L13.4141442,10.2851926 C12.9755442,10.2851926 12.6184179,9.92806632 12.6184179,9.48901368 C12.6184179,9.04996105 12.9755442,8.69283474 13.4141442,8.69283474 L18.5904389,8.69283474 Z M20.8040789,8.69283474 C21.2408684,8.69283474 21.5975421,9.04679263 21.6002734,9.48403474 C21.6029737,9.92308737 21.2481105,10.2824768 20.8090579,10.2851926 C20.5972263,10.2824768 20.3976158,10.2005505 20.2446263,10.0552558 C19.9377421,9.74203474 19.9377421,9.23554 20.2432684,8.92412947 C20.3926368,8.77657158 20.5899842,8.69419263 20.7995526,8.69283474 L20.8000053,8.69283474 L20.8040789,8.69283474 Z M23.0197105,8.70786211 C23.4510684,8.70786211 23.8036684,9.05638842 23.8081947,9.48865158 C23.8122684,9.92363053 23.4623842,10.2807568 23.0278579,10.2848305 C22.8155737,10.2816621 22.6155105,10.2001884 22.4629737,10.0553463 C22.3149632,9.90688316 22.2330368,9.71179895 22.2312263,9.50404105 C22.2289632,9.29356737 22.3090789,9.09440947 22.4561842,8.94413579 C22.6041947,8.79386211 22.8010895,8.71012526 23.0115632,8.70786211 L23.0197105,8.70786211 Z M28.2077284,8.68839895 C28.6467811,8.69111474 29.0016442,9.05050421 28.9989439,9.48955684 L28.9989439,9.50404105 C28.9948547,9.93675684 28.6413495,10.2848305 28.2104442,10.2848305 C28.2068232,10.2848305 28.2027495,10.2839253 28.1991284,10.2848305 C27.9882021,10.2848305 27.7822547,10.1992832 27.6333389,10.0494621 C27.4835179,9.89873579 27.4015916,9.69822 27.4024894,9.48593579 C27.4034021,9.27319895 27.4871389,9.07358842 27.6383179,8.92376737 C27.7863284,8.77394632 27.9927284,8.68839895 28.2041074,8.68839895 L28.2077284,8.68839895 Z M13.4143253,16.9396463 C12.9752726,16.9396463 12.6181463,16.58252 12.6181463,16.1434674 C12.6181463,15.7044147 12.9752726,15.3477411 13.4143253,15.3477411 L18.59062,15.3477411 C19.02922,15.3477411 19.3863463,15.7044147 19.3863463,16.1434674 C19.3863463,16.58252 19.02922,16.9396463 18.59062,16.9396463 L13.4143253,16.9396463 Z M20.8038526,16.9396463 C20.5933789,16.9396463 20.3878842,16.8545516 20.2389684,16.7042779 C20.0896,16.5535516 20.0076737,16.3530358 20.0085715,16.1402989 C20.0090316,15.9280147 20.0927684,15.7284042 20.2439474,15.5785832 C20.3924105,15.4310253 20.5897579,15.3486463 20.7997789,15.3477411 L20.8047579,15.3477411 C21.0156842,15.3477411 21.2139368,15.4292147 21.3637579,15.5776779 C21.5149368,15.7270463 21.5991263,15.9266568 21.6004842,16.1389411 C21.6018421,16.3516779 21.5199158,16.5526463 21.3705474,16.7038253 C21.2207263,16.8550042 21.0215684,16.9382884 20.8088316,16.9396463 L20.8038526,16.9396463 Z M23.0265453,16.9423168 C22.8219558,16.9423168 22.6173663,16.8644642 22.4616611,16.7087589 C22.1502505,16.3973484 22.1502505,15.8904011 22.4616611,15.5785379 L22.4634716,15.57718 C22.7812189,15.2825168 23.2763979,15.2861379 23.5909768,15.5848747 C23.7412505,15.7351484 23.8231768,15.9334011 23.8227261,16.1434221 C23.8213663,16.3552537 23.7398926,16.5557695 23.5923347,16.7078537 C23.4361768,16.8640116 23.2315874,16.9423168 23.0265453,16.9423168 Z M28.2028853,16.9352558 C28.0001063,16.9352558 27.7973274,16.8583084 27.6425274,16.7048663 C27.3311168,16.3957189 27.3288537,15.8905821 27.6375484,15.5791716 L27.6393589,15.5773611 C27.9557484,15.2849611 28.4504747,15.2849611 28.7664116,15.5773611 C29.0751063,15.8883189 29.0751063,16.3911926 28.7682221,16.6998874 C28.6129695,16.8569505 28.4079274,16.9352558 28.2028853,16.9352558 Z M41.0876316,25.5745895 L41.0876316,24.7186632 L39.4961789,24.7186632 C39.4925579,24.7186632 39.4893895,24.7209263 39.4857684,24.7209263 L3.32005263,24.7209263 C3.31643158,24.7209263 3.31326316,24.7186632 3.31009474,24.7186632 L1.71185263,24.7186632 L1.71185263,25.5745895 C1.71185263,26.9908737 2.8638,28.1428211 4.28008421,28.1428211 L38.5194,28.1428211 C39.9356842,28.1428211 41.0876316,26.9908737 41.0876316,25.5745895 Z" id="Combined-Shape" fill="#4A4A4A"></path>
        </g>
    </g>
</svg>