<?xml version="1.0" encoding="UTF-8"?>
<svg width="45px" height="45px" viewBox="0 0 45 45" version="1.1" xmlns="http://www.w3.org/2000/svg" xmlns:xlink="http://www.w3.org/1999/xlink">
    <!-- Generator: Sketch 56.3 (81716) - https://sketch.com -->
    <title>design</title>
    <desc>Created with Sketch.</desc>
    <g id="design" stroke="none" stroke-width="1" fill="none" fill-rule="evenodd">
        <g id="Group-8" transform="translate(1.000000, 7.000000)">
            <path d="M38.4935095,28.6569653 L4.31258316,28.6569653 C2.64689895,28.6569653 1.29624632,27.3067653 1.29624632,25.6406284 L1.29624632,24.2044284 L41.5102989,24.2044284 L41.5102989,25.6406284 C41.5102989,27.3067653 40.1596463,28.6569653 38.4935095,28.6569653" id="Fill-1" fill="#8F50F4"></path>
            <path d="M41.0877221,25.5747705 L41.0877221,24.7188442 L39.4962695,24.7188442 C39.4926484,24.7188442 39.4899326,24.7211074 39.4858589,24.7211074 L3.32059579,24.7211074 C3.31652211,24.7211074 3.31335368,24.7188442 3.31018526,24.7188442 L1.71194316,24.7188442 L1.71194316,25.5747705 C1.71194316,26.9910547 2.86389053,28.1430021 4.28017474,28.1430021 L38.5199432,28.1430021 C39.9357747,28.1430021 41.0877221,26.9910547 41.0877221,25.5747705 Z M4.17652211,2.56796 L4.17652211,23.0069916 L38.6299326,23.0069916 L38.6299326,2.56796 C38.6299326,2.09631789 38.2465537,1.71203368 37.7740063,1.71203368 L5.03244842,1.71203368 C4.55990105,1.71203368 4.17652211,2.09631789 4.17652211,2.56796 Z M41.9436484,23.0069916 C42.4171011,23.0069916 42.7995747,23.3903705 42.7995747,23.8629179 L42.7995747,25.5747705 C42.7995747,27.9347916 40.8795116,29.8548547 38.5199432,29.8548547 L4.28017474,29.8548547 C1.92015368,29.8548547 9.05263158e-05,27.9347916 9.05263158e-05,25.5747705 L9.05263158e-05,23.8629179 C9.05263158e-05,23.3903705 0.383016842,23.0069916 0.856016842,23.0069916 L2.46421684,23.0069916 L2.46421684,2.56796 C2.46421684,1.15212842 3.61616421,0.000181052632 5.03244842,0.000181052632 L37.7740063,0.000181052632 C39.1902905,0.000181052632 40.3422379,1.15212842 40.3422379,2.56796 L40.3422379,23.0069916 L41.9436484,23.0069916 Z M32.3535621,13.1393063 L32.3535621,11.1929905 C32.3535621,10.2030853 31.5782042,9.42772737 30.5882989,9.42772737 L29.8640884,9.42772737 L29.8640884,14.9045695 L30.5882989,14.9045695 C31.5782042,14.9045695 32.3535621,14.1296642 32.3535621,13.1393063 Z M15.0177726,11.4193063 L28.4156674,11.4193063 L28.4156674,9.42772737 L15.0177726,9.42772737 L15.0177726,11.4193063 Z M15.0177726,14.9045695 L28.4156674,14.9045695 L28.4156674,12.9129905 L15.0177726,12.9129905 L15.0177726,14.9045695 Z M13.5240884,14.1436958 L13.5240884,10.1437905 L10.9359411,12.1435168 L13.5240884,14.1436958 Z M30.5882989,7.97975895 C32.3603516,7.97975895 33.8019832,9.42093789 33.8019832,11.1929905 L33.8019832,13.1393063 C33.8019832,14.9113589 32.3603516,16.3534432 30.5882989,16.3534432 L14.2935621,16.3534432 C14.0980253,16.3534432 13.9712884,16.3154221 13.8422884,16.2185589 L9.27478316,12.7360116 C9.09599368,12.5934326 8.99777263,12.3829589 8.99777263,12.1435168 C8.99777263,11.9040747 9.09599368,11.6940537 9.27025684,11.5546432 L13.7608147,8.13636947 C13.9291937,8.05218 14.0749411,7.97975895 14.2482989,7.97975895 L30.5882989,7.97975895 Z" id="Combined-Shape" fill="#4A4A4A"></path>
        </g>
    </g>
</svg>