<?xml version="1.0" encoding="UTF-8"?>
<svg width="32px" height="32px" viewBox="0 0 32 32" version="1.1" xmlns="http://www.w3.org/2000/svg" xmlns:xlink="http://www.w3.org/1999/xlink">
    <!-- Generator: Sketch 56.3 (81716) - https://sketch.com -->
    <title>devops</title>
    <desc>Created with Sketch.</desc>
    <g id="devops" stroke="none" stroke-width="1" fill="none" fill-rule="evenodd">
        <g id="Group-27-Copy-3" transform="translate(1.000000, 1.000000)">
            <path d="M27.5117059,18.7131176 C27.4805294,18.7425294 27.4555294,18.7742941 27.4361176,18.8072353 C27.4567059,18.7731176 27.482,18.7410588 27.5117059,18.7131176 L27.5117059,18.7131176 Z M21.3631765,22.6057647 C21.0987647,22.6057647 20.8952353,22.5975294 20.8361176,22.5881176 C20.7534706,22.5757647 20.5346471,22.5425294 20.4128824,22.3401765 C20.1578824,21.9166471 19.882,21.0537059 19.762,20.6560588 L18.9699412,20.2945882 C17.5858235,21.1642941 17.3775882,21.1642941 17.2634706,21.1642941 C17.0611176,21.1642941 16.8790588,21.1034118 16.0596471,20.2610588 C15.2078824,19.3854706 15.2078824,19.3263529 15.2078824,19.1519412 C15.2078824,18.9084118 15.4052353,18.7107647 15.6490588,18.7107647 C15.8087647,18.7107647 15.9484706,18.7954706 16.0261176,18.9222353 C16.1817059,19.1201765 16.9755294,19.9625294 17.3099412,20.239 C17.5893529,20.1022353 18.1981765,19.7410588 18.6990588,19.4222353 C18.8252353,19.3419412 18.9834706,19.3310588 19.1190588,19.3931176 L20.3114118,19.9372353 C20.4290588,19.9904706 20.517,20.0931176 20.5525882,20.2175294 C20.6378824,20.5163529 20.8799412,21.2960588 21.0861176,21.7278235 C21.4261176,21.7469412 22.2072941,21.7042941 22.5655294,21.6569412 C22.6758235,21.359 22.8837647,20.7016471 23.0514118,20.1375294 C23.0881765,20.0134118 23.1778824,19.9119412 23.2964118,19.8598824 C24.4717059,19.3413529 24.6296471,19.3413529 24.7143529,19.3413529 C24.7811176,19.3413529 24.8467059,19.3566471 24.9067059,19.3857647 C25.3996471,19.6242941 25.9828824,19.8937059 26.2693529,20.0101765 C26.5387647,19.7772353 27.0728824,19.264 27.3093529,18.9948824 C27.2143529,18.8154706 27.0652353,18.5463529 26.9546471,18.3466471 C26.4517059,17.4381176 26.4517059,17.4381176 26.4890588,17.2545882 C26.5440588,16.9851765 26.9061176,16.2328235 27.0593529,15.9216471 C27.1102353,15.8184118 27.1990588,15.739 27.3078824,15.7004706 C27.8605294,15.5045882 28.5102353,15.2548824 28.8014118,15.119 C28.8340588,14.5337059 28.8287647,13.9745882 28.8008235,13.7154706 C28.1908235,13.4548824 27.2517059,13.1257647 27.2414118,13.1222353 C27.1114118,13.0766471 27.0099412,12.9731176 26.9672941,12.8422353 C26.9384706,12.7631176 26.7061176,12.2692941 26.5084706,11.8604706 C26.4484706,11.7357647 26.4502353,11.5901765 26.5134706,11.4669412 C26.7902353,10.9284118 27.102,10.2778235 27.2140588,9.98694118 C26.8175882,9.43694118 26.3793529,9.06958824 26.1340588,8.88752941 L24.5884706,9.66870588 C24.4537647,9.73635294 24.2940588,9.73105882 24.1643529,9.65458824 C23.952,9.52841176 23.3267059,9.26811765 23.1040588,9.17841176 C22.9840588,9.13047059 22.8914118,9.03223529 22.8502353,8.90988235 C22.6614118,8.34811765 22.4446471,7.72635294 22.3258235,7.41341176 C21.6690588,7.36458824 21.1625882,7.39282353 20.8784706,7.41988235 L20.387,8.91958824 C20.3499412,9.03252941 20.2687647,9.12605882 20.162,9.17841176 L18.9352353,9.779 C18.8067059,9.84135294 18.6561176,9.83870588 18.5305294,9.77047059 C18.0231765,9.49488235 17.4264118,9.18252941 17.1408235,9.04752941 C16.7996471,9.29017647 16.4028824,9.72841176 16.1490588,10.0345882 L16.9511176,11.2922353 C17.0408235,11.4328235 17.0437647,11.6116471 16.9584706,11.7545882 L15.7422941,13.8019412 L15.8437647,16.3116471 C15.8475882,16.404 15.8222941,16.4948824 15.7717059,16.5722353 L14.3772941,18.6904706 C14.2846471,18.8313529 14.1217059,18.9060588 13.9528824,18.8854706 C13.4740588,18.8242941 12.9158235,18.7601765 12.6499412,18.7378235 C12.4549412,18.9337059 12.1122941,19.2798824 11.9234706,19.4713529 C11.9493529,20.1048824 11.9834706,20.994 11.9749412,21.1178235 C11.9558235,21.4060588 11.7167059,21.5748824 11.4614118,21.7142941 C11.4455294,21.7228235 9.83052941,22.5334118 9.36376471,22.2745882 C9.31729412,22.249 9.27582353,22.2151765 9.24141176,22.1748824 L8.17641176,20.9257647 C7.90435294,20.9334118 7.51641176,20.9284118 7.25641176,20.9228235 C6.20288235,22.0837059 6.12405882,22.1413529 6.08523529,22.1695882 C5.86905882,22.3275294 5.58435294,22.3401765 4.69464706,21.9601765 C4.36111765,21.8172353 3.77847059,21.5495882 3.61994118,21.3587059 C3.54464706,21.2678235 3.51023529,21.1495882 3.51670588,21.0342941 L3.51317647,21.034 C3.54464706,20.3681176 3.57052941,19.6234118 3.57023529,19.3007647 C3.35023529,19.1098824 3.07405882,18.824 2.90052941,18.6398824 L1.28141176,18.7581176 C1.14905882,18.7698824 1.01670588,18.7160588 0.925529412,18.6175294 C0.470235294,18.1254706 0.0875882353,16.7763529 0.0155294118,16.5107647 C-0.0285882353,16.3484118 0.0231764706,16.1757647 0.149058824,16.0645882 C0.191705882,16.0269412 1.07141176,15.2498824 1.54758824,14.8619412 L1.51082353,13.9913529 L0.259352941,12.7884118 C0.165235294,12.6978235 0.115823529,12.5704706 0.124941176,12.4398824 C0.196117647,11.4134118 1.01082353,10.3966471 1.04552941,10.354 C1.13494118,10.244 1.27141176,10.1869412 1.41347059,10.1910588 L3.13082353,10.2884118 C3.327,10.0748824 3.63023529,9.77135294 3.82994118,9.57370588 L3.717,7.91194118 C3.70641176,7.75576471 3.77935294,7.60547059 3.90876471,7.51752941 C4.87670588,6.85811765 5.967,6.73429412 6.01288235,6.72929412 C6.14994118,6.714 6.28552941,6.76429412 6.38023529,6.86429412 C6.38023529,6.86429412 7.21641176,7.74547059 7.55905882,8.104 L8.43258824,8.13282353 L9.50994118,6.95164706 C9.60023529,6.85252941 9.732,6.80105882 9.86494118,6.80870588 C10.7275882,6.86576471 11.8946471,7.63223529 12.0249412,7.71958824 C12.1543529,7.80576471 12.2284706,7.95429412 12.2202353,8.10988235 L12.1272941,9.82664706 C12.4602353,10.1066471 12.8108235,10.5157647 12.8575882,10.5707647 C13.0152353,10.7563529 12.9925882,11.0345882 12.807,11.1925294 C12.6211176,11.3495882 12.3425882,11.3272353 12.1852353,11.1416471 C12.0022941,10.9269412 11.6372941,10.5375294 11.4349412,10.4069412 C11.3017059,10.3210588 11.2249412,10.1707647 11.2334706,10.0122353 L11.3249412,8.32047059 C10.9846471,8.11458824 10.4311176,7.81752941 10.0037647,7.71988235 L8.94758824,8.87752941 C8.86052941,8.97311765 8.73523529,9.02929412 8.607,9.02105882 L7.35052941,8.98017647 C7.23611765,8.97635294 7.12788235,8.92841176 7.04817647,8.84664706 C6.91847059,8.71252941 6.22141176,7.97841176 5.90111765,7.64135294 C5.62494118,7.69635294 5.112,7.829 4.61523529,8.11517647 L4.72376471,9.71605882 C4.73258824,9.84458824 4.68464706,9.97047059 4.59258824,10.0607647 C4.20905882,10.4372353 3.75023529,10.904 3.67817647,11.0013529 C3.58964706,11.1207647 3.44611765,11.1863529 3.297,11.1816471 L1.60111765,11.0854706 C1.40494118,11.3695882 1.12317647,11.8525294 1.032,12.3072353 L2.24994118,13.4781176 C2.332,13.5566471 2.38023529,13.6637059 2.38494118,13.7775294 L2.43847059,15.0495882 C2.44464706,15.1948824 2.37876471,15.3337059 2.26258824,15.4210588 C2.007,15.6128235 1.29817647,16.2295882 0.942588235,16.5416471 C1.082,16.9998824 1.28523529,17.5578235 1.462,17.8601765 L3.04758824,17.7445882 C3.18405882,17.7357647 3.31347059,17.7875294 3.40464706,17.8866471 C3.66258824,18.1681176 4.09347059,18.6098824 4.24376471,18.7113529 C4.47905882,18.8707647 4.49641176,18.8825294 4.40523529,20.8457647 C4.71170588,21.0145882 5.34670588,21.2957647 5.64405882,21.3713529 C5.85435294,21.1501765 6.31905882,20.6437059 6.73788235,20.1813529 C6.82405882,20.0857647 6.95023529,20.0357647 7.07611765,20.0360588 C7.57641176,20.0487059 8.18788235,20.0522353 8.30464706,20.0363529 C8.45258824,20.0154706 8.60758824,20.0719412 8.70523529,20.1863529 L9.76494118,21.4287059 C10.1108235,21.3431176 10.8175882,21.0757647 11.0925882,20.9116471 C11.0843529,20.5910588 11.0561176,19.8481176 11.0337647,19.3160588 C11.0287647,19.1937059 11.0746471,19.0748824 11.1608235,18.9878235 C11.1608235,18.9878235 12.0311176,18.1063529 12.1628824,17.9778235 C12.3281765,17.8157647 12.3502353,17.794 13.7914118,17.9757647 L14.9567059,16.2054706 L14.8555294,13.7069412 C14.852,13.6216471 14.8734706,13.5372353 14.917,13.464 L16.0611176,11.5378235 L15.2355294,10.2434118 C15.1364118,10.0875294 15.1443529,9.88694118 15.2558235,9.73988235 C15.3467059,9.61958824 16.1643529,8.55576471 16.8834706,8.16929412 C17.112,8.04517647 17.1552353,8.02341176 18.7514118,8.88635294 L19.6067059,8.46782353 L20.127,6.87988235 C20.1775882,6.72576471 20.3084706,6.61194118 20.4678824,6.58282353 C20.5037647,6.57664706 21.3575882,6.42605882 22.6658235,6.55723529 C22.9843529,6.589 23.0005294,6.59076471 23.6222941,8.43723529 C23.8261176,8.52164706 24.1475882,8.65841176 24.3934706,8.77870588 L25.9693529,7.98223529 C26.1049412,7.914 26.2658235,7.91988235 26.3958235,7.99811765 C26.4340588,8.02105882 27.3375882,8.57223529 28.0537647,9.64988235 C28.1931765,9.85988235 28.2655294,9.96929412 27.3984706,11.6745882 C27.507,11.9010588 27.6328824,12.1669412 27.717,12.3545882 C28.0737647,12.4822353 28.8617059,12.7698824 29.3417059,12.9898824 C29.5452353,13.0831176 29.8243529,13.2107647 29.6675882,15.3984118 C29.6472941,15.6816471 29.6384706,15.8037059 27.7728824,16.4713529 C27.6214118,16.7866471 27.4675882,17.1251765 27.3943529,17.3128235 C27.4746471,17.4642941 27.6158235,17.7192941 27.7267059,17.9195882 C28.3246471,18.9995882 28.3805294,19.1007647 28.1428824,19.3307647 C27.7734706,19.9266471 26.6196471,20.8616471 26.5490588,20.8954706 C26.347,20.9913529 26.2752353,21.0248824 24.6684706,20.2504706 C24.4925882,20.3119412 24.1567059,20.449 23.8384706,20.5860588 C23.352,22.2048824 23.2631765,22.284 23.1690588,22.3678235 C22.9534706,22.5595882 21.9878824,22.6057647 21.3631765,22.6057647 L21.3631765,22.6057647 Z" id="Fill-1" fill="#231F20"></path>
            <path d="M11.7746471,14.5588235 C11.7746471,16.8955882 9.88023529,18.7902941 7.54317647,18.7902941 C5.20611765,18.7902941 3.31170588,16.8955882 3.31170588,14.5588235 C3.31170588,12.2217647 5.20611765,10.3273529 7.54317647,10.3273529 C9.88023529,10.3273529 11.7746471,12.2217647 11.7746471,14.5588235" id="Fill-3" fill="#11B8A4"></path>
            <path d="M7.54311765,10.7686176 C5.45311765,10.7686176 3.75282353,12.4689118 3.75282353,14.5589118 C3.75282353,16.6486176 5.45311765,18.3489118 7.54311765,18.3489118 C9.63311765,18.3489118 11.3334118,16.6486176 11.3334118,14.5589118 C11.3334118,12.4689118 9.63311765,10.7686176 7.54311765,10.7686176 M7.54311765,19.2312647 C4.96664706,19.2312647 2.87047059,17.1350882 2.87047059,14.5589118 C2.87047059,11.9824412 4.96664706,9.88626471 7.54311765,9.88626471 C10.1195882,9.88626471 12.2157647,11.9824412 12.2157647,14.5589118 C12.2157647,17.1350882 10.1195882,19.2312647 7.54311765,19.2312647" id="Fill-5" fill="#231F20"></path>
            <path d="M25.9910882,14.5588235 C25.9910882,16.8955882 24.0966765,18.7902941 21.7596176,18.7902941 C19.4225588,18.7902941 17.5281471,16.8955882 17.5281471,14.5588235 C17.5281471,12.2217647 19.4225588,10.3273529 21.7596176,10.3273529 C24.0966765,10.3273529 25.9910882,12.2217647 25.9910882,14.5588235" id="Fill-7" fill="#11B8A4"></path>
            <path d="M21.7597059,10.7686176 C19.6697059,10.7686176 17.9694118,12.4689118 17.9694118,14.5589118 C17.9694118,16.6486176 19.6697059,18.3489118 21.7597059,18.3489118 C23.8497059,18.3489118 25.55,16.6486176 25.55,14.5589118 C25.55,12.4689118 23.8497059,10.7686176 21.7597059,10.7686176 M21.7597059,19.2312647 C19.1832353,19.2312647 17.0870588,17.1350882 17.0870588,14.5589118 C17.0870588,11.9824412 19.1832353,9.88626471 21.7597059,9.88626471 C24.3361765,9.88626471 26.4323529,11.9824412 26.4323529,14.5589118 C26.4323529,17.1350882 24.3361765,19.2312647 21.7597059,19.2312647" id="Fill-9" fill="#231F20"></path>
            <path d="M7.04720588,16.3953235 C6.99808824,16.3953235 6.94838235,16.3873824 6.89955882,16.3697353 C6.66985294,16.2882647 6.54985294,16.0359118 6.63132353,15.8065 L7.62338235,13.0156176 C7.70514706,12.7856176 7.9575,12.6647353 8.18691176,12.7476765 C8.41632353,12.8291471 8.53632353,13.0812059 8.45485294,13.3109118 L7.46308824,16.1017941 C7.39867647,16.2826765 7.22867647,16.3953235 7.04720588,16.3953235" id="Fill-11" fill="#231F20"></path>
            <path d="M5.91597059,16.3447941 C5.79038235,16.3447941 5.66567647,16.2912647 5.57861765,16.1880294 L4.45655882,14.8574412 C4.31920588,14.6947941 4.31773529,14.4568529 4.45361765,14.2921471 L5.57538235,12.9327353 C5.73038235,12.7450882 6.00861765,12.7186176 6.19655882,12.8733235 C6.3845,13.0286176 6.41097059,13.3065588 6.25597059,13.4947941 L5.36832353,14.5700882 L6.25302941,15.6192059 C6.41008824,15.8053824 6.38626471,16.0836176 6.20008824,16.2406765 C6.11744118,16.3106765 6.01626471,16.3447941 5.91597059,16.3447941" id="Fill-13" fill="#231F20"></path>
            <path d="M9.17023529,16.3447941 C9.06994118,16.3447941 8.96876471,16.3106765 8.88611765,16.2406765 C8.69994118,16.0836176 8.67611765,15.8053824 8.83317647,15.6192059 L9.71788235,14.5700882 L8.83023529,13.4947941 C8.67523529,13.3065588 8.70170588,13.0286176 8.88964706,12.8733235 C9.07788235,12.7183235 9.35582353,12.7453824 9.51082353,12.9327353 L10.6325882,14.2921471 C10.7684706,14.4568529 10.767,14.6947941 10.6296471,14.8574412 L9.50758824,16.1880294 C9.42052941,16.2912647 9.29582353,16.3447941 9.17023529,16.3447941" id="Fill-15" fill="#231F20"></path>
            <path d="M21.1648824,16.3953235 C21.1157647,16.3953235 21.0660588,16.3873824 21.0172353,16.3697353 C20.7875294,16.2882647 20.6675294,16.0359118 20.749,15.8065 L21.7410588,13.0156176 C21.8228235,12.7856176 22.0751765,12.6647353 22.3045882,12.7476765 C22.534,12.8291471 22.654,13.0812059 22.5725294,13.3109118 L21.5807647,16.1017941 C21.5163529,16.2826765 21.3463529,16.3953235 21.1648824,16.3953235" id="Fill-17" fill="#231F20"></path>
            <path d="M20.0336471,16.3447941 C19.9080588,16.3447941 19.7833529,16.2912647 19.6962941,16.1880294 L18.5742353,14.8574412 C18.4368824,14.6947941 18.4354118,14.4568529 18.5712941,14.2921471 L19.6930588,12.9327353 C19.8480588,12.7450882 20.1262941,12.7186176 20.3142353,12.8733235 C20.5021765,13.0286176 20.5286471,13.3065588 20.3736471,13.4947941 L19.486,14.5700882 L20.3707059,15.6192059 C20.5277647,15.8053824 20.5039412,16.0836176 20.3177647,16.2406765 C20.2351176,16.3106765 20.1339412,16.3447941 20.0336471,16.3447941" id="Fill-19" fill="#231F20"></path>
            <path d="M23.2878824,16.3447941 C23.1875882,16.3447941 23.0864118,16.3106765 23.0037647,16.2406765 C22.8175882,16.0836176 22.7937647,15.8053824 22.9508235,15.6192059 L23.8355294,14.5700882 L22.9478824,13.4947941 C22.7928824,13.3065588 22.8193529,13.0286176 23.0072941,12.8733235 C23.1955294,12.7183235 23.4734706,12.7453824 23.6284706,12.9327353 L24.7502353,14.2921471 C24.8861176,14.4568529 24.8846471,14.6947941 24.7472941,14.8574412 L23.6252353,16.1880294 C23.5381765,16.2912647 23.4134706,16.3447941 23.2878824,16.3447941" id="Fill-21" fill="#231F20"></path>
            <path d="M29.2647353,6.17647059 C29.0209118,6.17647059 28.8235588,5.97882353 28.8235588,5.73529412 L28.8235588,0.882352941 L1.2915,0.882352941 L1.2915,5.73529412 C1.2915,5.97882353 1.09385294,6.17647059 0.850323529,6.17647059 C0.6065,6.17647059 0.409147059,5.97882353 0.409147059,5.73529412 L0.409147059,0.441176471 C0.409147059,0.197647059 0.6065,0 0.850323529,0 L29.2647353,0 C29.5085588,0 29.7059118,0.197647059 29.7059118,0.441176471 L29.7059118,5.73529412 C29.7059118,5.97882353 29.5085588,6.17647059 29.2647353,6.17647059" id="Fill-23" fill="#231F20"></path>
            <path d="M29.2628824,29.7058824 L0.848470588,29.7058824 C0.604647059,29.7058824 0.407294118,29.5082353 0.407294118,29.2647059 L0.407294118,23.9705882 C0.407294118,23.7270588 0.604647059,23.5294118 0.848470588,23.5294118 C1.09229412,23.5294118 1.28964706,23.7270588 1.28964706,23.9705882 L1.28964706,28.8235294 L28.8217059,28.8235294 L28.8217059,23.9705882 C28.8217059,23.7270588 29.0190588,23.5294118 29.2628824,23.5294118 C29.5067059,23.5294118 29.7040588,23.7270588 29.7040588,23.9705882 L29.7040588,29.2647059 C29.7040588,29.5082353 29.5067059,29.7058824 29.2628824,29.7058824" id="Fill-25" fill="#231F20"></path>
        </g>
    </g>
</svg>