<?xml version="1.0" encoding="UTF-8"?>
<svg width="45px" height="45px" viewBox="0 0 45 45" version="1.1" xmlns="http://www.w3.org/2000/svg" xmlns:xlink="http://www.w3.org/1999/xlink">
    <!-- Generator: Sketch 56.3 (81716) - https://sketch.com -->
    <title>email</title>
    <desc>Created with Sketch.</desc>
    <g id="email" stroke="none" stroke-width="1" fill="none" fill-rule="evenodd">
        <g id="Group-45" transform="translate(1.000000, 1.000000)">
            <path d="M41.5203222,21.2151141 C41.5203222,32.3021646 32.5324535,41.2900333 21.4458374,41.2900333 C10.3587869,41.2900333 1.37091818,32.3021646 1.37091818,21.2151141 C1.37091818,10.128498 10.3587869,1.14062929 21.4458374,1.14062929 C32.5324535,1.14062929 41.5203222,10.128498 41.5203222,21.2151141" id="Fill-1" fill="#FEFEFE"></path>
            <polygon id="Fill-3" fill="#11B8A4" points="10.0321172 19.0255889 21.391501 23.7781747 32.9819556 19.2436293 32.9819556 15.5178313 32.183198 14.9588313 11.3759758 14.9588313 10.0321172 15.5178313"></polygon>
            <path d="M21.4457071,41.1961717 C24.1859798,41.1961717 26.8207071,40.6849495 29.2769192,39.6768384 C31.5811111,38.7343131 33.7437071,37.3005455 35.531899,35.530596 C37.3001111,33.7441414 38.7338788,31.5811111 39.676404,29.2777879 L39.676404,29.2773535 C40.6845152,26.8207071 41.1961717,24.1859798 41.1961717,21.4457071 C41.1961717,18.706303 40.6845152,16.0711414 39.676404,13.6144949 C38.7338788,11.310303 37.3001111,9.14770707 35.530596,7.35994949 C33.7437071,5.59130303 31.5806768,4.1579697 29.2773535,3.21544444 C26.8202727,2.20689899 24.1851111,1.69567677 21.4457071,1.69567677 C18.7058687,1.69567677 16.0711414,2.20689899 13.6144949,3.21544444 C11.3107374,4.1579697 9.14770707,5.59130303 7.35951515,7.36125253 C5.59130303,9.14770707 4.15753535,11.310303 3.2150101,13.6140606 C2.20646465,16.0715758 1.69524242,18.706303 1.69524242,21.4457071 C1.69524242,24.1859798 2.20646465,26.8207071 3.21457576,29.2773535 C4.15753535,31.5811111 5.59130303,33.7441414 7.36081818,35.531899 C9.14770707,37.3005455 11.310303,38.7343131 13.6140606,39.6768384 C16.0707071,40.6849495 18.705,41.1961717 21.4457071,41.1961717 Z M41.2574141,12.9868687 C42.3415354,15.6411414 42.8914141,18.4869596 42.8914141,21.4457071 C42.8914141,24.4048889 42.3415354,27.2511414 41.2574141,29.9054141 C40.1989192,32.4710808 38.670899,34.7622424 36.7163535,36.7167879 C34.7618081,38.6717677 32.4702121,40.1993535 29.9058485,41.2578485 C27.2507071,42.3419697 24.4044545,42.8914141 21.4457071,42.8914141 C18.4869596,42.8914141 15.6407071,42.3419697 12.9864343,41.2578485 C10.421202,40.1993535 8.12960606,38.6717677 6.17462626,36.7167879 C4.22051515,34.7622424 2.69249495,32.4710808 1.634,29.9058485 C0.549878788,27.2511414 -3.69482223e-13,24.4048889 -3.69482223e-13,21.4457071 C-3.69482223e-13,18.4873939 0.549878788,15.6411414 1.634,12.9868687 C2.69249495,10.421202 4.22008081,8.12960606 6.17462626,6.17506061 C8.12960606,4.22051515 10.421202,2.69292929 12.9855657,1.63443434 C15.6411414,0.549878788 18.4873939,8.8817842e-14 21.4457071,8.8817842e-14 C24.4040202,8.8817842e-14 27.2502727,0.549878788 29.9049798,1.63443434 C32.4702121,2.69292929 34.7618081,4.22051515 36.7163535,6.17506061 C38.6713333,8.12960606 40.1989192,10.421202 41.2569798,12.9864343 L41.2574141,12.9868687 Z M10.8859495,15.5622646 C10.7734545,15.6200323 10.6670404,15.6799717 10.5962424,15.7655374 C10.4885253,15.8736889 10.4233737,15.9631636 10.3864545,16.0491636 L10.3369394,16.1994465 C10.3273838,16.2281131 10.3273838,16.265901 10.3273838,16.310204 L10.3273838,18.7264566 L21.2250606,23.1645778 L32.4558788,18.744699 L32.4558788,16.310204 C32.4558788,16.265901 32.4558788,16.2281131 32.4463232,16.1990121 L32.3937677,16.0422141 C32.3525051,15.9531737 32.2890909,15.8684768 32.1970101,15.7759616 C32.1066667,15.6860525 32.0167576,15.6248101 31.906,15.576598 C31.8530101,15.5444566 31.8291212,15.5353354 31.8069697,15.5353354 L31.7561515,15.5275172 C31.7270505,15.5175273 31.6892626,15.5175273 31.6453939,15.5175273 L11.1196263,15.5175273 C11.094,15.5175273 11.0549091,15.5175273 11.0423131,15.521002 L11.008,15.5379414 L10.9762929,15.5353354 C10.9385051,15.5357697 10.9150505,15.5427192 10.8859495,15.5622646 Z M10.3273838,20.4877192 L10.3273838,28.7085374 C10.3273838,28.7367697 10.3273838,28.7719515 10.3369394,28.8006182 L10.390798,28.9630626 C10.4294545,29.0512343 10.5041616,29.1602545 10.5858182,29.2414768 C10.6770303,29.3166182 10.7730202,29.3969717 10.8772626,29.4417091 C10.9302525,29.4734162 10.9537071,29.4825374 10.9745556,29.4825374 L11.0071313,29.4829717 L11.049697,29.5003455 C11.0675051,29.5094667 11.0961717,29.5185879 11.1196263,29.5185879 L31.6453939,29.5185879 C31.6692828,29.5185879 31.6975152,29.5094667 31.7153232,29.5003455 L31.790899,29.4825374 C31.8273838,29.4825374 31.8495354,29.4755879 31.8790707,29.4560424 C31.9928687,29.4043556 32.0823434,29.339204 32.179202,29.2419111 C32.2717172,29.149396 32.3342626,29.0568808 32.3968081,28.9478606 L32.4463232,28.8006182 C32.4558788,28.7719515 32.4558788,28.7367697 32.4558788,28.7085374 L32.4558788,20.5055273 C32.4558788,20.5055273 21.4457071,24.9249717 21.2250606,24.9249717 L10.3273838,20.4877192 Z M33.9191818,15.3377091 C33.9960606,15.475396 34.054697,15.6326283 34.0933535,15.8063657 C34.1311414,15.9562141 34.1511212,16.1321232 34.1511212,16.310204 L34.1511212,28.7085374 C34.1511212,28.8722848 34.1302727,29.0464566 34.0924848,29.1984768 C34.0607778,29.3409414 34.0121313,29.4877495 33.9400303,29.6554061 C33.8062525,29.9425071 33.6142727,30.2139717 33.3827677,30.4454768 C33.1095657,30.6960929 32.867202,30.8646182 32.6157172,30.9823253 C32.4593535,31.0605071 32.3038586,31.0991636 32.1535758,31.1369515 L32.105798,31.1478101 C31.9542121,31.1816889 31.8113131,31.2138303 31.6453939,31.2138303 L11.1196263,31.2138303 C10.9541414,31.2138303 10.8108081,31.1816889 10.6592222,31.1478101 L10.6157879,31.1378202 C10.4611616,31.0991636 10.306101,31.0605071 10.1458283,30.9801535 C9.87088889,30.8433354 9.60724242,30.6517899 9.38268687,30.4276687 C9.16551515,30.210497 8.97527273,29.9381636 8.84583838,29.6601838 C8.78633333,29.5038202 8.72943434,29.353103 8.69121212,29.1984768 C8.6529899,29.0464566 8.63214141,28.8722848 8.63214141,28.7085374 L8.63214141,16.310204 C8.63214141,16.1321232 8.65255556,15.9562141 8.69121212,15.8020222 C8.72813131,15.6530424 8.78329293,15.504497 8.83932323,15.3555172 C8.96311111,15.088396 9.13207071,14.8464667 9.37747475,14.5780424 C9.58856566,14.3669515 9.83787879,14.1919111 10.1453939,14.0377192 C10.3282525,13.9469414 10.4820101,13.8961232 10.6309899,13.8778808 C10.7969091,13.8400929 10.952404,13.8222848 11.1196263,13.8222848 L31.6453939,13.8222848 C31.8121818,13.8222848 31.9676768,13.8400929 32.1492323,13.8800525 C32.2834444,13.8961232 32.4376364,13.9469414 32.6191919,14.0372848 C32.8771919,14.1480424 33.1443131,14.3343758 33.3827677,14.5728303 C33.6125354,14.7834869 33.8045152,15.0562545 33.9191818,15.3377091 Z" id="Combined-Shape" fill="#4A4A4A"></path>
        </g>
    </g>
</svg>