<?xml version="1.0" encoding="UTF-8"?>
<svg width="32px" height="32px" viewBox="0 0 32 32" version="1.1" xmlns="http://www.w3.org/2000/svg" xmlns:xlink="http://www.w3.org/1999/xlink">
    <!-- Generator: Sketch 56.3 (81716) - https://sketch.com -->
    <title>engineering-&amp;-design</title>
    <desc>Created with Sketch.</desc>
    <defs>
        <polygon id="path-1" points="0 0 29.9999406 0 29.9999406 30 0 30"></polygon>
    </defs>
    <g id="engineering-&amp;-design" stroke="none" stroke-width="1" fill="none" fill-rule="evenodd">
        <g id="Group-26-Copy" transform="translate(1.000000, 1.000000)">
            <path d="M26.965901,29.5544554 L3.03421782,29.5544554 C1.60461386,29.5544554 0.44560396,28.3954455 0.44560396,26.9658416 L0.44560396,3.03415842 C0.44560396,1.60425743 1.60461386,0.445544554 3.03421782,0.445544554 L26.965901,0.445544554 C28.395505,0.445544554 29.5545149,1.60425743 29.5545149,3.03415842 L29.5545149,26.9658416 C29.5545149,28.3954455 28.395505,29.5544554 26.965901,29.5544554" id="Fill-1" fill="#FEFEFE"></path>
            <g id="Group-5">
                <mask id="mask-2" fill="white">
                    <use xlink:href="#path-1"></use>
                </mask>
                <g id="Clip-4"></g>
                <path d="M3.03409901,0.891089109 C1.85221782,0.891089109 0.891029703,1.85227723 0.891029703,3.03415842 L0.891029703,26.9658416 C0.891029703,28.1477228 1.85221782,29.1089109 3.03409901,29.1089109 L26.9657822,29.1089109 C28.1476634,29.1089109 29.1088515,28.1477228 29.1088515,26.9658416 L29.1088515,3.03415842 C29.1088515,1.85227723 28.1476634,0.891089109 26.9657822,0.891089109 L3.03409901,0.891089109 Z M26.9657822,30 L3.03409901,30 C1.36122772,30 -5.94059406e-05,28.6390099 -5.94059406e-05,26.9658416 L-5.94059406e-05,3.03415842 C-5.94059406e-05,1.3609901 1.36122772,0 3.03409901,0 L26.9657822,0 C28.6389505,0 29.9999406,1.3609901 29.9999406,3.03415842 L29.9999406,26.9658416 C29.9999406,28.6390099 28.6389505,30 26.9657822,30 L26.9657822,30 Z" id="Fill-3" fill="#231F20" mask="url(#mask-2)"></path>
            </g>
            <path d="M29.5544554,4.83861386 L0.529306931,4.83861386 C0.283069307,4.83861386 0.0837623762,4.6390099 0.0837623762,4.39306931 C0.0837623762,4.14712871 0.283069307,3.94752475 0.529306931,3.94752475 L29.5544554,3.94752475 C29.8006931,3.94752475 30,4.14712871 30,4.39306931 C30,4.6390099 29.8006931,4.83861386 29.5544554,4.83861386" id="Fill-6" fill="#231F20"></path>
            <path d="M29.1184752,3.95652475 L0.821940594,3.95652475 L0.821940594,3.12365347 C0.821940594,1.89543564 1.81788119,0.89919802 3.04669307,0.89919802 L26.8940198,0.89919802 C28.1225347,0.89919802 29.1184752,1.89543564 29.1184752,3.12365347 L29.1184752,3.95652475 Z" id="Fill-8" fill="#11B8A4"></path>
            <path d="M7.85171287,26.501198 L5.59428713,26.501198 C5.34834653,26.501198 5.14874257,26.3015941 5.14874257,26.0556535 L5.14874257,7.50852475 C5.14874257,7.26228713 5.34834653,7.0629802 5.59428713,7.0629802 L7.85171287,7.0629802 C8.0979505,7.0629802 8.29725743,7.26228713 8.29725743,7.50852475 C8.29725743,7.75446535 8.0979505,7.95406931 7.85171287,7.95406931 L6.03983168,7.95406931 L6.03983168,25.6101089 L7.85171287,25.6101089 C8.0979505,25.6101089 8.29725743,25.8097129 8.29725743,26.0556535 C8.29725743,26.3015941 8.0979505,26.501198 7.85171287,26.501198" id="Fill-10" fill="#231F20"></path>
            <path d="M24.4054455,26.501198 L22.1480198,26.501198 C21.9020792,26.501198 21.7024752,26.3015941 21.7024752,26.0556535 C21.7024752,25.8097129 21.9020792,25.6101089 22.1480198,25.6101089 L23.959901,25.6101089 L23.959901,7.95406931 L22.1480198,7.95406931 C21.9020792,7.95406931 21.7024752,7.75446535 21.7024752,7.50852475 C21.7024752,7.26228713 21.9020792,7.0629802 22.1480198,7.0629802 L24.4054455,7.0629802 C24.6516832,7.0629802 24.8509901,7.26228713 24.8509901,7.50852475 L24.8509901,26.0556535 C24.8509901,26.3015941 24.6516832,26.501198 24.4054455,26.501198" id="Fill-12" fill="#231F20"></path>
            <path d="M19.3310198,8.66462376 C18.2750792,8.11244554 17.8363663,9.18680198 17.8363663,9.18680198 L10.953,22.3464059 L10.9045842,24.9406634 L13.0078515,23.4213564 L19.8912178,10.2617525 C19.8912178,10.2617525 20.5598317,9.30739604 19.4955743,8.75076238 C19.2921089,8.64442574 19.6853762,8.8499703 19.3310198,8.66462376" id="Fill-14" fill="#11B8A4"></path>
            <path d="M11.396495,22.4596931 L11.366495,24.0571188 L12.6618416,23.1217723 L19.496495,10.0551386 C19.5051089,10.0382079 19.5152079,10.0218713 19.526198,10.0061287 C19.5734257,9.9360297 19.6907525,9.7019703 19.6408515,9.50533663 C19.6066931,9.37107921 19.4881782,9.24959406 19.2891683,9.14563366 C19.285604,9.14355446 19.2817426,9.14177228 19.2781782,9.13969307 L19.2526337,9.12632673 C19.2505545,9.12543564 19.2484752,9.12424752 19.246396,9.12335644 L19.1246139,9.05949505 C18.9214455,8.95315842 18.7551089,8.92672277 18.615505,8.97692079 C18.3805545,9.06305941 18.2498614,9.35236634 18.2486733,9.35533663 C18.2436238,9.36810891 18.2376832,9.38088119 18.2311485,9.39335644 L11.396495,22.4596931 Z M10.9046139,25.3863267 C10.8339208,25.3863267 10.7629307,25.369396 10.6978812,25.3355347 C10.5484752,25.2571188 10.455802,25.1011782 10.4589857,24.9321683 L10.5074851,22.3379109 C10.5086733,22.268703 10.526198,22.2009802 10.5582772,22.1397921 L17.4339208,8.9950396 C17.4912475,8.86523762 17.7520396,8.34424752 18.3092673,8.14018812 C18.5727327,8.04424752 18.9992673,7.98810891 19.5374851,8.2699901 C19.5612475,8.28246535 19.5909505,8.29761386 19.6236238,8.31692079 C19.6292673,8.31929703 19.6349109,8.32167327 19.6405545,8.32434653 L19.6408515,8.32375248 L19.656,8.33206931 C19.6571881,8.33236634 19.6580792,8.33266337 19.6589703,8.33325743 L19.7020396,8.35612871 C20.2476832,8.64157426 20.4410495,9.02563366 20.5072871,9.2980099 C20.6445149,9.86117822 20.3599604,10.3575149 20.2753069,10.488802 L13.4026337,23.6279109 C13.3705545,23.689099 13.3248119,23.7419703 13.2686733,23.7823663 L11.1654059,25.3016733 C11.0878812,25.3578119 10.996396,25.3863267 10.9046139,25.3863267 L10.9046139,25.3863267 Z" id="Fill-16" fill="#231F20"></path>
            <path d="M17.7505842,9.35441584 L19.8054356,10.4290693" id="Fill-18" fill="#11B8A4"></path>
            <path d="M19.8049819,10.8746436 C19.7354851,10.8746436 19.6647921,10.8583069 19.5988515,10.8238515 L17.544,9.74919802 C17.3259802,9.63513861 17.2419208,9.3660297 17.3556832,9.1480099 C17.4697426,8.9299901 17.7385545,8.8450396 17.9571683,8.95969307 L20.0120198,10.0343465 C20.2300396,10.1484059 20.314099,10.4175149 20.2003366,10.6355347 C20.1207327,10.7876139 19.9656832,10.8746436 19.8049819,10.8746436" id="Fill-20" fill="#231F20"></path>
            <path d="M11.0150495,22.231396 L13.069901,23.3060495" id="Fill-22" fill="#11B8A4"></path>
            <path d="M13.0694472,23.7516535 C12.9999505,23.7516535 12.9292574,23.7353168 12.8633168,23.7008614 L10.8084653,22.6262079 C10.5904455,22.5121485 10.5063861,22.2430396 10.6201485,22.0250198 C10.7342079,21.807 11.0030198,21.7220495 11.2216337,21.836703 L13.2764851,22.9113564 C13.494505,23.0254158 13.5785644,23.2945248 13.464802,23.5125446 C13.385198,23.6646238 13.2301485,23.7516535 13.0694472,23.7516535" id="Fill-24" fill="#231F20"></path>
        </g>
    </g>
</svg>