<?xml version="1.0" encoding="UTF-8"?>
<svg width="45px" height="45px" viewBox="0 0 45 45" version="1.1" xmlns="http://www.w3.org/2000/svg" xmlns:xlink="http://www.w3.org/1999/xlink">
    <!-- Generator: Sketch 56.3 (81716) - https://sketch.com -->
    <title>engineering</title>
    <desc>Created with Sketch.</desc>
    <g id="engineering" stroke="none" stroke-width="1" fill="none" fill-rule="evenodd">
        <g id="Group-11" transform="translate(1.000000, 7.000000)">
            <path d="M38.4691126,28.6569653 L4.28863895,28.6569653 C2.62250211,28.6569653 1.27184947,27.3067653 1.27184947,25.6406284 L1.27184947,24.2044284 L41.4859021,24.2044284 L41.4859021,25.6406284 C41.4859021,27.3067653 40.1352495,28.6569653 38.4691126,28.6569653" id="Fill-1" fill="#8F50F4"></path>
            <path d="M41.0876316,25.5747705 L41.0876316,24.7188442 L3.32050526,24.7211074 C3.31688421,24.7211074 3.31371579,24.7188442 3.31009474,24.7188442 L1.71185263,24.7188442 L1.71185263,25.5747705 C1.71185263,26.9910547 2.8638,28.1430021 4.28008421,28.1430021 L38.5198526,28.1430021 C39.9356842,28.1430021 41.0876316,26.9910547 41.0876316,25.5747705 Z M4.17643158,2.56796 L4.17643158,23.0069916 L38.6298421,23.0069916 L38.6298421,2.56796 C38.6298421,2.09631789 38.2464632,1.71203368 37.7739158,1.71203368 L5.03235789,1.71203368 C4.55981053,1.71203368 4.17643158,2.09631789 4.17643158,2.56796 Z M41.9435579,23.0069916 C42.4170105,23.0069916 42.7994842,23.3903705 42.7994842,23.8629179 L42.7994842,25.5747705 C42.7994842,27.9347916 40.8794211,29.8548547 38.5198526,29.8548547 L4.28008421,29.8548547 C1.92006316,29.8548547 8.70414851e-13,27.9347916 8.70414851e-13,25.5747705 L8.70414851e-13,23.8629179 C8.70414851e-13,23.3903705 0.382926316,23.0069916 0.855926316,23.0069916 L2.46412632,23.0069916 L2.46412632,2.56796 C2.46412632,1.15212842 3.61607368,0.000181052632 5.03235789,0.000181052632 L37.7739158,0.000181052632 C39.1902,0.000181052632 40.3421474,1.15212842 40.3421474,2.56796 L40.3421474,23.0069916 L41.9435579,23.0069916 Z M16.0246968,8.12369579 C16.3591916,8.45773789 16.3591916,8.99999053 16.0246968,9.33403263 L12.9984021,12.3603274 L16.0246968,15.3870747 C16.3591916,15.7211168 16.3591916,16.2629168 16.0246968,16.5974116 C15.8576758,16.7648853 15.6386021,16.8481695 15.4195284,16.8481695 C15.2004547,16.8481695 14.9813811,16.7648853 14.81436,16.5974116 L11.1828968,12.9654958 C10.8484021,12.6314537 10.8484021,12.0896537 11.1828968,11.7551589 L14.81436,8.12369579 C15.1488547,7.78920105 15.6902021,7.78920105 16.0246968,8.12369579 Z M26.4036295,8.12369579 L30.0355453,11.7551589 C30.1962295,11.9158432 30.2867558,12.1335589 30.2867558,12.3603274 C30.2867558,12.5875484 30.1962295,12.8052642 30.0355453,12.9654958 L26.4036295,16.5974116 C26.2366084,16.7648853 26.0175347,16.8481695 25.7984611,16.8481695 C25.5793874,16.8481695 25.3603137,16.7648853 25.1932926,16.5974116 C24.8587979,16.2629168 24.8587979,15.7211168 25.1932926,15.3870747 L28.22004,12.3603274 L25.1932926,9.33403263 C24.8587979,8.99999053 24.8587979,8.45773789 25.1932926,8.12369579 C25.5277874,7.78920105 26.0691347,7.78920105 26.4036295,8.12369579 Z M23.74374,3.96161263 C24.1868663,4.12682316 24.4118242,4.61973895 24.2461611,5.06286526 L18.57514,20.2568021 C18.4474979,20.6012547 18.1206979,20.8135389 17.7735295,20.8135389 C17.6739505,20.8135389 17.5730137,20.7963389 17.47434,20.7592232 C17.0312137,20.5940126 16.8062558,20.1010968 16.9719189,19.6584232 L22.64294,4.46403368 C22.8076979,4.02136 23.3015189,3.79640211 23.74374,3.96161263 Z" id="Combined-Shape" fill="#4A4A4A"></path>
        </g>
    </g>
</svg>