<?xml version="1.0" encoding="UTF-8"?>
<svg width="24px" height="24px" viewBox="0 0 24 24" version="1.1" xmlns="http://www.w3.org/2000/svg" xmlns:xlink="http://www.w3.org/1999/xlink">
    <!-- Generator: Sketch 56.3 (81716) - https://sketch.com -->
    <title>facebook</title>
    <desc>Created with Sketch.</desc>
    <g id="facebook" stroke="none" stroke-width="1" fill="none" fill-rule="evenodd">
        <path d="M19.5,0 C20.7395895,0 21.7994748,0.440099766 22.6796875,1.3203125 C23.5599002,2.20052523 24,3.26041047 24,4.5 L24,19.5 C24,20.7395895 23.5599002,21.7994748 22.6796875,22.6796875 C21.7994748,23.5599002 20.7395895,24 19.5,24 L16.5625,24 L16.5625,14.703125 L19.671875,14.703125 L20.140625,11.078125 L16.5625,11.078125 L16.5625,8.765625 C16.5625,8.18228875 16.6848946,7.74479312 16.9296875,7.453125 C17.1744804,7.16145687 17.6510381,7.015625 18.359375,7.015625 L20.265625,7 L20.265625,3.765625 C19.6093717,3.67187453 18.6822977,3.625 17.484375,3.625 C16.0677012,3.625 14.9349001,4.0416625 14.0859375,4.875 C13.2369749,5.7083375 12.8125,6.88540906 12.8125,8.40625 L12.8125,11.078125 L9.6875,11.078125 L9.6875,14.703125 L12.8125,14.703125 L12.8125,24 L4.5,24 C3.26041047,24 2.20052523,23.5599002 1.3203125,22.6796875 C0.440099766,21.7994748 0,20.7395895 0,19.5 L0,4.5 C0,3.26041047 0.440099766,2.20052523 1.3203125,1.3203125 C2.20052523,0.440099766 3.26041047,0 4.5,0 L19.5,0 Z" id="" fill="#580CF3" fill-rule="nonzero"></path>
    </g>
</svg>