<?xml version="1.0" encoding="UTF-8"?>
<svg width="62px" height="60px" viewBox="0 0 62 60" version="1.1" xmlns="http://www.w3.org/2000/svg" xmlns:xlink="http://www.w3.org/1999/xlink">
    <!-- Generator: Sketch 56.3 (81716) - https://sketch.com -->
    <title>fast-delivery</title>
    <desc>Created with Sketch.</desc>
    <defs>
        <polygon id="path-1" points="0 0.300831683 7.17368317 0.300831683 7.17368317 1.51152475 0 1.51152475"></polygon>
    </defs>
    <g id="fast-delivery" stroke="none" stroke-width="1" fill="none" fill-rule="evenodd">
        <g id="Group-26" transform="translate(1.000000, 11.000000)">
            <path d="M28.2581584,26.9669703 C29.5900396,28.5881584 29.0351881,31.2447921 27.0201386,32.8992475 C25.004495,34.553703 22.2914257,34.5810297 20.9601386,32.9592475 C19.6282574,31.3374653 20.1831089,28.6814257 22.1981584,27.0269703 C24.2132079,25.3719208 26.9268713,25.3451881 28.2581584,26.9669703 Z M51.495802,26.9669703 C52.8270891,28.5881584 52.2728317,31.2447921 50.2577822,32.8992475 C48.2421386,34.553703 45.5290693,34.5810297 44.1971881,32.9592475 C42.865901,31.3374653 43.4201584,28.6814257 45.435802,27.0269703 C47.4508515,25.3719208 50.1639208,25.3451881 51.495802,26.9669703 Z M45.0847129,17.4962376 L46.7272871,11.3875248 L53.175802,11.3875248 L55.8193663,17.4962376 L45.0847129,17.4962376 Z" id="Combined-Shape" fill="#00BBA6"></path>
            <path d="M54.9020792,9.81089109 L58.1676238,17.9821782 L55.5644554,28.8267327 L52.9464356,28.8267327 C52.8923762,27.9267327 52.5840594,27.0974257 52.0262376,26.4207921 C51.2355446,25.4619802 50.0569307,24.9338614 48.7066337,24.9338614 C46.3422772,24.9338614 44.0391089,26.6055446 43.1349505,28.8267327 L40.919703,28.8267327 L45.3989109,9.78950495 C45.4345545,9.7960396 45.4678218,9.81089109 45.5058416,9.81089109 L54.9020792,9.81089109 Z M51.6769307,29.8479208 C51.2551485,32.0168317 49.1509901,33.7823762 46.9868317,33.7823762 C46.0042574,33.7823762 45.1571287,33.410495 44.600495,32.7356436 C44.0260396,32.0388119 43.8187129,31.0954455 44.0165347,30.0784158 C44.4383168,27.9089109 46.5418812,26.1439604 48.7066337,26.1439604 C49.6886139,26.1439604 50.5357426,26.5158416 51.0923762,27.1906931 C51.6668317,27.8875248 51.8741584,28.8308911 51.6769307,29.8479208 L51.6769307,29.8479208 Z M28.439703,29.8479208 C28.0179208,32.0168317 25.9137624,33.7823762 23.7490099,33.7823762 C22.7664356,33.7823762 21.9193069,33.410495 21.3632673,32.7356436 C20.7888119,32.0388119 20.5814851,31.0954455 20.7793069,30.0784158 C21.200495,27.9089109 23.3046535,26.1439604 25.4694059,26.1439604 C26.4513861,26.1439604 27.2985149,26.5158416 27.8551485,27.1906931 C28.4290099,27.8875248 28.6369307,28.8308911 28.439703,29.8479208 L28.439703,29.8479208 Z M19.4575248,7.26831683 C19.7806931,7.34970297 20.110396,7.15188119 20.1911881,6.82752475 L21.5913861,1.21009901 L46.1741584,1.21009901 L39.719703,28.6407921 C39.7048515,28.7037624 39.7090099,28.7655446 39.7137624,28.8267327 L29.7086139,28.8267327 C29.6545545,27.9267327 29.3462376,27.0974257 28.7884158,26.4207921 C27.9983168,25.4619802 26.819703,24.9338614 25.4694059,24.9338614 C23.100297,24.9338614 20.7917822,26.6126733 19.8917822,28.840396 C19.8686139,28.8374257 19.8484158,28.8267327 19.8252475,28.8267327 L14.7068317,28.8267327 L17.1971287,18.8382178 C17.2779208,18.5138614 17.080099,18.1859406 16.7563366,18.1051485 C16.4319802,18.0213861 16.1028713,18.2209901 16.0226733,18.5459406 L13.3452475,29.2859406 C13.300099,29.4665347 13.340495,29.6578218 13.4551485,29.8045545 C13.569802,29.9512871 13.7462376,30.0374257 13.9321782,30.0374257 L19.5638614,30.0374257 C19.3577228,31.3437624 19.6577228,32.569901 20.4288119,33.5049505 C21.219505,34.4643564 22.3987129,34.9924752 23.7490099,34.9924752 C26.4638614,34.9924752 29.1008911,32.7879208 29.6272277,30.0784158 C29.630198,30.0647525 29.6307921,30.0510891 29.6331683,30.0374257 L42.8010891,30.0374257 C42.5955446,31.3437624 42.8955446,32.569901 43.6666337,33.5049505 C44.4573267,34.4643564 45.6365347,34.9924752 46.9868317,34.9924752 C49.7016832,34.9924752 52.3381188,32.7879208 52.8650495,30.0784158 C52.8674257,30.0647525 52.8680198,30.0510891 52.8709901,30.0374257 L56.0414851,30.0374257 C56.3212871,30.0374257 56.5642574,29.8455446 56.629604,29.5734653 L59.3890099,18.0778218 C59.4187129,17.9554455 59.4092079,17.8277228 59.3628713,17.7118812 L55.8739604,8.9809901 C55.7818812,8.75108911 55.5591089,8.60019802 55.3119802,8.60019802 L45.6787129,8.60019802 L47.5274257,0.743762376 C47.569604,0.563762376 47.5274257,0.374257426 47.4121782,0.229306931 C47.2975248,0.0843564356 47.1228713,-7.10542736e-15 46.9381188,-7.10542736e-15 L21.1185149,-7.10542736e-15 C20.8410891,-7.10542736e-15 20.5987129,0.188910891 20.5315842,0.458613861 L19.0167327,6.53465347 C18.9359406,6.8590099 19.1331683,7.18752475 19.4575248,7.26831683 L19.4575248,7.26831683 Z" id="Fill-7" fill="#231F20"></path>
            <path d="M9.00029703,9.46972277 L26.8993069,9.46972277 C27.2337624,9.46972277 27.5046535,9.19883168 27.5046535,8.86437624 C27.5046535,8.53051485 27.2337624,8.25962376 26.8993069,8.25962376 L9.00029703,8.25962376 C8.66643564,8.25962376 8.3949505,8.53051485 8.3949505,8.86437624 C8.3949505,9.19883168 8.66643564,9.46972277 9.00029703,9.46972277" id="Fill-9" fill="#231F20"></path>
            <path d="M24.0191287,12.9958218 C24.0191287,12.6619604 23.7482376,12.3904752 23.4137822,12.3904752 L10.3563564,12.3904752 C10.021901,12.3904752 9.7510099,12.6619604 9.7510099,12.9958218 C9.7510099,13.3296832 10.021901,13.6011683 10.3563564,13.6011683 L23.4137822,13.6011683 C23.7482376,13.6011683 24.0191287,13.3296832 24.0191287,12.9958218" id="Fill-11" fill="#231F20"></path>
            <path d="M11.7124158,17.1272673 L19.9288515,17.1272673 C20.2633069,17.1272673 20.534198,16.8557822 20.534198,16.5219208 C20.534198,16.1874653 20.2633069,15.9165743 19.9288515,15.9165743 L11.7124158,15.9165743 C11.3785545,15.9165743 11.1070693,16.1874653 11.1070693,16.5219208 C11.1070693,16.8557822 11.3785545,17.1272673 11.7124158,17.1272673" id="Fill-13" fill="#231F20"></path>
            <g id="Group-17" transform="translate(0.000000, 7.958495)">
                <mask id="mask-2" fill="white">
                    <use xlink:href="#path-1"></use>
                </mask>
                <g id="Clip-16"></g>
                <path d="M7.17368317,0.906178218 C7.17368317,0.572316832 6.90219802,0.300831683 6.56833663,0.300831683 L0.605168317,0.300831683 C0.270712871,0.300831683 -0.000178217822,0.572316832 -0.000178217822,0.906178218 C-0.000178217822,1.2400396 0.270712871,1.51152475 0.605168317,1.51152475 L6.56833663,1.51152475 C6.90219802,1.51152475 7.17368317,1.2400396 7.17368317,0.906178218" id="Fill-15" fill="#231F20" mask="url(#mask-2)"></path>
            </g>
            <path d="M3.68013861,12.9958218 C3.68013861,13.3296832 3.9510297,13.6011683 4.28548515,13.6011683 L7.92528713,13.6011683 C8.25914851,13.6011683 8.5300396,13.3296832 8.5300396,12.9958218 C8.5300396,12.6619604 8.25914851,12.3904752 7.92528713,12.3904752 L4.28548515,12.3904752 C3.9510297,12.3904752 3.68013861,12.6619604 3.68013861,12.9958218" id="Fill-18" fill="#231F20"></path>
            <path d="M9.86263366,15.9168119 L7.96580198,15.9168119 C7.63134653,15.9168119 7.36045545,16.187703 7.36045545,16.5221584 C7.36045545,16.8560198 7.63134653,17.127505 7.96580198,17.127505 L9.86263366,17.127505 C10.196495,17.127505 10.4679802,16.8560198 10.4679802,16.5221584 C10.4679802,16.187703 10.196495,15.9168119 9.86263366,15.9168119" id="Fill-20" fill="#231F20"></path>
            <path d="M47.0403564,11.9927525 L53.1247129,11.9927525 L55.1783762,16.9941386 L45.775604,16.9941386 L47.0403564,11.9927525 Z M44.5209505,17.9707723 C44.635604,18.1186931 44.8114455,18.2048317 44.9979802,18.2048317 L56.0807525,18.2048317 C56.2827327,18.2048317 56.4710495,18.1038416 56.5833267,17.9363168 C56.695604,17.7687921 56.7175842,17.5561188 56.6409505,17.3695842 L54.0900594,11.157505 C53.9967921,10.9305743 53.775802,10.7826535 53.5304554,10.7826535 L46.5692673,10.7826535 C46.2918416,10.7826535 46.0500594,10.9703762 45.9817426,11.2388911 L44.4116436,17.4509703 C44.365901,17.6321584 44.406297,17.8240396 44.5209505,17.9707723 L44.5209505,17.9707723 Z" id="Fill-22" fill="#231F20"></path>
            <path d="M58.9056238,35.8792871 L1.51235644,35.8792871 C1.18443564,35.8792871 0.91829703,36.1454257 0.91829703,36.4733465 C0.91829703,36.8012673 1.18443564,37.0674059 1.51235644,37.0674059 L58.9056238,37.0674059 C59.2335446,37.0674059 59.4996832,36.8012673 59.4996832,36.4733465 C59.4996832,36.1454257 59.2335446,35.8792871 58.9056238,35.8792871" id="Fill-24" fill="#231F20"></path>
        </g>
    </g>
</svg>