<?xml version="1.0" encoding="UTF-8"?>
<svg width="62px" height="60px" viewBox="0 0 62 60" version="1.1" xmlns="http://www.w3.org/2000/svg" xmlns:xlink="http://www.w3.org/1999/xlink">
    <!-- Generator: Sketch 56.3 (81716) - https://sketch.com -->
    <title>favourable-pace</title>
    <desc>Created with Sketch.</desc>
    <defs>
        <polygon id="path-1" points="0.00012 0.468 60 0.468 60 47.4 0.00012 47.4"></polygon>
    </defs>
    <g id="favourable-pace" stroke="none" stroke-width="1" fill="none" fill-rule="evenodd">
        <g id="Group-18" transform="translate(1.000000, 6.000000)">
            <path d="M5.38404,47.30274 L2.50704,41.42994 C2.50704,41.42994 14.08704,33.77574 29.99964,33.67614 C45.91284,33.57654 57.14844,40.89354 57.14844,40.89354 L54.38244,47.30274 L5.38404,47.30274 Z" id="Fill-1" fill="#8F50F4"></path>
            <g id="Group-5" transform="translate(0.000000, 0.132180)">
                <mask id="mask-2" fill="white">
                    <use xlink:href="#path-1"></use>
                </mask>
                <g id="Clip-4"></g>
                <path d="M54.13992,46.2234 L5.61312,46.2234 C4.66032,44.7096 3.84912,43.053 3.18732,41.3112 C3.23832,41.2932 3.28992,41.277 3.33612,41.244 C3.43872,41.1702 13.72692,33.8886 29.83152,34.1082 C45.94992,34.323 56.57832,41.1888 56.68392,41.2584 C56.69652,41.2668 56.71092,41.2698 56.72412,41.277 C56.02812,42.996 55.16712,44.6526 54.13992,46.2234 M26.32632,33.0066 C26.21712,32.6472 26.15592,32.274 26.15592,31.8936 C26.15592,29.7738 27.88032,28.0494 30.00012,28.0494 C32.11932,28.0494 33.84372,29.7738 33.84372,31.8936 C33.84372,32.2836 33.78612,32.6682 33.67152,33.0366 C33.66372,33.0612 33.66792,33.0858 33.66372,33.111 C32.42712,33.0138 31.15692,32.949 29.84712,32.9316 C28.63992,32.916 27.46812,32.946 26.32632,33.0066 M30.00012,1.6446 C45.89292,1.6446 58.82352,14.5746 58.82352,30.468 C58.82352,33.8052 58.25052,37.0746 57.14832,40.161 C55.84212,39.3564 47.42832,34.452 34.83432,33.2136 C34.95132,32.7846 35.02032,32.3424 35.02032,31.8936 C35.02032,29.1252 32.76792,26.8734 30.00012,26.8734 C27.23172,26.8734 24.97932,29.1252 24.97932,31.8936 C24.97932,32.298 25.04292,32.6934 25.13772,33.0816 C12.31452,34.056 3.95232,39.4074 2.78772,40.1934 C1.74432,37.0842 1.17672,33.747 1.17672,30.468 C1.17672,14.5746 14.10672,1.6446 30.00012,1.6446 M30.00012,0.468 C13.45812,0.468 0.00012,13.9254 0.00012,30.468 C0.00012,36.435 1.70352,42.3522 4.79712,47.1312 L4.97052,47.4 L54.76992,47.4 L54.94512,47.139 C58.25232,42.2004 60.00012,36.4362 60.00012,30.468 C60.00012,13.9254 46.54212,0.468 30.00012,0.468" id="Fill-3" fill="#404042" mask="url(#mask-2)"></path>
            </g>
            <path d="M29.99988,10.12032 C30.32508,10.12032 30.58788,9.85692 30.58788,9.53232 L30.58788,3.54132 C30.58788,3.21612 30.32508,2.95272 29.99988,2.95272 C29.67528,2.95272 29.41188,3.21612 29.41188,3.54132 L29.41188,9.53232 C29.41188,9.85692 29.67528,10.12032 29.99988,10.12032" id="Fill-6" fill="#404042"></path>
            <path d="M14.87388,16.12062 C14.98848,16.23582 15.13968,16.29342 15.29028,16.29342 C15.44028,16.29342 15.59088,16.23582 15.70608,16.12122 C15.93588,15.89202 15.93648,15.51942 15.70668,15.28902 L11.47488,11.04882 C11.24568,10.81842 10.87308,10.81842 10.64268,11.04762 C10.41288,11.27742 10.41228,11.65002 10.64208,11.87982 L14.87388,16.12062 Z" id="Fill-8" fill="#404042"></path>
            <path d="M3.32244,31.06758 L3.33504,31.06758 L9.32424,30.94458 C9.64944,30.93738 9.90744,30.66858 9.90084,30.34398 C9.89364,30.01938 9.63204,29.76978 9.30024,29.76798 L3.31044,29.89098 C2.98584,29.89818 2.72784,30.16698 2.73444,30.49158 C2.74104,30.81258 3.00324,31.06758 3.32244,31.06758" id="Fill-10" fill="#404042"></path>
            <path d="M44.80914,16.29318 C44.95974,16.29318 45.11094,16.23558 45.22554,16.12038 L49.45734,11.88018 C49.68654,11.64978 49.68654,11.27718 49.45674,11.04798 C49.22634,10.81818 48.85374,10.81878 48.62454,11.04858 L44.39274,15.28938 C44.16354,15.51918 44.16414,15.89178 44.39394,16.12098 C44.50854,16.23618 44.65914,16.29318 44.80914,16.29318" id="Fill-12" fill="#404042"></path>
            <path d="M50.77518,30.94452 L56.76498,31.06752 L56.77698,31.06752 C57.09678,31.06752 57.35898,30.81252 57.36498,30.49152 C57.37218,30.16692 57.11358,29.89812 56.78898,29.89092 L50.79978,29.76792 C50.48538,29.77092 50.20578,30.01932 50.19918,30.34452 C50.19258,30.66912 50.44998,30.93732 50.77518,30.94452" id="Fill-14" fill="#404042"></path>
            <path d="M30.83718,26.2245 C30.90318,26.2485 30.97098,26.2599 31.03758,26.2599 C31.27818,26.2599 31.50378,26.1111 31.59078,25.8723 L36.93978,11.1159 C37.05078,10.8111 36.89298,10.4733 36.58758,10.3629 C36.28398,10.2519 35.94498,10.4097 35.83398,10.7151 L30.48498,25.4709 C30.37398,25.7763 30.53178,26.1135 30.83718,26.2245" id="Fill-16" fill="#404042"></path>
        </g>
    </g>
</svg>