<?xml version="1.0" encoding="UTF-8"?>
<svg width="32px" height="32px" viewBox="0 0 32 32" version="1.1" xmlns="http://www.w3.org/2000/svg" xmlns:xlink="http://www.w3.org/1999/xlink">
    <!-- Generator: Sketch 56.3 (81716) - https://sketch.com -->
    <title>frontend</title>
    <desc>Created with Sketch.</desc>
    <defs>
        <polygon id="path-1" points="0 0 29.9999406 0 29.9999406 30 0 30"></polygon>
    </defs>
    <g id="frontend" stroke="none" stroke-width="1" fill="none" fill-rule="evenodd">
        <g id="Group-26-Copy-3" transform="translate(1.000000, 1.000000)">
            <path d="M29.5167327,4.39306931 L0.483267327,4.39306931 L0.483267327,2.52029703 C0.483267327,1.37435644 1.41207921,0.445544554 2.5580198,0.445544554 L27.4419802,0.445544554 C28.5879208,0.445544554 29.5167327,1.37435644 29.5167327,2.52029703 L29.5167327,4.39306931 Z" id="Fill-1" fill="#11B8A4"></path>
            <path d="M26.965901,29.5544554 L3.03421782,29.5544554 C1.60461386,29.5544554 0.44560396,28.3957426 0.44560396,26.9658416 L0.44560396,3.03415842 C0.44560396,1.60425743 1.60461386,0.445544554 3.03421782,0.445544554 L26.965901,0.445544554 C28.395505,0.445544554 29.5545149,1.60425743 29.5545149,3.03415842 L29.5545149,26.9658416 C29.5545149,28.3957426 28.395505,29.5544554 26.965901,29.5544554" id="Fill-3" fill="#FEFEFE"></path>
            <g id="Group-7">
                <mask id="mask-2" fill="white">
                    <use xlink:href="#path-1"></use>
                </mask>
                <g id="Clip-6"></g>
                <path d="M3.03409901,0.891089109 C1.85221782,0.891089109 0.891029703,1.85227723 0.891029703,3.03415842 L0.891029703,26.9658416 C0.891029703,28.1477228 1.85221782,29.1089109 3.03409901,29.1089109 L26.9657822,29.1089109 C28.1476634,29.1089109 29.1088515,28.1477228 29.1088515,26.9658416 L29.1088515,3.03415842 C29.1088515,1.85227723 28.1476634,0.891089109 26.9657822,0.891089109 L3.03409901,0.891089109 Z M26.9657822,30 L3.03409901,30 C1.36122772,30 -5.94059406e-05,28.6390099 -5.94059406e-05,26.9658416 L-5.94059406e-05,3.03415842 C-5.94059406e-05,1.3609901 1.36122772,0 3.03409901,0 L26.9657822,0 C28.6389505,0 29.9999406,1.3609901 29.9999406,3.03415842 L29.9999406,26.9658416 C29.9999406,28.6390099 28.6389505,30 26.9657822,30 L26.9657822,30 Z" id="Fill-5" fill="#231F20" mask="url(#mask-2)"></path>
            </g>
            <path d="M4.86908911,7.59659406 C4.12087129,7.59659406 3.51225743,8.20550495 3.51225743,8.95342574 L3.51225743,13.1973861 C3.51225743,13.945604 4.12087129,14.5545149 4.86908911,14.5545149 L10.6442376,14.5545149 C11.3924554,14.5545149 12.0013663,13.945604 12.0013663,13.1973861 L12.0013663,8.95342574 C12.0013663,8.20550495 11.3924554,7.59659406 10.6442376,7.59659406 L4.86908911,7.59659406 Z M10.6442376,15.445604 L4.86908911,15.445604 C3.62958416,15.445604 2.62116832,14.4368911 2.62116832,13.1973861 L2.62116832,8.95342574 C2.62116832,7.71421782 3.62958416,6.70550495 4.86908911,6.70550495 L10.6442376,6.70550495 C11.8840396,6.70550495 12.8924554,7.71421782 12.8924554,8.95342574 L12.8924554,13.1973861 C12.8924554,14.4368911 11.8840396,15.445604 10.6442376,15.445604 L10.6442376,15.445604 Z" id="Fill-8" fill="#231F20"></path>
            <path d="M4.86908911,19.2245644 C4.12087129,19.2245644 3.51225743,19.8334752 3.51225743,20.581396 C3.51225743,21.3296139 4.12087129,21.9385248 4.86908911,21.9385248 L25.3371089,21.9385248 C26.0850297,21.9385248 26.6939406,21.3296139 26.6939406,20.581396 C26.6939406,19.8334752 26.0850297,19.2245644 25.3371089,19.2245644 L4.86908911,19.2245644 Z M25.3371089,22.8296139 L4.86908911,22.8296139 C3.62958416,22.8296139 2.62116832,21.820901 2.62116832,20.581396 C2.62116832,19.3421881 3.62958416,18.3334752 4.86908911,18.3334752 L25.3371089,18.3334752 C26.5766139,18.3334752 27.5850297,19.3421881 27.5850297,20.581396 C27.5850297,21.820901 26.5766139,22.8296139 25.3371089,22.8296139 L25.3371089,22.8296139 Z" id="Fill-10" fill="#231F20"></path>
            <path d="M29.441198,4.83861386 L0.541990099,4.83861386 C0.295752475,4.83861386 0.0964455446,4.6390099 0.0964455446,4.39306931 C0.0964455446,4.14712871 0.295752475,3.94752475 0.541990099,3.94752475 L29.441198,3.94752475 C29.6874356,3.94752475 29.8867426,4.14712871 29.8867426,4.39306931 C29.8867426,4.6390099 29.6874356,4.83861386 29.441198,4.83861386" id="Fill-12" fill="#231F20"></path>
            <path d="M26.8939604,7.59659406 L15.0962376,7.59659406 C14.850297,7.59659406 14.6506931,7.3969901 14.6506931,7.1510495 C14.6506931,6.90510891 14.850297,6.70550495 15.0962376,6.70550495 L26.8939604,6.70550495 C27.140198,6.70550495 27.339505,6.90510891 27.339505,7.1510495 C27.339505,7.3969901 27.140198,7.59659406 26.8939604,7.59659406" id="Fill-14" fill="#231F20"></path>
            <path d="M26.8939604,11.5209208 L15.0962376,11.5209208 C14.850297,11.5209208 14.6506931,11.3213168 14.6506931,11.0753762 C14.6506931,10.8294356 14.850297,10.6298317 15.0962376,10.6298317 L26.8939604,10.6298317 C27.140198,10.6298317 27.339505,10.8294356 27.339505,11.0753762 C27.339505,11.3213168 27.140198,11.5209208 26.8939604,11.5209208" id="Fill-16" fill="#231F20"></path>
            <path d="M26.8939604,15.4455446 L15.0962376,15.4455446 C14.850297,15.4455446 14.6506931,15.2459406 14.6506931,15 C14.6506931,14.7540594 14.850297,14.5544554 15.0962376,14.5544554 L26.8939604,14.5544554 C27.140198,14.5544554 27.339505,14.7540594 27.339505,15 C27.339505,15.2459406 27.140198,15.4455446 26.8939604,15.4455446" id="Fill-18" fill="#231F20"></path>
            <polygon id="Fill-20" fill="#11B8A4" points="21.6782376 19.5178218 22.2657624 26.7763366 24.0027921 25.7970297 25.1751683 27.8762376 26.932396 26.8719802 25.7656634 24.8028713 27.4887327 23.8312871"></polygon>
            <path d="M24.0028515,25.3513663 C24.0429505,25.3513663 24.0833465,25.3570099 24.1225545,25.367703 C24.2363168,25.3994851 24.3328515,25.4752277 24.3910693,25.578297 L25.3433465,27.2669109 L26.3268119,26.7049307 L25.377505,25.0216634 C25.3195842,24.9188911 25.3047327,24.7971089 25.3365149,24.6830495 C25.368297,24.5692871 25.4440396,24.4727525 25.5468119,24.4148317 L26.6722574,23.7803762 L22.2016634,20.4613663 L22.6537426,26.0464158 L23.7839406,25.4086931 C23.8513663,25.3706733 23.9268119,25.3513663 24.0028515,25.3513663 M25.1752277,28.3216634 C25.1354257,28.3216634 25.0959208,28.3163168 25.0567129,28.3056238 C24.9426535,28.2741386 24.8455248,28.198396 24.7873069,28.0947327 L23.8335446,26.4037426 L22.4847327,27.1644356 C22.3522574,27.2389901 22.1909703,27.2413663 22.0567129,27.1697822 C21.9227525,27.0987921 21.8339406,26.9639406 21.8217624,26.8124554 L21.2342376,19.5536436 C21.2199802,19.3795842 21.3090891,19.2129505 21.4620594,19.128297 C21.6147327,19.0436436 21.8033465,19.0558218 21.9438416,19.1600792 L27.7540396,23.4738416 C27.8752277,23.5635446 27.9426535,23.7087921 27.9331485,23.8593861 C27.9239406,24.0096832 27.8389901,24.1454257 27.7074059,24.2193861 L26.3728515,24.9723564 L27.3206733,26.6532475 C27.4409703,26.8665149 27.3664158,27.1371089 27.1534455,27.2588911 L25.3962178,28.2631485 C25.328495,28.3017624 25.2521584,28.3216634 25.1752277,28.3216634" id="Fill-22" fill="#231F20"></path>
            <path d="M29.1482079,3.94782178 L0.851673267,3.94782178 L0.851673267,3.11524752 C0.851673267,1.88673267 1.84791089,0.890792079 3.07642574,0.890792079 L26.9237525,0.890792079 C28.1522673,0.890792079 29.1482079,1.88673267 29.1482079,3.11524752 L29.1482079,3.94782178 Z" id="Fill-24" fill="#11B8A4"></path>
        </g>
    </g>
</svg>