<?xml version="1.0" encoding="UTF-8"?>
<svg width="24px" height="24px" viewBox="0 0 24 24" version="1.1" xmlns="http://www.w3.org/2000/svg" xmlns:xlink="http://www.w3.org/1999/xlink">
    <!-- Generator: Sketch 56.3 (81716) - https://sketch.com -->
    <title>glassdoor</title>
    <desc>Created with Sketch.</desc>
    <g id="glassdoor" stroke="none" stroke-width="1" fill="none" fill-rule="evenodd">
        <path d="M17.4347,6.5518 L8.6397,6.5518 L8.6397,15.6198 L6.5657,15.6198 L6.5657,6.3388 C6.5657,5.3228 7.3887,4.4998 8.4047,4.4998 L15.5957,4.4998 C16.6117,4.4998 17.4347,5.3228 17.4347,6.3388 L17.4347,6.5518 Z M17.4347,17.6608 C17.4347,18.6768 16.6117,19.4998 15.5957,19.4998 L8.4047,19.4998 C7.3887,19.4998 6.5657,18.6768 6.5657,17.6608 L6.5657,17.4478 L15.3607,17.4478 L15.3607,8.3798 L17.4347,8.3798 L17.4347,17.6608 Z M22.6797,1.3208 C21.7987,0.4408 20.7397,-0.0002 19.4997,-0.0002 L4.4997,-0.0002 C3.2597,-0.0002 2.2007,0.4408 1.3207,1.3208 C0.4397,2.1998 -0.0003,3.2608 -0.0003,4.4998 L-0.0003,19.4998 C-0.0003,20.7398 0.4397,21.7998 1.3207,22.6798 C2.2007,23.5598 3.2597,23.9998 4.4997,23.9998 L19.4997,23.9998 C20.7397,23.9998 21.7987,23.5598 22.6797,22.6798 C23.5597,21.7998 23.9997,20.7398 23.9997,19.4998 L23.9997,4.4998 C23.9997,3.2608 23.5597,2.1998 22.6797,1.3208 L22.6797,1.3208 Z" id="Fill-1" fill="#00BBA6"></path>
    </g>
</svg>