<?xml version="1.0" encoding="UTF-8"?>
<svg width="24px" height="24px" viewBox="0 0 24 24" version="1.1" xmlns="http://www.w3.org/2000/svg" xmlns:xlink="http://www.w3.org/1999/xlink">
    <!-- Generator: Sketch 56.3 (81716) - https://sketch.com -->
    <title>insta</title>
    <desc>Created with Sketch.</desc>
    <g id="insta" stroke="none" stroke-width="1" fill="none" fill-rule="evenodd">
        <path d="M21.28125,20.28125 L21.28125,10.15625 L19.171875,10.15625 C19.3802094,10.8125033 19.484375,11.4947881 19.484375,12.203125 C19.484375,13.5156316 19.151045,14.726557 18.484375,15.8359375 C17.817705,16.945318 16.9114641,17.8229134 15.765625,18.46875 C14.6197859,19.1145866 13.3697984,19.4375 12.015625,19.4375 C9.96353141,19.4375 8.20834062,18.7317779 6.75,17.3203125 C5.29165938,15.9088471 4.5625,14.203135 4.5625,12.203125 C4.5625,11.4947881 4.66666562,10.8125033 4.875,10.15625 L2.671875,10.15625 L2.671875,20.28125 C2.671875,20.5520847 2.76301992,20.7786449 2.9453125,20.9609375 C3.12760508,21.1432301 3.35416531,21.234375 3.625,21.234375 L20.328125,21.234375 C20.588543,21.234375 20.8124991,21.1432301 21,20.9609375 C21.1875009,20.7786449 21.28125,20.5520847 21.28125,20.28125 Z M15.421875,15.265625 C16.3697964,14.3489537 16.84375,13.2447981 16.84375,11.953125 C16.84375,10.6614519 16.3724005,9.55990039 15.4296875,8.6484375 C14.4869745,7.73697461 13.348965,7.28125 12.015625,7.28125 C10.6927017,7.28125 9.55990055,7.73697461 8.6171875,8.6484375 C7.67447445,9.55990039 7.203125,10.6614519 7.203125,11.953125 C7.203125,13.2447981 7.67447445,14.3463496 8.6171875,15.2578125 C9.55990055,16.1692754 10.6927017,16.625 12.015625,16.625 C13.348965,16.625 14.4843703,16.1718795 15.421875,15.265625 Z M21.28125,6.328125 L21.28125,3.75 C21.28125,3.45833187 21.1770844,3.20573023 20.96875,2.9921875 C20.7604156,2.77864477 20.5052098,2.671875 20.203125,2.671875 L17.484375,2.671875 C17.1822902,2.671875 16.9270844,2.77864477 16.71875,2.9921875 C16.5104156,3.20573023 16.40625,3.45833187 16.40625,3.75 L16.40625,6.328125 C16.40625,6.63020984 16.5104156,6.88541562 16.71875,7.09375 C16.9270844,7.30208438 17.1822902,7.40625 17.484375,7.40625 L20.203125,7.40625 C20.5052098,7.40625 20.7604156,7.30208438 20.96875,7.09375 C21.1770844,6.88541562 21.28125,6.63020984 21.28125,6.328125 Z M24,3.078125 L24,20.921875 C24,21.7656292 23.6979197,22.4895803 23.09375,23.09375 C22.4895803,23.6979197 21.7656292,24 20.921875,24 L3.078125,24 C2.23437078,24 1.51041969,23.6979197 0.90625,23.09375 C0.302080312,22.4895803 0,21.7656292 0,20.921875 L0,3.078125 C0,2.23437078 0.302080312,1.51041969 0.90625,0.90625 C1.51041969,0.302080312 2.23437078,0 3.078125,0 L20.921875,0 C21.7656292,0 22.4895803,0.302080312 23.09375,0.90625 C23.6979197,1.51041969 24,2.23437078 24,3.078125 Z" id="" fill="#580CF3" fill-rule="nonzero"></path>
    </g>
</svg>