<?xml version="1.0" encoding="UTF-8"?>
<svg width="45px" height="45px" viewBox="0 0 45 45" version="1.1" xmlns="http://www.w3.org/2000/svg" xmlns:xlink="http://www.w3.org/1999/xlink">
    <!-- Generator: Sketch 56.3 (81716) - https://sketch.com -->
    <title>job </title>
    <desc>Created with Sketch.</desc>
    <g id="job-" stroke="none" stroke-width="1" fill="none" fill-rule="evenodd">
        <g id="Group-32" transform="translate(1.000000, 1.000000)">
            <path d="M41.5203222,21.5541626 C41.5203222,32.6412131 32.5328879,41.6290818 21.4458374,41.6290818 C10.3587869,41.6290818 1.37091818,32.6412131 1.37091818,21.5541626 C1.37091818,10.4675465 10.3587869,1.47967778 21.4458374,1.47967778 C32.5328879,1.47967778 41.5203222,10.4675465 41.5203222,21.5541626" id="Fill-1" fill="#FEFEFE"></path>
            <polygon id="Fill-3" fill="#00BBA6" points="10.0323343 19.1339141 21.3917182 22.5834697 32.9817384 19.3519545 32.9817384 15.6261566 32.1834152 15.0671566 11.3757586 15.0671566 10.0323343 15.6261566"></polygon>
            <path d="M21.4457071,41.304497 C24.1859798,41.304497 26.8207071,40.7932747 29.2769192,39.7851636 C31.5811111,38.8426384 33.7437071,37.4088707 35.531899,35.6389212 C37.3001111,33.8524667 38.7338788,31.6894364 39.676404,29.3861131 L39.676404,29.3856788 C40.6845152,26.9290323 41.1961717,24.2943051 41.1961717,21.5540323 C41.1961717,18.8146283 40.6845152,16.1794667 39.676404,13.7228202 C38.7338788,11.4186283 37.3001111,9.25603232 35.530596,7.46827475 C33.7437071,5.69962828 31.5806768,4.26629495 29.2773535,3.3237697 C26.8202727,2.31522424 24.1851111,1.80400202 21.4457071,1.80400202 C18.7058687,1.80400202 16.0711414,2.31522424 13.6144949,3.3237697 C11.3107374,4.26629495 9.14770707,5.69962828 7.35951515,7.46957778 C5.59130303,9.25603232 4.15753535,11.4186283 3.2150101,13.7223859 C2.20646465,16.179901 1.69524242,18.8146283 1.69524242,21.5540323 C1.69524242,24.2943051 2.20646465,26.9290323 3.21457576,29.3856788 C4.15753535,31.6894364 5.59130303,33.8524667 7.36081818,35.6402242 C9.14770707,37.4088707 11.310303,38.8426384 13.6140606,39.7851636 C16.0707071,40.7932747 18.705,41.304497 21.4457071,41.304497 Z M41.2574141,13.0951939 C42.3415354,15.7494667 42.8914141,18.5952848 42.8914141,21.5540323 C42.8914141,24.5132141 42.3415354,27.3594667 41.2574141,30.0137394 C40.1989192,32.5794061 38.670899,34.8705677 36.7163535,36.8251131 C34.7618081,38.7800929 32.4702121,40.3076788 29.9058485,41.3661737 C27.2507071,42.4502949 24.4044545,42.9997394 21.4457071,42.9997394 C18.4869596,42.9997394 15.6407071,42.4502949 12.9864343,41.3661737 C10.421202,40.3076788 8.12960606,38.7800929 6.17462626,36.8251131 C4.22051515,34.8705677 2.69249495,32.5794061 1.634,30.0141737 C0.549878788,27.3594667 0,24.5132141 0,21.5540323 C0,18.5957192 0.549878788,15.7494667 1.634,13.0951939 C2.69249495,10.5295273 4.22008081,8.23793131 6.17462626,6.28338586 C8.12960606,4.3288404 10.421202,2.80125455 12.9855657,1.7427596 C15.6411414,0.65820404 18.4873939,0.108325253 21.4457071,0.108325253 C24.4040202,0.108325253 27.2502727,0.65820404 29.9049798,1.7427596 C32.4702121,2.80125455 34.7618081,4.3288404 36.7163535,6.28338586 C38.6713333,8.23793131 40.1989192,10.5295273 41.2569798,13.0947596 L41.2574141,13.0951939 Z M10.8859495,15.6705899 C10.7734545,15.7283576 10.6670404,15.788297 10.5962424,15.8738626 C10.4885253,15.9820141 10.4233737,16.0714889 10.3864545,16.1574889 L10.3369394,16.3077717 C10.3273838,16.3364384 10.3273838,16.3742263 10.3273838,16.4185293 L10.3273838,18.8347818 L20.1696061,21.5355293 L22.631899,21.5355293 L32.4558788,18.8530242 L32.4558788,16.4185293 C32.4558788,16.3742263 32.4558788,16.3364384 32.4463232,16.3073374 L32.3937677,16.1505394 C32.3525051,16.061499 32.2890909,15.976802 32.1970101,15.8842869 C32.1066667,15.7943778 32.0167576,15.7331354 31.906,15.6849232 C31.8530101,15.6527818 31.8291212,15.6436606 31.8069697,15.6436606 L31.7561515,15.6358424 C31.7270505,15.6258525 31.6892626,15.6258525 31.6453939,15.6258525 L11.1196263,15.6258525 C11.094,15.6258525 11.0549091,15.6258525 11.0423131,15.6293273 L11.008,15.6462667 L10.9762929,15.6436606 C10.9385051,15.6440949 10.9150505,15.6510444 10.8859495,15.6705899 Z M10.3273838,20.5960444 L10.3273838,28.8168626 C10.3273838,28.8450949 10.3273838,28.8802768 10.3369394,28.9089434 L10.390798,29.0713879 C10.4294545,29.1595596 10.5041616,29.2685798 10.5858182,29.349802 C10.6770303,29.4249434 10.7730202,29.505297 10.8772626,29.5500343 C10.9302525,29.5817414 10.9537071,29.5908626 10.9745556,29.5908626 L11.0071313,29.591297 L11.049697,29.6086707 C11.0675051,29.6177919 11.0961717,29.6269131 11.1196263,29.6269131 L31.6453939,29.6269131 C31.6692828,29.6269131 31.6975152,29.6177919 31.7153232,29.6086707 L31.790899,29.5908626 C31.8273838,29.5908626 31.8495354,29.5839131 31.8790707,29.5643677 C31.9928687,29.5126808 32.0823434,29.4475293 32.179202,29.3502364 C32.2717172,29.2577212 32.3342626,29.1652061 32.3968081,29.0561859 L32.4463232,28.9089434 C32.4558788,28.8802768 32.4558788,28.8450949 32.4558788,28.8168626 L32.4558788,20.6138525 L24.1464545,22.8724384 L24.1477576,22.8802566 C24.1599192,22.955398 24.1590505,23.1313071 24.1547071,23.557398 C24.1525354,23.8010646 24.1499293,24.1081455 24.1499293,24.4738626 C24.1499293,24.7314283 24.0595859,24.9516404 23.8815051,25.1284182 C23.4519394,25.5549434 22.616697,25.5905596 22.2861616,25.5918626 L20.3285758,25.5918626 C19.692697,25.6031556 19.2218687,25.4745899 18.9417172,25.2031253 C18.749303,25.0159232 18.6515758,24.7705192 18.6515758,24.4738626 C18.6515758,24.3648424 18.6155253,22.9102263 18.6155253,22.9102263 C18.6155253,22.8932869 18.6168283,22.8772162 18.619,22.8615798 L10.3273838,20.5960444 Z M20.311202,23.716802 C20.311202,23.7511152 20.3224949,23.7845596 20.3429091,23.8114889 C20.3915556,23.8744687 20.4362929,23.8961859 20.4849394,23.8961859 L22.3074444,23.8961859 C22.3530505,23.8961859 22.3960505,23.8766404 22.4255859,23.8414586 L22.4538182,23.8084485 C22.4772727,23.7806505 22.490303,23.7450343 22.490303,23.7085495 L22.490303,23.3949535 C22.490303,23.3528222 22.473798,23.3137313 22.4433939,23.284196 C22.4047374,23.2464081 22.3665152,23.2307717 22.3256869,23.2307717 L20.4658283,23.2307717 C20.4232626,23.2307717 20.382,23.2490141 20.3524646,23.2807212 C20.3259697,23.3093879 20.311202,23.3467414 20.311202,23.3858323 L20.311202,23.716802 Z M17.5539899,13.9306101 L25.2292727,13.9306101 L25.2292727,13.3994081 C25.2231919,13.3842061 25.2192828,13.3703071 25.2162424,13.3572768 C25.1927879,13.3229636 25.1697677,13.2903879 25.1515253,13.2721455 C25.1263333,13.2469535 25.0915859,13.223499 25.055101,13.1996101 L25.0138384,13.1930949 L17.7516162,13.1930949 C17.7433636,13.1930949 17.746404,13.1909232 17.7507475,13.1887515 C17.7420606,13.1922263 17.7307677,13.1965697 17.7177374,13.2004788 C17.7060101,13.2100343 17.6938485,13.2195899 17.6816869,13.2295798 C17.6643131,13.2439131 17.6465051,13.2573778 17.6321717,13.2721455 C17.6182727,13.2860444 17.6043737,13.3038525 17.5900404,13.3216606 C17.5826566,13.3307818 17.5752727,13.339903 17.5678889,13.3485899 C17.5652828,13.3646606 17.5609394,13.3816 17.5539899,13.3994081 L17.5539899,13.9306101 Z M33.9191818,15.4460343 C33.9960606,15.5837212 34.054697,15.7409535 34.0933535,15.9146909 C34.1311414,16.0645394 34.1511212,16.2404485 34.1511212,16.4185293 L34.1511212,28.8168626 C34.1511212,28.9806101 34.1302727,29.1547818 34.0924848,29.306802 C34.0607778,29.4492667 34.0121313,29.5960747 33.9400303,29.7637313 C33.8062525,30.0508323 33.6142727,30.322297 33.3827677,30.553802 C33.1095657,30.8044182 32.867202,30.9729434 32.6157172,31.0906505 C32.4593535,31.1688323 32.3038586,31.2074889 32.1535758,31.2452768 L32.105798,31.2561354 C31.9542121,31.2900141 31.8113131,31.3221556 31.6453939,31.3221556 L11.1196263,31.3221556 C10.9541414,31.3221556 10.8108081,31.2900141 10.6592222,31.2561354 L10.6157879,31.2461455 C10.4611616,31.2074889 10.306101,31.1688323 10.1458283,31.0884788 C9.87088889,30.9516606 9.60724242,30.7601152 9.38268687,30.5359939 C9.16551515,30.3188222 8.97527273,30.0464889 8.84583838,29.7685091 C8.78633333,29.6121455 8.72943434,29.4614283 8.69121212,29.306802 C8.6529899,29.1547818 8.63214141,28.9806101 8.63214141,28.8168626 L8.63214141,16.4185293 C8.63214141,16.2404485 8.65255556,16.0645394 8.69121212,15.9103475 C8.72813131,15.7613677 8.78329293,15.6128222 8.83932323,15.4638424 C8.96311111,15.1967212 9.13207071,14.9547919 9.37747475,14.6863677 C9.58856566,14.4752768 9.83787879,14.3002364 10.1453939,14.1460444 C10.3282525,14.0552667 10.4820101,14.0044485 10.6309899,13.9862061 C10.7969091,13.9484182 10.952404,13.9306101 11.1196263,13.9306101 L15.8943636,13.9306101 L15.8943636,13.3907212 C15.8943636,13.2708424 15.9091313,13.1657313 15.9260707,13.0493273 L15.9321515,13.007196 C15.9551717,12.8695091 15.9999091,12.7439838 16.0620202,12.6401758 C16.1497576,12.4442869 16.2861414,12.2470949 16.4468485,12.0859535 C16.6140707,11.9187313 16.8038788,11.7814788 17.0114949,11.6776707 C17.1383232,11.6333677 17.2425657,11.5986202 17.3298687,11.5638727 L17.3906768,11.5521455 C17.5227172,11.531297 17.6291313,11.5160949 17.7516162,11.5160949 L25.0138384,11.5160949 C25.1358889,11.5160949 25.2427374,11.531297 25.3617475,11.5486707 L25.4355859,11.5638727 C25.5224545,11.5986202 25.6271313,11.6333677 25.7318081,11.6685495 C25.9602727,11.7810444 26.1505152,11.918297 26.3186061,12.0859535 C26.4932121,12.2609939 26.6387172,12.4555798 26.7273232,12.6327919 L26.8441616,12.9789636 C26.8693535,13.1166505 26.888899,13.251297 26.888899,13.3907212 L26.888899,13.9306101 L31.6453939,13.9306101 C31.8121818,13.9306101 31.9676768,13.9484182 32.1492323,13.9883778 C32.2834444,14.0044485 32.4376364,14.0552667 32.6191919,14.1456101 C32.8771919,14.2563677 33.1443131,14.442701 33.3827677,14.6811556 C33.6125354,14.8918121 33.8045152,15.1645798 33.9191818,15.4460343 Z" id="Combined-Shape" fill="#4A4A4A"></path>
        </g>
    </g>
</svg>