<?xml version="1.0" encoding="UTF-8"?>
<svg width="120px" height="26px" viewBox="0 0 120 26" version="1.1" xmlns="http://www.w3.org/2000/svg" xmlns:xlink="http://www.w3.org/1999/xlink">
    <!-- Generator: Sketch 56.3 (81716) - https://sketch.com -->
    <title>Artboard</title>
    <desc>Created with Sketch.</desc>
    <g id="Artboard" stroke="none" stroke-width="1" fill="none" fill-rule="evenodd">
        <path d="M1.30969009,19.0652553 C1.22366464,19.0652553 1.1505441,19.0351469 1.09032628,18.9749291 C1.03010846,18.9147113 1,18.8415907 1,18.7555653 L1,1.30969009 C1,1.22366464 1.03010846,1.1505441 1.09032628,1.09032628 C1.1505441,1.03010846 1.22366464,1 1.30969009,1 L4.32916849,1 C4.41519394,1 4.48831448,1.03010846 4.5485323,1.09032628 C4.60875012,1.1505441 4.63885858,1.22366464 4.63885858,1.30969009 L4.63885858,7.81318202 C4.63885858,7.88200238 4.66036462,7.92071326 4.70337735,7.9293158 C4.74639007,7.93791835 4.77649853,7.90780989 4.79370362,7.83898952 L8.12287211,1.23226757 C8.20889756,1.07742175 8.3293314,1 8.48417722,1 L11.6843082,1 C11.8047438,1 11.8864668,1.03010846 11.9294795,1.09032628 C11.9724922,1.1505441 11.968191,1.24086947 11.9165757,1.36130511 L8.0970646,8.79386731 C8.07985951,8.86268767 8.07125709,8.91430217 8.07125709,8.94871235 L12.1230358,18.7039502 C12.1402409,18.7383604 12.1488433,18.7899749 12.1488433,18.8587953 C12.1488433,18.996436 12.0628191,19.0652553 11.8907682,19.0652553 L8.66482977,19.0652553 C8.47557377,19.0652553 8.35513994,18.9878336 8.30352466,18.8329878 L5.61954387,12.0714208 C5.60233878,12.0198055 5.57653153,11.9982995 5.54212134,12.006902 C5.50771116,12.0155046 5.4733015,12.0370106 5.43889131,12.0714208 L4.69047359,13.4134112 C4.65606341,13.4822315 4.63885858,13.533846 4.63885858,13.5682562 L4.63885858,18.7555653 C4.63885858,18.8415907 4.60875012,18.9147113 4.5485323,18.9749291 C4.48831448,19.0351469 4.41519394,19.0652553 4.32916849,19.0652553 L1.30969009,19.0652553 Z M18.2394151,19.2717154 C16.708162,19.2717154 15.5081249,18.8846067 14.6392678,18.1103776 C13.7704107,17.3361485 13.3359887,16.2780512 13.3359887,14.9360541 L13.3359887,9.92939764 C13.3359887,8.62181072 13.7747119,7.5723159 14.6521715,6.78088171 C15.5296312,5.98944752 16.7253671,5.59373636 18.2394151,5.59373636 C19.7706682,5.59373636 20.9750065,5.98944752 21.8524662,6.78088171 C22.7299258,7.5723159 23.1686491,8.62181072 23.1686491,9.92939764 L23.1686491,14.9360541 C23.1686491,16.2780512 22.734227,17.3361485 21.8653699,18.1103776 C20.9965128,18.8846067 19.7878656,19.2717154 18.2394151,19.2717154 Z M18.2394151,16.1231995 C18.6179271,16.1231995 18.9276141,15.9855608 19.1684854,15.7102794 C19.4093567,15.4349979 19.5297905,15.0822988 19.5297905,14.6521715 L19.5297905,10.1874727 C19.5297905,9.75734544 19.4093567,9.40464636 19.1684854,9.12936491 C18.9276141,8.85408345 18.6179271,8.71644478 18.2394151,8.71644478 C17.8609031,8.71644478 17.5555173,8.85408345 17.3232486,9.12936491 C17.0909799,9.40464636 16.9748472,9.75734544 16.9748472,10.1874727 L16.9748472,14.6521715 C16.9748472,15.0822988 17.0909799,15.4349979 17.3232486,15.7102794 C17.5555173,15.9855608 17.8609031,16.1231995 18.2394151,16.1231995 Z M30.8076713,1.30969009 C30.8076713,1.22366464 30.8377798,1.1505441 30.8979976,1.09032628 C30.9582154,1.03010846 31.031336,1 31.1173614,1 L34.1368398,1 C34.2228653,1 34.2959858,1.03010846 34.3562036,1.09032628 C34.4164214,1.1505441 34.4465299,1.22366464 34.4465299,1.30969009 L34.4465299,18.7555653 C34.4465299,18.8415907 34.4164214,18.9147113 34.3562036,18.9749291 C34.2959858,19.0351469 34.2228653,19.0652553 34.1368398,19.0652553 L31.1173614,19.0652553 C31.031336,19.0652553 30.9582154,19.0351469 30.8979976,18.9749291 C30.8377798,18.9147113 30.8076713,18.8415907 30.8076713,18.7555653 L30.8076713,18.3426451 C30.8076713,18.2910299 30.7904665,18.2609214 30.7560563,18.2523189 C30.7216461,18.2437163 30.6872365,18.2566199 30.6528263,18.2910301 C30.0678532,18.9448236 29.2936357,19.2717154 28.3301506,19.2717154 C27.1429993,19.2717154 26.248348,18.8889079 25.6461698,18.1232813 C25.0439916,17.3576548 24.742907,16.2952563 24.742907,14.9360541 L24.742907,9.92939764 C24.742907,8.53578526 25.0482928,7.46478441 25.6590735,6.71636294 C26.2698543,5.96794148 27.1602044,5.59373636 28.3301506,5.59373636 C28.7086626,5.59373636 29.1043738,5.6668569 29.5172959,5.81310017 C29.9302181,5.95934345 30.3087245,6.22171715 30.6528263,6.60022916 C30.6872365,6.63463934 30.7216461,6.64754296 30.7560563,6.63894042 C30.7904665,6.63033787 30.8076713,6.60022942 30.8076713,6.54861414 L30.8076713,1.30969009 Z M29.5947185,16.149007 C29.9044101,16.149007 30.171085,16.045778 30.3947512,15.8393169 C30.6184174,15.6328558 30.756056,15.3575785 30.8076713,15.0134766 L30.8076713,9.85197512 C30.756056,9.5078733 30.6184174,9.23259597 30.3947512,9.02613488 C30.171085,8.81967378 29.9044101,8.71644478 29.5947185,8.71644478 C29.2334116,8.71644478 28.9409294,8.85408345 28.7172632,9.12936491 C28.493597,9.40464636 28.3817656,9.75734544 28.3817656,10.1874727 L28.3817656,14.677979 C28.3817656,15.1081063 28.493597,15.4608054 28.7172632,15.7360869 C28.9409294,16.0113683 29.2334116,16.149007 29.5947185,16.149007 Z M45.9824858,13.2585661 C45.9824858,13.3445916 45.9523774,13.4177121 45.8921595,13.4779299 C45.8319417,13.5381478 45.7588212,13.5682562 45.6727957,13.5682562 L39.995144,13.5682562 C39.9091186,13.5682562 39.8661065,13.6112683 39.8661065,13.6972938 L39.8661065,14.6521715 C39.8661065,15.0822988 39.9822391,15.4392991 40.2145079,15.7231831 C40.4467766,16.0070671 40.74356,16.149007 41.1048669,16.149007 C41.4317636,16.149007 41.6984385,16.0414768 41.9048996,15.8264131 C42.1113607,15.6113495 42.2489994,15.3403734 42.3178197,15.0134766 C42.369435,14.8414257 42.4812664,14.7554016 42.6533173,14.7554016 L45.6211807,14.9102466 C45.7072062,14.9102466 45.7803267,14.9403551 45.8405445,15.0005729 C45.9007623,15.0607907 45.9222684,15.1425137 45.9050633,15.2457442 C45.7846277,16.5705362 45.3243984,17.5727178 44.5243616,18.2523189 C43.7243249,18.93192 42.5845047,19.2717154 41.1048669,19.2717154 C39.5736138,19.2717154 38.3778736,18.8889079 37.5176233,18.1232813 C36.6573688,17.3576548 36.2272479,16.2952563 36.2272479,14.9360541 L36.2272479,9.92939764 C36.2272479,8.62181072 36.66167,7.5723159 37.5305271,6.78088171 C38.3993842,5.98944752 39.5908189,5.59373636 41.1048669,5.59373636 C42.6189149,5.59373636 43.8103496,5.98944752 44.6792067,6.78088171 C45.5480638,7.5723159 45.9824858,8.62181072 45.9824858,9.92939764 L45.9824858,13.2585661 Z M41.1048669,8.71644478 C40.74356,8.71644478 40.4467766,8.85408345 40.2145079,9.12936491 C39.9822391,9.40464636 39.8661065,9.75734544 39.8661065,10.1874727 L39.8661065,11.1939655 C39.8661065,11.279991 39.9091186,11.3230031 39.995144,11.3230031 L42.2145897,11.3230031 C42.3006152,11.3230031 42.3436272,11.279991 42.3436272,11.1939655 L42.3436272,10.1874727 C42.3436272,9.75734544 42.2274946,9.40464636 41.9952259,9.12936491 C41.7629572,8.85408345 41.4661738,8.71644478 41.1048669,8.71644478 Z M53.2860105,19.0652553 C53.199985,19.0652553 53.1268645,19.0351469 53.0666467,18.9749291 C53.0064288,18.9147113 52.9763204,18.8415907 52.9763204,18.7555653 L52.9763204,1.30969009 C52.9763204,1.22366464 53.0064288,1.1505441 53.0666467,1.09032628 C53.1268645,1.03010846 53.199985,1 53.2860105,1 L56.3054889,1 C56.3915143,1 56.4646349,1.03010846 56.5248527,1.09032628 C56.5850705,1.1505441 56.615179,1.22366464 56.615179,1.30969009 L56.615179,15.8135094 C56.615179,15.8995348 56.658191,15.9425469 56.7442165,15.9425469 L62.1637931,15.9425469 C62.2498186,15.9425469 62.3229391,15.9726554 62.3831569,16.0328732 C62.4433747,16.093091 62.4734832,16.1662116 62.4734832,16.252237 L62.4734832,18.7555653 C62.4734832,18.8415907 62.4433747,18.9147113 62.3831569,18.9749291 C62.3229391,19.0351469 62.2498186,19.0652553 62.1637931,19.0652553 L53.2860105,19.0652553 Z M68.5382475,19.2717154 C67.0069944,19.2717154 65.8069573,18.8846067 64.9381002,18.1103776 C64.0692431,17.3361485 63.634821,16.2780512 63.634821,14.9360541 L63.634821,9.92939764 C63.634821,8.62181072 64.0735443,7.5723159 64.9510039,6.78088171 C65.8284636,5.98944752 67.0241995,5.59373636 68.5382475,5.59373636 C70.0695006,5.59373636 71.2738389,5.98944752 72.1512986,6.78088171 C73.0287582,7.5723159 73.4674814,8.62181072 73.4674814,9.92939764 L73.4674814,14.9360541 C73.4674814,16.2780512 73.0330594,17.3361485 72.1642023,18.1103776 C71.2953452,18.8846067 70.0866979,19.2717154 68.5382475,19.2717154 Z M68.5382475,16.1231995 C68.9167595,16.1231995 69.2264465,15.9855608 69.4673178,15.7102794 C69.708189,15.4349979 69.8286229,15.0822988 69.8286229,14.6521715 L69.8286229,10.1874727 C69.8286229,9.75734544 69.708189,9.40464636 69.4673178,9.12936491 C69.2264465,8.85408345 68.9167595,8.71644478 68.5382475,8.71644478 C68.1597355,8.71644478 67.8543497,8.85408345 67.622081,9.12936491 C67.3898122,9.40464636 67.2736796,9.75734544 67.2736796,10.1874727 L67.2736796,14.6521715 C67.2736796,15.0822988 67.3898122,15.4349979 67.622081,15.7102794 C67.8543497,15.9855608 68.1597355,16.1231995 68.5382475,16.1231995 Z M81.1581187,6.10988651 C81.1581187,6.02386106 81.1882272,5.95074052 81.248445,5.8905227 C81.3086628,5.83030488 81.3817834,5.80019642 81.4678088,5.80019642 L84.4872872,5.80019642 C84.5733127,5.80019642 84.6464332,5.83030488 84.706651,5.8905227 C84.7668688,5.95074052 84.7969773,6.02386106 84.7969773,6.10988651 L84.7969773,18.7555653 C84.7969773,18.8415907 84.7668688,18.9147113 84.706651,18.9749291 C84.6464332,19.0351469 84.5733127,19.0652553 84.4872872,19.0652553 L81.4678088,19.0652553 C81.3817834,19.0652553 81.3086628,19.0351469 81.248445,18.9749291 C81.1882272,18.9147113 81.1581187,18.8415907 81.1581187,18.7555653 L81.1581187,18.3168376 C81.1581187,18.2652224 81.1409139,18.2308127 81.1065037,18.2136076 C81.0720935,18.1964025 81.0376839,18.2136073 81.0032737,18.2652226 C80.7451973,18.6265295 80.4226067,18.8803008 80.0354921,19.0265441 C79.6483776,19.1727874 79.1967507,19.2459079 78.680598,19.2459079 C77.6482925,19.2459079 76.7966533,18.9319197 76.1256547,18.3039339 C75.4546562,17.675948 75.1191619,16.7081762 75.1191619,15.4005893 L75.1191619,6.10988651 C75.1191619,6.02386106 75.1492704,5.95074052 75.2094882,5.8905227 C75.269706,5.83030488 75.3428266,5.80019642 75.428852,5.80019642 L78.4483304,5.80019642 C78.5343559,5.80019642 78.6074764,5.83030488 78.6676942,5.8905227 C78.7279121,5.95074052 78.7580205,6.02386106 78.7580205,6.10988651 L78.7580205,14.6005565 C78.7580205,15.0995042 78.8569483,15.4823117 79.0548069,15.7489906 C79.2526654,16.0156695 79.5408464,16.149007 79.9193584,16.149007 C80.2978704,16.149007 80.5989549,16.0027659 80.8226211,15.7102794 C81.0462873,15.4177928 81.1581187,15.0220816 81.1581187,14.523134 L81.1581187,6.10988651 Z M92.9263422,5.59373636 C94.0962884,5.59373636 94.9737349,5.9808451 95.558708,6.7550742 C96.1436811,7.5293033 96.4361632,8.61320779 96.4361632,10.0068202 L96.4361632,18.7555653 C96.4361632,18.8415907 96.4060548,18.9147113 96.345837,18.9749291 C96.2856192,19.0351469 96.2124986,19.0652553 96.1264732,19.0652553 L93.1069948,19.0652553 C93.0209693,19.0652553 92.9478488,19.0351469 92.8876309,18.9749291 C92.8274131,18.9147113 92.7973047,18.8415907 92.7973047,18.7555653 L92.7973047,10.2907027 C92.7973047,9.79175511 92.6983769,9.40464636 92.5005183,9.12936491 C92.3026598,8.85408345 92.0144788,8.71644478 91.6359668,8.71644478 C91.2402497,8.71644478 90.9348639,8.85838466 90.7198003,9.14226866 C90.5047367,9.42615266 90.3972065,9.82616503 90.3972065,10.3423178 L90.3972065,18.7555653 C90.3972065,18.8415907 90.367098,18.9147113 90.3068802,18.9749291 C90.2466624,19.0351469 90.1735418,19.0652553 90.0875164,19.0652553 L87.068038,19.0652553 C86.9820125,19.0652553 86.908892,19.0351469 86.8486742,18.9749291 C86.7884563,18.9147113 86.7583479,18.8415907 86.7583479,18.7555653 L86.7583479,6.10988651 C86.7583479,6.02386106 86.7884563,5.95074052 86.8486742,5.8905227 C86.908892,5.83030488 86.9820125,5.80019642 87.068038,5.80019642 L90.0875164,5.80019642 C90.1735418,5.80019642 90.2466624,5.83030488 90.3068802,5.8905227 C90.367098,5.95074052 90.3972065,6.02386106 90.3972065,6.10988651 L90.3972065,6.60022916 C90.3972065,6.65184443 90.4187125,6.67765168 90.4617252,6.67765168 C90.504738,6.67765168 90.5606537,6.64324201 90.629474,6.57442165 C91.1800369,5.92062819 91.945652,5.59373636 92.9263422,5.59373636 Z M104.204223,6.10988651 C104.204223,6.02386106 104.234332,5.95074052 104.294549,5.8905227 C104.354767,5.83030488 104.427888,5.80019642 104.513913,5.80019642 L107.533392,5.80019642 C107.619417,5.80019642 107.692538,5.83030488 107.752755,5.8905227 C107.812973,5.95074052 107.843082,6.02386106 107.843082,6.10988651 L107.843082,18.4458752 C107.843082,20.3556403 107.391455,21.8266535 106.488187,22.858959 C105.58492,23.8912644 103.963365,24.4074094 101.623472,24.4074094 C101.158935,24.4074094 100.797633,24.398807 100.539557,24.3816019 C100.333096,24.3643968 100.229867,24.2525654 100.229867,24.0461043 L100.229867,21.5169686 C100.229867,21.2933024 100.341698,21.1986758 100.565364,21.233086 C101.580465,21.2674962 102.350381,21.1685684 102.875136,20.9362997 C103.399892,20.7040309 103.752591,20.3556331 103.933244,19.8910956 C104.113898,19.4265581 104.204223,18.8157866 104.204223,18.0587625 C104.204223,18.0071473 104.187018,17.98134 104.152608,17.98134 C104.118198,17.98134 104.083788,18.0071473 104.049378,18.0587625 C103.739686,18.4716847 103.365481,18.7598657 102.926751,18.9233141 C102.488022,19.0867624 102.062202,19.1684854 101.64928,19.1684854 C100.462129,19.1684854 99.5760796,18.7856778 98.9911065,18.0200513 C98.4061334,17.2544247 98.1136512,16.1920263 98.1136512,14.8328241 L98.1136512,9.92939764 C98.1136512,8.53578526 98.4104346,7.46478441 99.0040103,6.71636294 C99.5975859,5.96794148 100.479334,5.59373636 101.64928,5.59373636 C102.69879,5.59373636 103.498815,5.9808451 104.049378,6.7550742 C104.083788,6.80668948 104.118198,6.82389431 104.152608,6.80668922 C104.187018,6.78948413 104.204223,6.75507446 104.204223,6.70345919 L104.204223,6.10988651 Z M102.965463,16.0199694 C103.32677,16.0199694 103.623553,15.8823308 103.855822,15.6070493 C104.08809,15.3317679 104.204223,14.9790688 104.204223,14.5489415 L104.204223,10.1874727 C104.204223,9.75734544 104.08809,9.40464636 103.855822,9.12936491 C103.623553,8.85408345 103.32677,8.71644478 102.965463,8.71644478 C102.604156,8.71644478 102.311674,8.85408345 102.088007,9.12936491 C101.864341,9.40464636 101.75251,9.75734544 101.75251,10.1874727 L101.75251,14.5489415 C101.75251,14.9790688 101.864341,15.3317679 102.088007,15.6070493 C102.311674,15.8823308 102.604156,16.0199694 102.965463,16.0199694 Z M119.25,13.2585661 C119.25,13.3445916 119.219892,13.4177121 119.159674,13.4779299 C119.099456,13.5381478 119.026335,13.5682562 118.94031,13.5682562 L113.262658,13.5682562 C113.176633,13.5682562 113.133621,13.6112683 113.133621,13.6972938 L113.133621,14.6521715 C113.133621,15.0822988 113.249753,15.4392991 113.482022,15.7231831 C113.714291,16.0070671 114.011074,16.149007 114.372381,16.149007 C114.699278,16.149007 114.965953,16.0414768 115.172414,15.8264131 C115.378875,15.6113495 115.516514,15.3403734 115.585334,15.0134766 C115.636949,14.8414257 115.748781,14.7554016 115.920832,14.7554016 L118.888695,14.9102466 C118.97472,14.9102466 119.047841,14.9403551 119.108059,15.0005729 C119.168277,15.0607907 119.189783,15.1425137 119.172577,15.2457442 C119.052142,16.5705362 118.591913,17.5727178 117.791876,18.2523189 C116.991839,18.93192 115.852019,19.2717154 114.372381,19.2717154 C112.841128,19.2717154 111.645388,18.8889079 110.785137,18.1232813 C109.924883,17.3576548 109.494762,16.2952563 109.494762,14.9360541 L109.494762,9.92939764 C109.494762,8.62181072 109.929184,7.5723159 110.798041,6.78088171 C111.666898,5.98944752 112.858333,5.59373636 114.372381,5.59373636 C115.886429,5.59373636 117.077864,5.98944752 117.946721,6.78088171 C118.815578,7.5723159 119.25,8.62181072 119.25,9.92939764 L119.25,13.2585661 Z M114.372381,8.71644478 C114.011074,8.71644478 113.714291,8.85408345 113.482022,9.12936491 C113.249753,9.40464636 113.133621,9.75734544 113.133621,10.1874727 L113.133621,11.1939655 C113.133621,11.279991 113.176633,11.3230031 113.262658,11.3230031 L115.482104,11.3230031 C115.568129,11.3230031 115.611141,11.279991 115.611141,11.1939655 L115.611141,10.1874727 C115.611141,9.75734544 115.495009,9.40464636 115.26274,9.12936491 C115.030471,8.85408345 114.733688,8.71644478 114.372381,8.71644478 Z" id="KodeLounge" fill="#4A4A4A" fill-rule="nonzero"></path>
    </g>
</svg>