<?xml version="1.0" encoding="UTF-8"?>
<svg width="91px" height="65px" viewBox="0 0 91 65" version="1.1" xmlns="http://www.w3.org/2000/svg" xmlns:xlink="http://www.w3.org/1999/xlink">
    <!-- Generator: Sketch 56.3 (81716) - https://sketch.com -->
    <title>kodelounge-logo-top</title>
    <desc>Created with Sketch.</desc>
    <g id="kodelounge-logo-top" stroke="none" stroke-width="1" fill="none" fill-rule="evenodd">
        <rect fill="#FFFFFF" x="0" y="0" width="91" height="65"></rect>
        <path d="M0,0 L91,0 L91,65 L0,65 L0,0 Z M75.1833333,49.4 L75.1833333,29.0740823 L68.3824105,29.0740823 L68.3824105,32.6976314 L71.5524884,32.6976314 L71.5524884,45.7749174 L68.3824105,45.7749174 L68.3824105,49.4 L75.1833333,49.4 Z M64.983485,27.7307776 L64.983485,16.9 L25.6047903,16.9 L25.6047903,27.7307776 L29.2356352,27.7307776 L29.2356352,20.5250826 L61.35264,20.5250826 L61.35264,27.7307776 L64.983485,27.7307776 Z M64.983485,40.4431018 L64.983485,33.3830848 L61.35264,33.3830848 L61.35264,36.8180193 L29.2356352,36.8180193 L29.2356352,33.3830848 L25.6047903,33.3830848 L25.6047903,40.4431018 L43.410368,40.4431018 L43.410368,42.665075 L47.0427489,42.665075 L47.0427489,40.4431018 L64.983485,40.4431018 Z M26.6169421,49.3325281 L63.9728691,49.3325281 L63.9728691,45.7074455 L26.6169421,45.7074455 L26.6169421,49.3325281 Z M22.4009228,32.6976314 L22.4009228,29.0740823 L15.6,29.0740823 L15.6,49.4 L22.4009228,49.4 L22.4009228,45.7749174 L19.230845,45.7749174 L19.230845,32.6976314 L22.4009228,32.6976314 Z" id="Combined-Shape" fill="#00BBAE"></path>
    </g>
</svg>