<?xml version="1.0" encoding="UTF-8"?>
<svg width="56px" height="40px" viewBox="0 0 56 40" version="1.1" xmlns="http://www.w3.org/2000/svg" xmlns:xlink="http://www.w3.org/1999/xlink">
    <!-- Generator: Sketch 56.3 (81716) - https://sketch.com -->
    <title>kodelounge-logo-bottom</title>
    <desc>Created with Sketch.</desc>
    <g id="kodelounge-logo-bottom" stroke="none" stroke-width="1" fill="none" fill-rule="evenodd">
        <rect fill="#FFFFFF" x="0" y="0" width="56" height="40"></rect>
        <path d="M0,0 L56,0 L56,40 L0,40 L0,0 Z M46.2666667,30.4 L46.2666667,17.8917429 L42.0814834,17.8917429 L42.0814834,20.1216193 L44.0323005,20.1216193 L44.0323005,28.16918 L42.0814834,28.16918 L42.0814834,30.4 L46.2666667,30.4 Z M39.9898369,17.0650939 L39.9898369,10.4 L15.756794,10.4 L15.756794,17.0650939 L17.9911601,17.0650939 L17.9911601,12.63082 L37.7554708,12.63082 L37.7554708,17.0650939 L39.9898369,17.0650939 Z M39.9898369,24.8880627 L39.9898369,20.5434368 L37.7554708,20.5434368 L37.7554708,22.6572426 L17.9911601,22.6572426 L17.9911601,20.5434368 L15.756794,20.5434368 L15.756794,24.8880627 L26.7140726,24.8880627 L26.7140726,26.2554308 L28.9493839,26.2554308 L28.9493839,24.8880627 L39.9898369,24.8880627 Z M16.3796566,30.3584788 L39.3679194,30.3584788 L39.3679194,28.1276588 L16.3796566,28.1276588 L16.3796566,30.3584788 Z M13.7851833,20.1216193 L13.7851833,17.8917429 L9.6,17.8917429 L9.6,30.4 L13.7851833,30.4 L13.7851833,28.16918 L11.8343661,28.16918 L11.8343661,20.1216193 L13.7851833,20.1216193 Z" id="Combined-Shape" fill="#580CF3"></path>
    </g>
</svg>