<?xml version="1.0" encoding="UTF-8"?>
<svg width="24px" height="24px" viewBox="0 0 24 24" version="1.1" xmlns="http://www.w3.org/2000/svg" xmlns:xlink="http://www.w3.org/1999/xlink">
    <!-- Generator: Sketch 56.3 (81716) - https://sketch.com -->
    <title>linkedin-2</title>
    <desc>Created with Sketch.</desc>
    <g id="linkedin-2" stroke="none" stroke-width="1" fill="none" fill-rule="evenodd">
        <path d="M3.703125,20.09375 L7.3125,20.09375 L7.3125,9.25 L3.703125,9.25 L3.703125,20.09375 Z M7.546875,5.90625 C7.53645828,5.36458062 7.34896016,4.91666844 6.984375,4.5625 C6.61978984,4.20833156 6.13541969,4.03125 5.53125,4.03125 C4.92708031,4.03125 4.43489773,4.20833156 4.0546875,4.5625 C3.67447727,4.91666844 3.484375,5.36458062 3.484375,5.90625 C3.484375,6.43750266 3.66926898,6.8828107 4.0390625,7.2421875 C4.40885602,7.6015643 4.89062203,7.78125 5.484375,7.78125 L5.5,7.78125 C6.11458641,7.78125 6.60937313,7.6015643 6.984375,7.2421875 C7.35937688,6.8828107 7.546875,6.43750266 7.546875,5.90625 Z M12.90625,10.778671 L12.90625,9.25 L9.296875,9.25 C9.32812516,9.93750344 9.32812516,13.5520506 9.296875,20.09375 L12.90625,20.09375 L12.90625,14.03125 C12.90625,13.6354147 12.942708,13.3437509 13.015625,13.15625 C13.1718758,12.7916648 13.4062484,12.4817721 13.71875,12.2265625 C14.0312516,11.9713529 14.4166644,11.84375 14.875,11.84375 C16.0833394,11.84375 16.6875,12.6614502 16.6875,14.296875 L16.6875,20.09375 L20.296875,20.09375 L20.296875,13.875 C20.296875,12.2708253 19.9166705,11.0572958 19.15625,10.234375 C18.3958295,9.41145422 17.3906312,9 16.140625,9 C14.7432443,9 13.6651297,9.5928845 12.90625,10.778671 L12.90625,10.778671 Z M24,4.5 L24,19.5 C24,20.7395895 23.5599002,21.7994748 22.6796875,22.6796875 C21.7994748,23.5599002 20.7395895,24 19.5,24 L4.5,24 C3.26041047,24 2.20052523,23.5599002 1.3203125,22.6796875 C0.440099766,21.7994748 1.36424205e-12,20.7395895 1.36424205e-12,19.5 L1.36424205e-12,4.5 C1.36424205e-12,3.26041047 0.440099766,2.20052523 1.3203125,1.3203125 C2.20052523,0.440099766 3.26041047,-4.54747351e-13 4.5,-4.54747351e-13 L19.5,-4.54747351e-13 C20.7395895,-4.54747351e-13 21.7994748,0.440099766 22.6796875,1.3203125 C23.5599002,2.20052523 24,3.26041047 24,4.5 Z" id="" fill="#00BBA6" fill-rule="nonzero"></path>
    </g>
</svg>