<?xml version="1.0" encoding="UTF-8"?>
<svg width="14px" height="14px" viewBox="0 0 14 14" version="1.1" xmlns="http://www.w3.org/2000/svg" xmlns:xlink="http://www.w3.org/1999/xlink">
    <!-- Generator: Sketch 56.3 (81716) - https://sketch.com -->
    <title>linkedin</title>
    <desc>Created with Sketch.</desc>
    <g id="linkedin" stroke="none" stroke-width="1" fill="none" fill-rule="evenodd">
        <path d="M2.16015625,11.7213542 L4.265625,11.7213542 L4.265625,5.39583333 L2.16015625,5.39583333 L2.16015625,11.7213542 Z M4.40234375,3.4453125 C4.39626733,3.1293387 4.28689342,2.86805659 4.07421875,2.66145833 C3.86154408,2.45486008 3.57899482,2.3515625 3.2265625,2.3515625 C2.87413018,2.3515625 2.58702368,2.45486008 2.36523438,2.66145833 C2.14344507,2.86805659 2.03255208,3.1293387 2.03255208,3.4453125 C2.03255208,3.75520988 2.14040691,4.01497291 2.35611979,4.22460937 C2.57183268,4.43424584 2.85286285,4.5390625 3.19921875,4.5390625 L3.20833333,4.5390625 C3.56684207,4.5390625 3.85546766,4.43424584 4.07421875,4.22460937 C4.29296984,4.01497291 4.40234375,3.75520988 4.40234375,3.4453125 Z M7.52864583,6.2875581 L7.52864583,5.39583333 L5.42317708,5.39583333 C5.44140634,5.79687701 5.44140634,7.90536286 5.42317708,11.7213542 L7.52864583,11.7213542 L7.52864583,8.18489583 C7.52864583,7.9539919 7.54991298,7.78385471 7.59244792,7.67447917 C7.68359421,7.46180449 7.82031159,7.28103373 8.00260417,7.13216146 C8.18489674,6.98328919 8.40972089,6.90885417 8.67708333,6.90885417 C9.38194797,6.90885417 9.734375,7.38584592 9.734375,8.33984375 L9.734375,11.7213542 L11.8398438,11.7213542 L11.8398438,8.09375 C11.8398438,7.15798143 11.6180578,6.45008921 11.1744792,5.97005208 C10.7309006,5.49001496 10.1445349,5.25 9.41536458,5.25 C8.60022583,5.25 7.97132567,5.59584929 7.52864583,6.2875581 L7.52864583,6.2875581 Z M14,2.625 L14,11.375 C14,12.0980939 13.7432751,12.7163603 13.2298177,13.2298177 C12.7163603,13.7432751 12.0980939,14 11.375,14 L2.625,14 C1.90190611,14 1.28363972,13.7432751 0.770182292,13.2298177 C0.256724863,12.7163603 0,12.0980939 0,11.375 L0,2.625 C0,1.90190611 0.256724863,1.28363972 0.770182292,0.770182292 C1.28363972,0.256724863 1.90190611,0 2.625,0 L11.375,0 C12.0980939,0 12.7163603,0.256724863 13.2298177,0.770182292 C13.7432751,1.28363972 14,1.90190611 14,2.625 Z" id="" fill="#0087BF" fill-rule="nonzero"></path>
    </g>
</svg>