<?xml version="1.0" encoding="UTF-8"?>
<svg width="300px" height="51px" viewBox="0 0 300 51" version="1.1" xmlns="http://www.w3.org/2000/svg" xmlns:xlink="http://www.w3.org/1999/xlink">
    <!-- Generator: Sketch 56.3 (81716) - https://sketch.com -->
    <title>lucidity-logo</title>
    <desc>Created with Sketch.</desc>
    <defs>
        <polygon id="path-1" points="9.61899053e-05 0.491459931 34.9944677 0.491459931 34.9944677 50.3201295 9.61899053e-05 50.3201295"></polygon>
    </defs>
    <g id="lucidity-logo" stroke="none" stroke-width="1" fill="none" fill-rule="evenodd">
        <g id="Group-36" transform="translate(1.000000, 0.000000)">
            <g id="Group-3" transform="translate(0.000000, 0.347544)">
                <mask id="mask-2" fill="white">
                    <use xlink:href="#path-1"></use>
                </mask>
                <g id="Clip-2"></g>
                <path d="M33.0799416,24.2283875 C33.6767858,24.4850202 33.953681,25.174406 33.6978907,25.7681835 C33.4404119,26.3653157 32.7456414,26.6420764 32.1454204,26.3871211 L28.8834601,25.0008015 L28.8800833,24.9982855 C28.2815507,24.7424915 28.0046555,24.0539444 28.2612901,23.4584896 C28.5187688,22.862196 29.2135394,22.586274 29.8146045,22.8412293 L33.0757207,24.2275489 C33.0765649,24.2275489 33.0790975,24.2283875 33.0799416,24.2283875 L33.0799416,24.2283875 Z M29.991885,14.1392016 C29.6972618,14.0125626 29.457511,13.7693486 29.343545,13.4456225 C29.1291201,12.8325555 29.4566669,12.1632978 30.0720833,11.9502759 L33.4243722,10.7962676 C34.0414771,10.5832458 34.7142986,10.9069719 34.9287235,11.5208775 C35.1431484,12.1339444 34.8156017,12.8023635 34.2001853,13.0145467 L30.8478963,14.1702323 C30.5574941,14.2708726 30.2527405,14.2515832 29.991885,14.1392016 L29.991885,14.1392016 Z M4.90670085,12.1440084 C5.50523343,12.4031571 5.77875184,13.0950589 5.51789632,13.6905138 C5.2561966,14.2834526 4.56227025,14.5551813 3.96373768,14.29771 C3.96289348,14.29771 3.9612051,14.2968713 3.96036091,14.2960326 L0.709375071,12.8853917 C0.110842493,12.6270817 -0.161831728,11.9335026 0.099023796,11.3388864 C0.360723513,10.7459475 1.05464986,10.4750575 1.65233824,10.7308515 L1.65571501,10.7333675 L4.90670085,12.1440084 Z M11.901681,5.95463252 C11.5876414,6.09385154 11.2423666,6.08798086 10.9485875,5.96134187 C10.687732,5.84812158 10.4657093,5.64180905 10.3399246,5.36253233 L8.8896017,2.14539872 C8.62283683,1.55329853 8.89044589,0.858042074 9.48644589,0.593861394 C10.0824459,0.328003377 10.7814374,0.594700063 11.0482023,1.18680025 L12.4985252,4.40309519 C12.7636017,4.99435672 12.497681,5.68961317 11.901681,5.95463252 L11.901681,5.95463252 Z M22.0733581,6.52995933 C21.4739813,6.272488 21.1979303,5.58058622 21.4570975,4.98513136 L22.8643666,1.74954703 C23.1243779,1.15409217 23.8191484,0.880686132 24.4193694,1.13815746 C25.0187462,1.39646746 25.2947972,2.08753057 25.03563,2.68298544 L23.6275167,5.91773109 C23.3691938,6.51318596 22.6718907,6.78743066 22.0733581,6.52995933 L22.0733581,6.52995933 Z M23.497511,38.254285 C24.1492278,38.5335617 24.9090011,38.2341569 25.1909615,37.5867046 C25.4720776,36.9392522 25.1707008,36.185289 24.5189841,35.9060122 C23.8672674,35.6258969 23.1083382,35.924463 22.8263779,36.5719153 C22.5452618,37.2193676 22.8457943,37.9750082 23.497511,38.254285 L23.497511,38.254285 Z M25.4585705,33.7497947 C27.3065082,34.5431754 28.159987,36.6834582 27.3605365,38.5193043 C26.7484969,39.9265906 25.3403836,40.7501634 23.8849955,40.7023592 L21.6174941,45.9113313 C21.5744402,46.0144876 20.4170521,48.6822931 17.5712788,49.8186894 C15.6102193,50.6011674 13.3807065,50.467819 10.9452108,49.421999 C8.41600963,48.3359229 6.78249688,46.7827082 6.08941473,44.8068045 C5.17093314,42.1851257 6.29117677,39.7747915 6.49293881,39.3739078 L7.7094204,36.5786246 C7.96858754,35.9831698 8.66420227,35.7089251 9.26357904,35.9655577 C9.86295581,36.2238677 10.1381626,36.9140922 9.88068385,37.5112244 L8.64816261,40.3400543 C8.63549972,40.3719237 8.62114844,40.4004385 8.60426459,40.4306305 C8.59835524,40.4423719 7.67902946,42.2295752 8.33074618,44.0553572 C8.80264986,45.3754219 9.99718244,46.4556274 11.8831088,47.2649428 C17.2547065,49.5721207 19.2385592,45.4592888 19.4462306,44.9829249 L21.6715224,39.8670451 C20.4609501,38.8623198 19.9991768,37.1497581 20.6568028,35.6401542 C21.4554091,33.8034695 23.6097887,32.9547366 25.4585705,33.7497947 L25.4585705,33.7497947 Z M23.4417943,15.8198939 C22.2050521,15.2890165 21.6335337,13.8557315 22.1679076,12.6270817 C22.7031258,11.3992705 24.1441626,10.8314917 25.3800606,11.3623691 C26.6125819,11.8915691 27.1841003,13.3156288 26.6590125,14.5409239 C27.5454147,15.8064752 28.8184572,18.4843448 27.2600776,22.067138 C25.8401456,25.3303984 23.2856187,26.6521404 21.2350748,27.7138952 C19.7214374,28.4963732 18.5260606,29.1153108 18.0262986,30.259255 L17.8447972,30.6769121 C17.5864742,31.272367 16.8900153,31.5474504 16.2914827,31.2891404 C15.6921059,31.031669 15.416055,30.3414446 15.6752221,29.7459897 L15.8558793,29.327494 C16.6882533,27.4161677 18.4433297,26.5078894 20.1418453,25.6289645 C22.0404346,24.6468833 24.0031824,23.6312553 25.0905025,21.1345382 C26.1609388,18.6738839 25.3648652,16.8556499 24.7916584,15.9859503 C24.3484572,16.0563985 23.8833071,16.0085944 23.4417943,15.8198939 L23.4417943,15.8198939 Z M11.9590861,35.6200262 L10.1406952,34.8383868 L7.50934674,33.7086999 C6.55034391,33.2969135 6.13331275,32.6310105 5.95096714,32.1429052 C5.50101246,30.9310288 6.07084249,29.7090883 6.13668952,29.5740626 C6.42371501,28.9903491 7.13030425,28.7412645 7.71870652,29.0331212 C8.30204363,29.3157526 8.5460153,30.0118477 8.26743173,30.5938839 C8.18047989,30.7834231 8.0985932,31.1440507 8.17034958,31.3302351 C8.18216827,31.3612659 8.21846856,31.4535195 8.44808895,31.5524824 L11.0794374,32.6821693 L12.8978283,33.46297 L13.1418,33.5686422 C13.3899926,33.6751532 13.5892221,33.6994746 13.7318907,33.6399291 C13.9817717,33.5350955 14.1632731,33.1887253 14.1826895,33.1392438 C14.4173751,32.5337249 15.1003269,32.2326428 15.7106782,32.4641154 C16.3176527,32.6947493 16.6240946,33.3782644 16.3902533,33.982106 C16.3387575,34.116293 15.8482816,35.303848 14.6469955,35.8062107 C14.1252844,36.0234259 13.277715,36.1861276 12.203902,35.7248598 L11.9590861,35.6200262 Z M7.56168669,26.2604821 L7.74403229,25.842825 C8.24041756,24.6980421 7.87572635,23.4098468 7.41310878,21.7777972 C6.78671785,19.5645502 6.00499547,16.8120391 7.42577167,13.5479401 C9.01369802,9.90056934 11.92363,9.02248308 13.4389558,8.81617055 C13.9910578,7.62442215 15.4067688,7.07928741 16.6249388,7.60261676 C17.8633694,8.13349413 18.4331994,9.56510181 17.8996697,10.7945903 C17.3636074,12.0232401 15.9225705,12.5910189 14.6858283,12.0593029 C14.2316527,11.8647317 13.8669615,11.5460376 13.6145479,11.1627659 C12.5930748,11.3330157 10.6801343,11.9871774 9.59534674,14.4805398 C8.50971501,16.9772569 9.10909178,19.094057 9.68989632,21.1404089 C10.2082306,22.9703843 10.7459813,24.8649372 9.91360737,26.7754248 L9.73126176,27.1930818 C9.473783,27.7885367 8.77732408,28.0627814 8.17794731,27.8053101 C7.57857054,27.5478387 7.30251955,26.855937 7.56168669,26.2604821 L7.56168669,26.2604821 Z" id="Fill-1" fill="#1D97F7" mask="url(#mask-2)"></path>
            </g>
            <polygon id="Fill-4" fill="#0067C2" points="46.5886278 12.8448001 41.3993756 12.8448001 41.3968431 41.2219985 58.9374776 41.2236758 58.9374776 36.7871177 46.5860952 36.7854404"></polygon>
            <path d="M76.0397229,30.1939227 C76.0397229,33.8312294 73.9874907,37.0684911 70.2865501,37.0676524 C67.7514397,37.0676524 67.1081649,35.3886374 67.1081649,32.9112097 L67.1090091,20.8402493 L61.9999552,20.8402493 L61.9982669,33.9503204 C61.9982669,39.5056627 64.733451,41.702975 69.1190317,41.7038137 C72.6190544,41.7038137 75.2343632,39.5861749 76.2406408,37.4676975 L76.3208391,37.4676975 C76.3208391,37.4676975 76.2406408,38.1084404 76.2406408,38.9076918 L76.2397966,41.2249338 L81.1479326,41.2257725 L81.1504652,20.8419267 L76.0405671,20.841088 L76.0397229,30.1939227 Z" id="Fill-6" fill="#0067C2"></path>
            <path d="M96.8828391,37.3897851 C92.9801365,37.3897851 90.4863915,34.4318002 90.4863915,30.9949353 C90.4872357,27.5169757 92.9413037,24.6797591 96.7232867,24.6797591 C99.9421932,24.6797591 102.07378,26.8787488 102.07378,26.8787488 L104.32693,23.4016278 C104.32693,23.4016278 101.792663,20.3631307 96.4421705,20.3631307 C89.6430431,20.362292 85.2971394,25.2391512 85.2962952,31.0343528 C85.2962952,36.949484 89.6405105,41.7055751 96.439638,41.7055751 C101.951372,41.7064136 104.888318,38.3894784 104.888318,38.3894784 L102.917972,34.7932664 C102.917972,34.7932664 100.343185,37.3897851 96.8828391,37.3897851" id="Fill-8" fill="#0067C2"></path>
            <polygon id="Fill-10" fill="#0067C2" points="113.786868 12.8513417 108.717491 12.8505031 108.716647 17.3667347 113.786024 17.3675733"></polygon>
            <polygon id="Fill-12" fill="#0067C2" points="108.714283 41.2281207 113.824181 41.2281207 113.82587 20.8451136 108.715972 20.844275"></polygon>
            <path d="M128.309176,37.4323895 C125.292032,37.4323895 123.200122,34.913867 123.200966,31.0375397 C123.200966,27.0010267 125.534315,24.7223635 128.350542,24.7223635 C131.770366,24.7232021 133.46044,27.8413728 133.459596,30.998961 C133.459596,35.5151926 130.965006,37.4323895 128.309176,37.4323895 L128.309176,37.4323895 Z M133.299199,21.806312 C133.299199,22.4453776 133.33972,22.9645136 133.33972,22.9645136 L133.258678,22.9645136 C133.258678,22.9645136 131.851408,20.3663176 127.345108,20.3654789 C121.914417,20.3654789 118.051392,24.5621777 118.050547,31.0375397 C118.050547,37.352716 121.590247,41.7087618 127.142502,41.7096005 C131.84972,41.7096005 133.579471,38.2333182 133.579471,38.2333182 L133.659669,38.2333182 C133.659669,38.2333182 133.579471,38.7927103 133.579471,39.5517056 L133.579471,41.2307206 L138.406564,41.2307206 L138.409097,12.8535223 L133.300043,12.8526836 L133.299199,21.806312 Z" id="Fill-14" fill="#0067C2"></path>
            <polygon id="Fill-16" fill="#0067C2" points="149.11557 12.8546125 144.046193 12.8546125 144.045349 17.3700055 149.11557 17.3708442"></polygon>
            <polygon id="Fill-18" fill="#0067C2" points="144.043407 41.2313915 149.153305 41.2313915 149.154994 20.8483844 144.045096 20.8475458"></polygon>
            <path d="M160.782565,33.1198705 L160.78341,25.2053528 L165.450951,25.2061915 L165.450951,21.1696785 L160.78341,21.1688398 L160.784254,15.2939647 L155.79592,15.293126 L155.795075,21.1688398 L153.018526,21.1688398 L153.018526,25.2053528 L155.673512,25.2053528 L155.672667,33.7589362 C155.672667,40.5932484 161.344798,41.4335946 164.201546,41.4335946 C165.167302,41.4335946 165.770056,41.313665 165.770056,41.313665 L165.7709,36.8771069 C165.7709,36.8771069 165.408741,36.9567804 164.84482,36.9567804 C163.437551,36.9567804 160.782565,36.4770618 160.782565,33.1198705" id="Fill-20" fill="#0067C2"></path>
            <path d="M178.406353,32.6812467 C178.045039,33.7606135 177.722557,35.3591163 177.722557,35.3591163 L177.642359,35.3591163 C177.642359,35.3591163 177.2802,33.68094 176.87752,32.6015732 L172.57467,20.8501456 L166.821497,20.8501456 L175.469407,40.9144586 L174.703724,42.7125646 C173.93973,44.5115092 172.572138,45.350178 171.164024,45.350178 C169.99735,45.350178 168.870353,44.5106705 168.870353,44.5106705 L167.180279,48.3081629 C167.180279,48.3081629 168.991073,49.627389 171.444296,49.627389 C174.543327,49.627389 177.399231,48.0288862 178.84871,44.311906 L188.023395,20.851823 L182.430619,20.851823 L178.406353,32.6812467 Z" id="Fill-22" fill="#0067C2"></path>
            <path d="M203.323205,36.6539371 C201.616248,38.4486884 199.235624,39.4374789 196.617783,39.4374789 L196.616939,39.4374789 L193.266338,39.4366403 L196.242117,24.2659599 L199.787726,24.2667986 C201.705732,24.2667986 203.275086,24.7549038 204.325262,25.6766009 C205.399075,26.6201033 205.943579,27.9913268 205.943579,29.7542087 C205.943579,32.4262076 205.012435,34.8767979 203.323205,36.6539371 M207.178633,23.1094356 C205.473364,21.6317011 202.990593,20.8509004 199.998775,20.8509004 L193.07133,20.8500618 L188.771857,42.8542157 L196.827143,42.8550544 L196.827987,42.8550544 C204.242531,42.8550544 209.834463,37.1193983 209.835307,29.5143494 C209.835307,26.8297705 208.916825,24.6148461 207.178633,23.1094356" id="Fill-24" fill="#0067C2"></path>
            <polygon id="Fill-26" fill="#0067C2" points="211.042587 42.8537964 214.891261 42.8537964 219.191578 20.8504811 215.374139 20.8496424"></polygon>
            <path d="M232.711239,29.8389142 C231.924452,30.5962322 230.843041,31.0130506 229.663704,31.0130506 L229.662859,31.0130506 L225.979647,31.0122119 L227.294899,24.2659599 L231.233902,24.2667986 C232.978004,24.2667986 233.979216,25.1415301 233.979216,26.6662301 C233.979216,27.9435227 233.540236,29.0405015 232.711239,29.8389142 M237.901335,26.2468957 C237.901335,24.0520993 236.822457,22.2967655 234.94244,21.4304206 C234.099936,21.0404396 233.053981,20.8509004 231.746327,20.8509004 L224.156191,20.8500618 L219.823794,42.8542157 L223.672469,42.8542157 L225.303449,34.4297874 L229.301545,34.430626 L232.227517,42.8550544 L236.298214,42.8550544 L233.136712,34.1085772 C233.044695,33.8552992 232.964497,33.6523414 232.900338,33.496349 C235.865987,32.4547223 237.900491,29.5386708 237.901335,26.2468957" id="Fill-28" fill="#0067C2"></path>
            <polygon id="Fill-30" fill="#0067C2" points="239.07738 42.8534609 252.857981 42.8542996 253.497879 39.4375628 243.603097 39.4367241 244.768083 33.4704341 252.402117 33.4704341 253.081692 30.0536973 245.445125 30.0528587 246.57972 24.2660438 255.963765 24.2668824 256.644185 20.8509843 243.440168 20.8501456"></polygon>
            <path d="M269.802193,20.8498102 L269.801349,20.8498102 C266.486205,20.8498102 263.166839,22.2604511 260.694199,24.7194281 C258.159933,27.2413053 256.764482,30.5297257 256.764482,33.9800093 C256.763638,36.7543258 257.674522,39.1353066 259.398363,40.863803 C261.166103,42.6367489 263.656471,43.5743806 266.601015,43.5743806 L266.601015,43.5743806 C271.712601,43.573542 275.272561,40.4822087 275.421984,40.3505377 L275.674397,40.1282904 L273.959842,37.0386345 L273.56476,37.384166 C273.535213,37.4110034 270.53242,40.0066835 266.752969,40.0066835 L266.752125,40.0066835 C264.905876,40.0066835 263.358471,39.3978099 262.27706,38.2471563 C261.236171,37.1384361 260.685757,35.6112202 260.685757,33.8298876 C260.686601,28.7265878 264.902499,24.41583 269.891678,24.41583 C273.395921,24.4166687 275.394125,26.3992818 275.413542,26.4194098 L275.734335,26.7439747 L278.049111,24.0962972 L277.822867,23.8228912 C277.723253,23.7012842 275.308862,20.8498102 269.802193,20.8498102" id="Fill-32" fill="#0067C2"></path>
            <polygon id="Fill-34" fill="#0067C2" points="279.440341 20.8498102 278.799598 24.2657083 286.098488 24.266547 282.444822 42.8539641 286.292652 42.8548028 289.916771 24.266547 297.251961 24.2673856 297.891859 20.8514875"></polygon>
        </g>
    </g>
</svg>