<?xml version="1.0" encoding="UTF-8"?>
<svg width="32px" height="32px" viewBox="0 0 32 32" version="1.1" xmlns="http://www.w3.org/2000/svg" xmlns:xlink="http://www.w3.org/1999/xlink">
    <!-- Generator: Sketch 56.3 (81716) - https://sketch.com -->
    <title>mobility</title>
    <desc>Created with Sketch.</desc>
    <defs>
        <polygon id="path-1" points="0.167823529 0.0523529412 17.1857647 0.0523529412 17.1857647 29.7057941 0.167823529 29.7057941"></polygon>
        <polygon id="path-3" points="0.225735294 0.168823529 5.89558824 0.168823529 5.89558824 21.3538235 0.225735294 21.3538235"></polygon>
    </defs>
    <g id="mobility" stroke="none" stroke-width="1" fill="none" fill-rule="evenodd">
        <g id="Group-35-Copy" transform="translate(1.000000, 1.000000)">
            <path d="M20.4061471,29.5064706 L8.71232353,29.5064706 C7.48585294,29.5064706 6.49144118,28.5120588 6.49144118,27.2855882 L6.49144118,2.95617647 C6.49144118,1.72970588 7.48585294,0.735294118 8.71232353,0.735294118 L20.4061471,0.735294118 C21.6326176,0.735294118 22.6267353,1.72970588 22.6267353,2.95617647 L22.6267353,27.2855882 C22.6267353,28.5120588 21.6326176,29.5064706 20.4061471,29.5064706" id="Fill-1" fill="#FEFEFE"></path>
            <g id="Group-5" transform="translate(5.882353, 0.241765)">
                <mask id="mask-2" fill="white">
                    <use xlink:href="#path-1"></use>
                </mask>
                <g id="Clip-4"></g>
                <path d="M2.82988235,0.934617647 C1.84870588,0.934617647 1.05017647,1.73314706 1.05017647,2.71432353 L1.05017647,27.0437353 C1.05017647,28.0249118 1.84870588,28.8234412 2.82988235,28.8234412 L14.5237059,28.8234412 C15.5048824,28.8234412 16.3034118,28.0249118 16.3034118,27.0437353 L16.3034118,2.71432353 C16.3034118,1.73314706 15.5048824,0.934617647 14.5237059,0.934617647 L2.82988235,0.934617647 Z M14.5237059,29.7057941 L2.82988235,29.7057941 C1.36194118,29.7057941 0.167823529,28.5116765 0.167823529,27.0437353 L0.167823529,2.71432353 C0.167823529,1.24667647 1.36194118,0.0522647059 2.82988235,0.0522647059 L14.5237059,0.0522647059 C15.9916471,0.0522647059 17.1857647,1.24667647 17.1857647,2.71432353 L17.1857647,27.0437353 C17.1857647,28.5116765 15.9916471,29.7057941 14.5237059,29.7057941 L14.5237059,29.7057941 Z" id="Fill-3" fill="#231F20" mask="url(#mask-2)"></path>
            </g>
            <path d="M22.5897647,5.36555882 L6.52858824,5.36555882 C6.28476471,5.36555882 6.08741176,5.16791176 6.08741176,4.92438235 C6.08741176,4.68085294 6.28476471,4.48320588 6.52858824,4.48320588 L22.5897647,4.48320588 C22.8335882,4.48320588 23.0309412,4.68085294 23.0309412,4.92438235 C23.0309412,5.16791176 22.8335882,5.36555882 22.5897647,5.36555882" id="Fill-6" fill="#231F20"></path>
            <path d="M22.5897647,23.8949706 L6.52858824,23.8949706 C6.28476471,23.8949706 6.08741176,23.6973235 6.08741176,23.4537941 C6.08741176,23.2102647 6.28476471,23.0126176 6.52858824,23.0126176 L22.5897647,23.0126176 C22.8335882,23.0126176 23.0309412,23.2102647 23.0309412,23.4537941 C23.0309412,23.6973235 22.8335882,23.8949706 22.5897647,23.8949706" id="Fill-8" fill="#231F20"></path>
            <path d="M16.1296765,26.7689412 L12.9885,26.7689412 C12.7449706,26.7689412 12.5473235,26.5712941 12.5473235,26.3277647 C12.5473235,26.0842353 12.7449706,25.8865882 12.9885,25.8865882 L16.1296765,25.8865882 C16.3735,25.8865882 16.5708529,26.0842353 16.5708529,26.3277647 C16.5708529,26.5712941 16.3735,26.7689412 16.1296765,26.7689412" id="Fill-10" fill="#231F20"></path>
            <path d="M13.5292941,18.4595294 C13.4801765,18.4595294 13.4304706,18.4515882 13.3816471,18.4339412 C13.1519412,18.3524706 13.0319412,18.1001176 13.1134118,17.8707059 L15.1731176,12.0757059 C15.2551765,11.8457059 15.5072353,11.7251176 15.7366471,11.8077647 C15.9663529,11.8892353 16.0863529,12.1415882 16.0048824,12.371 L13.9451765,18.166 C13.8807647,18.3468824 13.7107647,18.4595294 13.5292941,18.4595294" id="Fill-12" fill="#12B8A3"></path>
            <path d="M11.7904118,18.3547059 C11.6821765,18.3547059 11.5736471,18.315 11.4883529,18.235 L8.54835294,15.4723529 C8.46041176,15.3897059 8.41011765,15.2741176 8.40923007,15.1532353 C8.40864706,15.0323529 8.45776471,14.9167647 8.54482353,14.8326471 L11.4848235,12.01 C11.6607059,11.8411765 11.9398235,11.8467647 12.1089412,12.0226471 C12.2774706,12.1982353 12.2718824,12.4776471 12.0962941,12.6464706 L9.49129412,15.1476471 L12.0927647,17.5920588 C12.2701176,17.7591176 12.2789412,18.0382353 12.1121765,18.2155882 C12.0251176,18.3082353 11.9080588,18.3547059 11.7904118,18.3547059" id="Fill-14" fill="#12B8A3"></path>
            <path d="M17.3278235,18.3547059 C17.2101765,18.3547059 17.0931176,18.3082353 17.0060588,18.2155882 C16.8392941,18.0382353 16.8481176,17.7591176 17.0254706,17.5920588 L19.6269412,15.1476471 L17.0219412,12.6464706 C16.8463529,12.4776471 16.8407647,12.1982353 17.0092941,12.0226471 C17.1781176,11.8467647 17.4575294,11.8411765 17.6334118,12.01 L20.5734118,14.8326471 C20.6604706,14.9167647 20.7095882,15.0323529 20.7090052,15.1532353 C20.7081176,15.2741176 20.6578235,15.3897059 20.5698824,15.4723529 L17.6298824,18.235 C17.5445882,18.315 17.4360588,18.3547059 17.3278235,18.3547059" id="Fill-16" fill="#12B8A3"></path>
            <path d="M1.97208824,25.4680882 C3.44032353,25.4680882 3.30561765,24.1633824 3.30561765,24.1633824 L3.30561765,7.39485294 L1.87738235,4.77367647 L0.448852941,7.39485294 L0.448852941,24.1633824 C0.448852941,24.1633824 0.263852941,25.4680882 1.74326471,25.4680882 L1.97208824,25.4680882 Z" id="Fill-18" fill="#11B8A4"></path>
            <path d="M1.82961765,25.0269118 L1.97197059,25.0269118 C2.30373529,25.0269118 2.54402941,24.9469118 2.68638235,24.7889706 C2.89285294,24.5601471 2.86726471,24.2122059 2.86667647,24.2089706 C2.86520588,24.1936765 2.86461765,24.1786765 2.86461765,24.1633824 L2.86461765,7.50720588 L1.87726471,5.69544118 L0.890205882,7.50720588 L0.890205882,24.1633824 C0.890205882,24.1842647 0.888735294,24.2048529 0.885794118,24.2254412 C0.885794118,24.2254412 0.846088235,24.5751471 1.04373529,24.7980882 C1.17814706,24.9498529 1.41344118,25.0269118 1.74344118,25.0269118 L1.82961765,25.0269118 Z M1.97197059,25.9092647 L1.74344118,25.9092647 C1.14373529,25.9092647 0.683147059,25.7286765 0.374029412,25.3727941 C-0.0362647059,24.9001471 -0.00891176471,24.3025 0.00785294118,24.1383824 L0.00785294118,7.39485294 C0.00785294118,7.32102941 0.0263823529,7.24867647 0.0613823529,7.18367647 L1.48991176,4.5625 C1.56726471,4.42044118 1.71579412,4.3325 1.87726471,4.3325 C2.03873529,4.3325 2.18726471,4.42044118 2.26461765,4.5625 L3.69285294,7.18367647 C3.72844118,7.24867647 3.74697059,7.32102941 3.74697059,7.39485294 L3.74697059,24.1454412 C3.75755882,24.2948529 3.77108824,24.9036765 3.34138235,25.3801471 C3.02461765,25.7313235 2.56402941,25.9092647 1.97197059,25.9092647 L1.97197059,25.9092647 Z" id="Fill-20" fill="#231F20"></path>
            <path d="M3.30352941,23.9509706 L0.446764706,23.9509706" id="Fill-22" fill="#11B8A4"></path>
            <path d="M3.30352941,24.3921471 L0.446764706,24.3921471 C0.202941176,24.3921471 0.00558823529,24.1945 0.00558823529,23.9509706 C0.00558823529,23.7074412 0.202941176,23.5097941 0.446764706,23.5097941 L3.30352941,23.5097941 C3.54735294,23.5097941 3.74470588,23.7074412 3.74470588,23.9509706 C3.74470588,24.1945 3.54735294,24.3921471 3.30352941,24.3921471" id="Fill-24" fill="#231F20"></path>
            <path d="M3.30352941,7.54244118 L0.446764706,7.54244118" id="Fill-26" fill="#11B8A4"></path>
            <path d="M3.30352941,7.98361765 L0.446764706,7.98361765 C0.202941176,7.98361765 0.00558823529,7.78597059 0.00558823529,7.54244118 C0.00558823529,7.29891176 0.202941176,7.10126471 0.446764706,7.10126471 L3.30352941,7.10126471 C3.54735294,7.10126471 3.74470588,7.29891176 3.74470588,7.54244118 C3.74470588,7.78597059 3.54735294,7.98361765 3.30352941,7.98361765" id="Fill-28" fill="#231F20"></path>
            <path d="M27.8244412,21.5141765 C27.6876765,21.4815294 27.5800294,21.323 27.5650294,21.1159412 L27.5650294,9.14064706 C27.5650294,8.96211765 27.6620882,8.79829412 27.8120882,8.72241176 C28.1785588,8.55829412 28.4706176,8.30947059 28.6838529,7.98123529 C28.8870882,7.69505882 28.9876765,7.35505882 28.9762059,6.99623529 C28.9762059,6.66652941 28.8915,6.35652941 28.7315,6.09711765 C28.6791471,5.99388235 28.6173824,5.89976471 28.5370882,5.803 L28.5270882,6.79535294 C28.5270882,6.93947059 28.4688529,7.08211765 28.3791471,7.15741176 L27.1367941,8.14005882 C27.0223824,8.24329412 26.8456176,8.24976471 26.7376765,8.15241176 L25.4288529,7.17535294 C25.3035588,7.09652941 25.2279706,6.94329412 25.2415,6.78829412 L25.2312059,5.803 C25.1512059,5.89947059 25.0900294,5.99241176 25.0397353,6.09152941 C24.8767941,6.35652941 24.7920882,6.66652941 24.7920882,6.99388235 C24.7809118,7.35505882 24.8815,7.69505882 25.0826765,7.97858824 C25.2885588,8.29888235 25.5970882,8.56152941 25.9532647,8.72064706 C26.0903235,8.77829412 26.1891471,8.94123529 26.2032647,9.13535294 L26.2035588,21.1109412 C26.1900294,21.2662353 26.1094412,21.4547647 25.9638529,21.5162353 C25.6167941,21.6712353 25.3070882,21.928 25.0703235,22.2577059 C24.8815,22.5562353 24.7800294,22.8977059 24.7800294,23.2424118 C24.7800294,23.5562353 24.8694412,23.8832941 25.0250294,24.1394706 C25.0941471,24.2462353 25.1635588,24.3400588 25.2391471,24.4297647 L25.2291471,23.473 C25.2291471,23.3294706 25.2976765,23.1721176 25.3994412,23.0803529 L26.7303235,22.0794706 C26.7920882,22.0403529 26.8588529,22.0212353 26.9235588,22.0212353 C26.9988529,22.0212353 27.0709118,22.0474118 27.1279706,22.0988824 L28.3529706,23.0621176 C28.4697353,23.1662353 28.5270882,23.2982941 28.5270882,23.4568235 L28.5270882,24.4321176 C28.6035588,24.3415294 28.6735588,24.2468235 28.7438529,24.1385882 C28.8991471,23.8824118 28.9882647,23.5556471 28.9882647,23.2424118 C28.9882647,22.9112353 28.8815,22.5509412 28.6953235,22.2541765 C28.4712059,21.9421176 28.1773824,21.6918235 27.8244412,21.5141765" id="Fill-30" fill="#11B8A4"></path>
            <g id="Group-34" transform="translate(23.823529, 4.359412)">
                <mask id="mask-4" fill="white">
                    <use xlink:href="#path-3"></use>
                </mask>
                <g id="Clip-33"></g>
                <path d="M4.92044118,19.7791176 C4.85014706,19.8873529 4.78014706,19.9820588 4.70338235,20.0726471 L4.70338235,19.0976471 C4.70338235,18.9391176 4.64602941,18.8067647 4.52926471,18.7026471 L3.30455882,17.7394118 C3.2475,17.6882353 3.17514706,17.6617647 3.09985294,17.6617647 C3.03544118,17.6617647 2.96867647,17.6808824 2.90691176,17.72 L1.57573529,18.7208824 C1.47397059,18.8126471 1.40573529,18.97 1.40573529,19.1135294 L1.41573529,20.0702941 C1.33985294,19.9808824 1.27073529,19.8867647 1.20132353,19.78 C1.04573529,19.5238235 0.956617647,19.1970588 0.956617647,18.8829412 C0.956617647,18.5382353 1.05779412,18.1967647 1.24691176,17.8982353 C1.48367647,17.5685294 1.79308824,17.3117647 2.14014706,17.1567647 C2.28602941,17.0952941 2.36632353,16.9067647 2.37985294,16.7514706 L2.37985294,4.77588235 C2.36573529,4.58176471 2.26691176,4.41882353 2.12955882,4.36117647 C1.77338235,4.20205882 1.46514706,3.93970588 1.25926471,3.61941176 C1.05779412,3.33558824 0.957205882,2.99588235 0.968676471,2.63441176 C0.968676471,2.30705882 1.05338235,1.99705882 1.21632353,1.73235294 C1.26632353,1.63294118 1.32779412,1.54 1.40779412,1.44352941 L1.41808824,2.42882353 C1.40455882,2.58382353 1.47985294,2.73735294 1.60544118,2.81588235 L2.91397059,3.79294118 C3.02191176,3.89058824 3.19897059,3.88382353 3.31308824,3.78058824 L4.55573529,2.79823529 C4.64544118,2.72264706 4.70338235,2.58 4.70338235,2.43588235 L4.71367647,1.44352941 C4.79367647,1.54029412 4.85573529,1.63470588 4.90808824,1.73764706 C5.06779412,1.99705882 5.1525,2.30705882 5.1525,2.63676471 C5.16397059,2.99588235 5.06338235,3.33558824 4.86044118,3.62176471 C4.64720588,3.95029412 4.35485294,4.19882353 3.98867647,4.36294118 C3.83838235,4.43882353 3.74132353,4.60264706 3.74132353,4.78117647 L3.74161765,16.7567647 C3.75661765,16.9635294 3.86426471,17.1220588 4.00102941,17.1547059 C4.35397059,17.3326471 4.64779412,17.5826471 4.87161765,17.8947059 C5.05808824,18.1917647 5.16485294,18.5517647 5.16485294,18.8829412 C5.16485294,19.1964706 5.07573529,19.5229412 4.92044118,19.7791176 M4.4725,16.4632353 L4.4725,5.06941176 C4.86279412,4.84647059 5.19455882,4.53911765 5.43426471,4.17617647 C5.7325,3.70264706 5.88338235,3.18382353 5.88338235,2.63617647 C5.89485294,2.16088235 5.76897059,1.68382353 5.50808824,1.21647059 C5.25132353,0.790588235 4.90985294,0.447647059 4.52308824,0.226470588 C4.46867647,0.191764706 4.41838235,0.168823529 4.35014706,0.168823529 C4.25661765,0.168823529 4.16779412,0.208529412 4.09985294,0.280588235 C4.01897059,0.366764706 3.97691176,0.488529412 3.98455882,0.610294118 L3.98455882,2.19970588 L3.09632353,2.89470588 L2.14838235,2.18352941 L2.13661765,0.618529412 C2.15102941,0.549705882 2.12897059,0.485294118 2.10720588,0.43 C2.06102941,0.313529412 1.9825,0.229117647 1.88602941,0.191470588 C1.79985294,0.158235294 1.70691176,0.163529412 1.61014706,0.210882353 C1.2025,0.467941176 0.857794118,0.815294118 0.612205882,1.21852941 C0.352205882,1.68382353 0.226323529,2.16088235 0.237794118,2.63441176 C0.237794118,3.18352941 0.388970588,3.70264706 0.687794118,4.17764706 C0.926911765,4.53911765 1.25838235,4.84647059 1.64897059,5.06941176 L1.64897059,16.4632353 C1.25838235,16.6858824 0.926911765,16.9932353 0.688382353,17.3544118 C0.389852941,17.7961765 0.225735294,18.3391176 0.225735294,18.8847059 C0.2375,19.3858824 0.366911765,19.8744118 0.601323529,20.3008824 C0.851617647,20.7108824 1.20514706,21.0591176 1.63485294,21.3126471 C1.67279412,21.3288235 1.72044118,21.3485294 1.78308824,21.3485294 C1.97014706,21.3485294 2.13397059,21.1523529 2.14867647,20.9061765 L2.13691176,19.3332353 L3.09544118,18.6082353 L3.98426471,19.3317647 L3.9725,20.9067647 C3.9725,20.9776471 3.98661765,21.0317647 4.00191176,21.0870588 C4.05161765,21.2123529 4.14132353,21.3044118 4.2475,21.3391176 C4.27779412,21.3488235 4.30867647,21.3538235 4.33955882,21.3538235 C4.39455882,21.3538235 4.44867647,21.3382353 4.49720588,21.3073529 C4.91632353,21.0591176 5.26985294,20.7108824 5.52161765,20.2982353 C5.75426471,19.8747059 5.88367647,19.3861765 5.89573529,18.8829412 C5.89573529,18.3391176 5.73132353,17.7961765 5.43308824,17.3544118 C5.19426471,16.9929412 4.8625,16.6855882 4.4725,16.4632353" id="Fill-32" fill="#231F20" mask="url(#mask-4)"></path>
            </g>
        </g>
    </g>
</svg>