<?xml version="1.0" encoding="UTF-8"?>
<svg width="62px" height="60px" viewBox="0 0 62 60" version="1.1" xmlns="http://www.w3.org/2000/svg" xmlns:xlink="http://www.w3.org/1999/xlink">
    <!-- Generator: Sketch 56.3 (81716) - https://sketch.com -->
    <title>partnership</title>
    <desc>Created with Sketch.</desc>
    <defs>
        <polygon id="path-1" points="0.17748 0.497340615 51.42228 0.497340615 51.42228 29.4 0.17748 29.4"></polygon>
    </defs>
    <g id="partnership" stroke="none" stroke-width="1" fill="none" fill-rule="evenodd">
        <g id="Group-11" transform="translate(1.000000, 4.000000)">
            <polygon id="Fill-1" fill="#00BBA6" points="51.8556 22.71342 37.8942 8.48382 45.1026 1.27602 59.3052 15.40782"></polygon>
            <polygon id="Fill-2" fill="#00BBA6" points="8.22726 22.71342 22.18806 8.48382 14.98026 1.27602 0.77766 15.40782"></polygon>
            <g id="Group-10" transform="translate(0.000000, 0.245280)">
                <path d="M51.99624,21.72312 L38.74884,8.24952 L45.24624,1.86192 L58.49364,15.33492 L51.99624,21.72312 Z M45.16404,28.96152 L43.93284,27.85632 L33.69204,18.43032 C33.51744,18.27012 33.26544,18.22272 33.04464,18.30792 L29.29584,19.75692 C29.21424,19.78752 29.14164,19.83552 29.07984,19.89732 L26.60124,22.36752 C26.21124,22.75632 25.68504,22.96092 25.14324,22.95852 C24.59304,22.95012 24.08124,22.72572 23.70204,22.32612 C22.94664,21.52992 22.95864,20.29332 23.73024,19.51152 L28.91124,14.25732 L38.88924,10.17312 L50.38524,21.86532 L45.16404,28.96152 Z M45.26244,33.65832 C44.87364,34.09152 44.33904,34.34772 43.75764,34.37892 C43.23204,34.40772 42.73044,34.24092 42.32604,33.93072 C42.29544,33.90072 42.27324,33.86592 42.24144,33.83772 L37.82304,29.67912 C37.69464,29.55852 37.52904,29.50452 37.36584,29.51232 C37.19424,29.50752 37.02144,29.56692 36.89364,29.70192 C36.65724,29.95332 36.66984,30.34812 36.92064,30.58452 L41.34984,34.75272 C41.39244,34.79112 41.44104,34.81752 41.48424,34.85292 C42.28764,35.66652 42.33564,36.97392 41.56224,37.83552 C40.79664,38.68812 39.51024,38.78592 38.62644,38.10792 C38.59584,38.07852 38.57244,38.04312 38.54124,38.01492 L34.12284,33.85632 C33.99444,33.73572 33.82884,33.68172 33.66624,33.68892 C33.49404,33.68412 33.32124,33.74412 33.19344,33.87912 C32.95704,34.13052 32.96904,34.52532 33.21984,34.76172 L37.64904,38.92992 C37.69224,38.96832 37.74084,38.99472 37.78464,39.03072 C38.58684,39.84432 38.63544,41.15112 37.86204,42.01272 C37.47264,42.44592 36.93804,42.70212 36.35724,42.73332 C35.77524,42.76932 35.21604,42.56712 34.78284,42.17832 L34.36224,41.80092 C34.47924,41.40672 34.53264,40.99272 34.50144,40.57092 C34.43364,39.65772 34.01424,38.82552 33.32004,38.22732 C32.62584,37.62972 31.74144,37.33812 30.82764,37.40592 C30.64824,37.41912 30.47604,37.45692 30.30444,37.49652 C30.51324,36.33972 30.13644,35.10672 29.18364,34.28592 C28.49004,33.68772 27.60204,33.39552 26.69124,33.46392 C26.51304,33.47772 26.34144,33.51492 26.17104,33.55452 C26.22204,33.27132 26.25084,32.98212 26.22924,32.68752 C26.16084,31.77372 25.74144,30.94212 25.04784,30.34452 C24.18804,29.60352 23.06424,29.37552 22.03464,29.61372 C22.08564,29.32992 22.11504,29.04132 22.09284,28.74612 C22.02504,27.83292 21.60564,27.00072 20.91144,26.40252 C20.21784,25.80492 19.33164,25.51092 18.41904,25.58172 C17.50584,25.64952 16.67364,26.06892 16.07544,26.76252 L15.00984,27.99912 L10.63824,20.82372 L20.58924,10.70292 L27.49104,13.92012 L22.84164,18.63492 C21.59484,19.89852 21.57564,21.89772 22.79664,23.18532 C23.40864,23.83092 24.23604,24.19332 25.12584,24.20592 C25.99464,24.22572 26.85264,23.87952 27.48264,23.25132 L29.86824,20.87352 L33.13224,19.61172 L42.52224,28.25472 C42.53364,28.26672 42.53844,28.28172 42.55104,28.29312 L43.08804,28.77492 L44.81964,30.36852 C44.86104,30.40692 44.91144,30.43152 44.96124,30.45672 L45.09744,30.57912 C45.53064,30.96852 45.78684,31.50312 45.81804,32.08452 C45.84924,32.66592 45.65184,33.22512 45.26244,33.65832 L45.26244,33.65832 Z M33.80424,46.09392 C33.00564,46.98252 31.63584,47.05992 30.74184,46.27092 C30.99744,46.10172 31.23684,45.89892 31.44684,45.65592 L33.68004,43.06272 C33.68064,43.06212 33.68064,43.06152 33.68124,43.06092 C34.53144,43.86972 34.59384,45.21492 33.80424,46.09392 L33.80424,46.09392 Z M27.42564,45.06972 C26.51484,44.28552 26.41224,42.90552 27.19644,41.99472 L29.43024,39.40152 C29.81004,38.96052 30.33924,38.69412 30.92004,38.65092 C30.97584,38.64672 31.03044,38.64492 31.08504,38.64492 C31.60704,38.64492 32.10624,38.82912 32.50524,39.17292 C32.94624,39.55332 33.21324,40.08252 33.25704,40.66332 C33.29964,41.24412 33.11424,41.80752 32.73384,42.24852 L30.50124,44.84052 C29.71644,45.75252 28.33584,45.85452 27.42564,45.06972 L27.42564,45.06972 Z M23.28984,41.12832 C22.84824,40.74792 22.58124,40.21872 22.53804,39.63792 C22.49484,39.05712 22.68024,38.49432 23.06064,38.05332 L25.29384,35.46072 C25.67364,35.01972 26.20284,34.75212 26.78364,34.70952 C26.83944,34.70472 26.89404,34.70292 26.94924,34.70292 C27.47064,34.70292 27.96984,34.88772 28.36884,35.23212 C29.28024,36.01632 29.38284,37.39572 28.59804,38.30652 L26.36424,40.89972 C25.57944,41.81052 24.20004,41.91252 23.28984,41.12832 L23.28984,41.12832 Z M19.15344,37.18632 C18.24264,36.40212 18.14004,35.02272 18.92424,34.11132 L21.15804,31.51932 C21.58824,31.01892 22.19784,30.76272 22.81104,30.76272 C23.31504,30.76272 23.82204,30.93612 24.23304,31.29012 C25.14384,32.07432 25.24644,33.45432 24.46164,34.36512 L22.22844,36.95772 C21.44424,37.86852 20.06364,37.97112 19.15344,37.18632 L19.15344,37.18632 Z M15.01764,33.24552 C14.10624,32.46072 14.00364,31.08072 14.78784,30.16992 L17.02164,27.57732 C17.45244,27.07752 18.06144,26.82132 18.67464,26.82132 C19.17924,26.82132 19.68504,26.99472 20.09664,27.34872 C20.53764,27.72852 20.80464,28.25772 20.84784,28.83852 C20.89104,29.41932 20.70564,29.98212 20.32524,30.42312 L18.09204,33.01572 C17.30724,33.92772 15.92784,34.03032 15.01764,33.24552 L15.01764,33.24552 Z M8.00364,21.72312 L1.50684,15.33492 L14.75424,1.86192 L21.25104,8.24952 L8.00364,21.72312 Z M59.82084,14.90472 L45.69804,0.54132 C45.45684,0.29532 45.06144,0.29232 44.81544,0.53472 L37.42884,7.79772 C37.31064,7.91352 37.24404,8.07192 37.24224,8.23752 C37.24044,8.40252 37.30524,8.56212 37.42104,8.68032 L37.94364,9.21132 L28.57284,13.04712 L21.51804,9.75912 L22.57884,8.68032 C22.69464,8.56212 22.75944,8.40252 22.75824,8.23752 C22.75644,8.07192 22.68924,7.91352 22.57104,7.79772 L15.18444,0.53472 C14.93784,0.29232 14.54304,0.29532 14.30184,0.54132 L0.17904,14.90472 C0.06324,15.02292 -0.00156,15.18192 0.000203474925,15.34752 C0.00144,15.51252 0.06864,15.67152 0.18624,15.78732 L7.57344,23.05032 C7.69524,23.16972 7.85364,23.22972 8.01084,23.22972 C8.17284,23.22972 8.33364,23.16732 8.45604,23.04312 L9.73524,21.74232 L14.04624,28.81632 C14.08224,28.87512 14.12784,28.92312 14.17824,28.96512 L13.84224,29.35512 C12.60864,30.78732 12.77004,32.95692 14.20224,34.19112 C14.84844,34.74792 15.64524,35.02032 16.43784,35.02032 C16.69944,35.02032 16.96044,34.98792 17.21664,34.92852 C17.01024,36.08352 17.38704,37.31292 18.33864,38.13252 C18.98484,38.68932 19.78104,38.96172 20.57364,38.96172 C20.83464,38.96172 21.09504,38.92992 21.34944,38.87112 C21.29964,39.15252 21.27144,39.43812 21.29364,39.73092 C21.36084,40.64412 21.78084,41.47632 22.47504,42.07392 C23.12124,42.63072 23.91744,42.90312 24.71004,42.90312 C24.97224,42.90312 25.23324,42.87072 25.48884,42.81132 C25.28304,43.96632 25.65984,45.19632 26.61084,46.01592 C27.25764,46.57272 28.05324,46.84452 28.84644,46.84452 C29.04744,46.84452 29.24784,46.82292 29.44644,46.78812 L29.89164,47.18772 C30.54504,47.77452 31.36404,48.06372 32.18064,48.06372 C33.12084,48.06372 34.05744,47.68032 34.73304,46.92732 C35.49864,46.07472 35.74944,44.94192 35.52144,43.89972 C35.75784,43.95012 35.99724,43.98312 36.23784,43.98312 C37.17804,43.98312 38.11464,43.59972 38.79084,42.84672 C39.40284,42.16512 39.71244,41.28612 39.66324,40.37232 C39.65244,40.16772 39.61764,39.96852 39.57204,39.77292 C39.69444,39.78612 39.81564,39.80592 39.93804,39.80592 C40.87884,39.80592 41.81544,39.42252 42.49164,38.66952 C43.26864,37.80372 43.51884,36.64932 43.27404,35.59632 C43.39584,35.60952 43.51704,35.62872 43.63884,35.62872 C44.57904,35.62872 45.51564,35.24532 46.19184,34.49232 C46.80384,33.81072 47.11344,32.93172 47.06424,32.01732 C47.01924,31.17972 46.66524,30.41232 46.08444,29.81772 L51.27204,22.76712 L51.54384,23.04312 C51.66624,23.16732 51.82704,23.22972 51.98904,23.22972 C52.14624,23.22972 52.30464,23.16972 52.42644,23.05032 L59.81364,15.78732 C59.93124,15.67152 59.99844,15.51252 59.9996765,15.34752 C60.00144,15.18192 59.93664,15.02292 59.82084,14.90472 L59.82084,14.90472 Z" id="Fill-3" fill="#231F20"></path>
                <g id="Group-7" transform="translate(4.200000, 22.200000)">
                    <mask id="mask-2" fill="white">
                        <use xlink:href="#path-1"></use>
                    </mask>
                    <g id="Clip-6"></g>
                    <path d="M50.79828,3.1533 C50.45328,3.1533 50.17368,3.4329 50.17368,3.7779 C50.17368,17.2173 39.23988,28.1517 25.79988,28.1517 C12.35988,28.1517 1.42608,17.2173 1.42608,3.7779 C1.42608,2.9133 1.47168,2.0415 1.56168,1.1871 C1.59768,0.8439 1.34928,0.5367 1.00668,0.5007 C0.65928,0.4653 0.35628,0.7137 0.32028,1.0557 C0.22548,1.9539 0.17748,2.8695 0.17748,3.7779 C0.17748,17.9055 11.67168,29.4003 25.79988,29.4003 C39.92808,29.4003 51.42228,17.9055 51.42228,3.7779 C51.42228,3.4329 51.14268,3.1533 50.79828,3.1533" id="Fill-5" fill="#231F20" mask="url(#mask-2)"></path>
                </g>
                <path d="M21.50316,3.12486 C24.21756,2.11506 27.07656,1.60326 29.99976,1.60326 C32.93856,1.60326 35.81196,2.12106 38.53896,3.14106 C38.61156,3.16806 38.68536,3.18126 38.75796,3.18126 C39.01056,3.18126 39.24876,3.02586 39.34236,2.77506 C39.46296,2.45226 39.29976,2.09286 38.97696,1.97226 C36.10896,0.89946 33.08856,0.35526 29.99976,0.35526 C26.92776,0.35526 23.92236,0.89346 21.06816,1.95486 C20.74476,2.07546 20.58036,2.43486 20.70036,2.75766 C20.82036,3.08046 21.18036,3.24606 21.50316,3.12486" id="Fill-8" fill="#231F20"></path>
            </g>
        </g>
    </g>
</svg>