<?xml version="1.0" encoding="UTF-8"?>
<svg width="300px" height="51px" viewBox="0 0 300 51" version="1.1" xmlns="http://www.w3.org/2000/svg" xmlns:xlink="http://www.w3.org/1999/xlink">
    <!-- Generator: Sketch 56.3 (81716) - https://sketch.com -->
    <title>sap-logo</title>
    <desc>Created with Sketch.</desc>
    <defs>
        <polygon id="path-1" points="0.00017037037 0.0208510638 62.8625778 0.0208510638 62.8625778 39.1488936 0.00017037037 39.1488936"></polygon>
        <polygon id="path-3" points="0.262412963 0.0208510638 69.18745 0.0208510638 69.18745 39.1486809 0.262412963 39.1486809"></polygon>
    </defs>
    <g id="sap-logo" stroke="none" stroke-width="1" fill="none" fill-rule="evenodd">
        <g id="Group" transform="translate(1.000000, 1.000000)">
            <g id="Group-3" transform="translate(0.000000, -0.000000)">
                <mask id="mask-2" fill="white">
                    <use xlink:href="#path-1"></use>
                </mask>
                <g id="Clip-2"></g>
                <path d="M20.5975222,19.3208085 L20.5975222,19.3208085 C18.3371333,17.0625106 15.5715963,15.9178298 12.3771519,15.9178298 L11.6266704,15.9178298 C10.4434481,15.9178298 9.4225037,15.4969787 8.59194815,14.666766 C7.76181852,13.8374043 7.34057778,12.8178298 7.34057778,11.6361277 C7.34057778,10.4548511 7.76181852,9.4352766 8.59237407,8.60506383 C9.42335556,7.77485106 10.4443,7.354 11.6266704,7.354 L41.2391704,7.354 L54.0514481,28.2378298 L62.8625778,28.2463404 L45.5146148,0.0208085106 L11.6266704,0.0208085106 C8.4318,0.0208085106 5.66583704,1.16548936 3.40587407,3.42378723 C1.14591111,5.68123404 0.00017037037,8.44421277 0.00017037037,11.6361277 C0.00017037037,14.827617 1.14591111,17.5910213 3.40587407,19.8488936 C5.66583704,22.106766 8.4318,23.2514468 11.6266704,23.2514468 L12.3771519,23.2514468 C13.5582444,23.2514468 14.5791889,23.6722979 15.4105963,24.5020851 C16.2415778,25.3331489 16.6628185,26.3527234 16.6628185,27.5335745 C16.6628185,28.7148511 16.2415778,29.7344255 15.4105963,30.5646383 C14.5800407,31.3944255 13.5595222,31.8152766 12.3771519,31.8152766 L0.723392593,31.8152766 L0.723392593,39.1488936 L12.3771519,39.1488936 C15.5715963,39.1488936 18.3375593,38.0042128 20.5975222,35.7463404 C22.8890037,33.4565532 24.0032259,30.7701702 24.0032259,27.5335745 C24.0032259,24.3416596 22.8574852,21.5786809 20.5975222,19.3208085" id="Fill-1" fill="#DF0022" mask="url(#mask-2)"></path>
            </g>
            <g id="Group-6" transform="translate(22.574074, -0.000000)">
                <mask id="mask-4" fill="white">
                    <use xlink:href="#path-3"></use>
                </mask>
                <g id="Clip-5"></g>
                <path d="M60.5956722,14.6669787 L60.5956722,14.6669787 C59.7646907,15.4971915 58.7437463,15.917617 57.5613759,15.917617 L51.3032463,15.917617 L51.3032463,7.35378723 L57.5613759,7.35378723 C58.7428944,7.35378723 59.7638389,7.77506383 60.5952463,8.60485106 C61.4262278,9.43591489 61.8474685,10.4559149 61.8474685,11.6363404 C61.8474685,12.816766 61.4262278,13.836766 60.5956722,14.6669787 M65.7817463,3.42357447 C63.5222093,1.1652766 60.7562463,0.0205957447 57.5613759,0.0205957447 L43.9628389,0.0205957447 L43.9628389,31.8154894 L13.0018574,31.8154894 L20.8546537,19.0908085 L16.6435241,12.1614468 L0.262412963,39.1486809 L51.3032463,39.1486809 L51.3032463,23.2516596 L57.5613759,23.2516596 C60.7562463,23.2516596 63.5222093,22.1065532 65.7817463,19.8491064 C68.0736537,17.5593191 69.18745,14.8729362 69.18745,11.6363404 C69.18745,8.44442553 68.0417093,5.68144681 65.7817463,3.42357447" id="Fill-4" fill="#0A3560" mask="url(#mask-4)"></path>
            </g>
            <polygon id="Fill-7" fill="#C0C1C3" points="48.9929389 28.241617 45.6281241 22.7360851 42.3127167 28.208"></polygon>
        </g>
        <g id="Group" transform="translate(86.000000, 26.000000)" fill="#000000">
            <path d="M7.12760417,2.65308067 C7.04996142,2.77719415 6.96832562,2.87005762 6.8829186,2.93233599 C6.79751157,2.99439273 6.68770255,3.0254211 6.55304784,3.0254211 C6.43392168,3.0254211 6.30570023,2.98796543 6.16860532,2.91283245 C6.03151042,2.8379211 5.87622492,2.75392287 5.70274884,2.66083777 C5.52927276,2.56775266 5.33139468,2.4835328 5.10889275,2.40862145 C4.88616898,2.33393174 4.63260995,2.29625443 4.34799383,2.29625443 C3.85618248,2.29625443 3.49015239,2.40086436 3.24945988,2.61052748 C3.00876736,2.81974734 2.88831019,3.10277039 2.88831019,3.45981826 C2.88831019,3.68743351 2.96062886,3.8762633 3.10570988,4.02586436 C3.25056906,4.17613032 3.44068287,4.30534131 3.67627315,4.41371897 C3.91186343,4.52253989 4.180951,4.62227394 4.48397955,4.71247784 C4.78656443,4.803125 5.0958044,4.9039672 5.41169946,5.01500443 C5.72737269,5.1262633 6.03683449,5.25680408 6.33941937,5.4068484 C6.64222608,5.55689273 6.91131366,5.74816046 7.14690394,5.98087323 C7.38249421,6.21336436 7.57260802,6.49660904 7.71768904,6.83038564 C7.86254823,7.1639406 7.93508873,7.56597961 7.93508873,8.03650266 C7.93508873,8.55866578 7.84435764,9.04758422 7.66333912,9.50237145 C7.48209877,9.95760195 7.21944444,10.3545434 6.87515432,10.6931959 C6.53108603,11.03207 6.10649113,11.2982491 5.60203511,11.4921764 C5.09713542,11.6861037 4.52391011,11.7829566 3.88213735,11.7829566 C3.53008295,11.7829566 3.17159529,11.7468307 2.80667438,11.6745789 C2.44175347,11.6021055 2.08858989,11.4999335 1.74696181,11.3680629 C1.40533372,11.236414 1.08433642,11.0797207 0.784191744,10.8988697 C0.483825231,10.7180186 0.222501929,10.5163342 8.5975671e-13,10.2938165 L0.776427469,9.06797429 C0.833217593,8.97488918 0.913522377,8.90019947 1.01711998,8.84324025 C1.12049576,8.78628103 1.23185764,8.75791223 1.3509838,8.75791223 C1.50626929,8.75791223 1.66266397,8.80711436 1.8206115,8.90529699 C1.97855903,9.00347961 2.15713735,9.11230053 2.35634645,9.23109486 C2.55555556,9.35011082 2.78471258,9.45871011 3.04359568,9.5566711 C3.30225694,9.65529699 3.60772569,9.70405585 3.95978009,9.70405585 C4.43584105,9.70405585 4.80608603,9.59944592 5.07007137,9.39000443 C5.33405671,9.18056294 5.46604938,8.84833777 5.46604938,8.39310727 C5.46604938,8.12958777 5.39350887,7.91504876 5.24864969,7.74949025 C5.10356867,7.58393174 4.91345486,7.44696365 4.67808642,7.33836436 C4.44249614,7.22954344 4.17451775,7.13424202 3.87437307,7.05135195 C3.57400656,6.96868351 3.26609761,6.87692819 2.95042438,6.77608599 C2.63475116,6.67502216 2.32662037,6.55090869 2.02647569,6.40352394 C1.72610918,6.25613918 1.45835262,6.06221188 1.22276235,5.82174202 C0.987172068,5.58127216 0.797058256,5.28140514 0.652199074,4.92191933 C0.507118056,4.56265514 0.434799383,4.1191711 0.434799383,3.5914672 C0.434799383,3.16770833 0.520206404,2.75392287 0.691020448,2.35055408 C0.861834491,1.94696365 1.11273148,1.58769947 1.44415509,1.27231826 C1.77535687,0.956937057 2.18176119,0.704720745 2.66314622,0.515890957 C3.14453125,0.327282801 3.69579475,0.232867908 4.31693673,0.232867908 C4.66366705,0.232867908 5.00152392,0.259906915 5.33006366,0.31420656 C5.65882523,0.368506206 5.97072724,0.448958333 6.26576968,0.554676418 C6.56081211,0.660837766 6.83655478,0.787389184 7.09255401,0.934773936 C7.34899691,1.08215869 7.5779321,1.24904699 7.77980324,1.4352172 L7.12760417,2.65308067 Z" id="Fill-9"></path>
            <path d="M11.4910156,3.61491578 L11.4910156,8.71908245 C11.4910156,9.11735372 11.5815249,9.42497784 11.7627652,9.64217642 C11.9440056,9.859375 12.2104311,9.96797429 12.5624855,9.96797429 C12.8264709,9.96797429 13.0735966,9.91367465 13.3038628,9.80507535 C13.5341291,9.69625443 13.7581838,9.54399379 13.9755835,9.34740691 L13.9755835,3.61491578 L16.3825087,3.61491578 L16.3825087,11.6590204 L14.8917679,11.6590204 C14.5916233,11.6590204 14.3948544,11.5244902 14.3016831,11.2556516 L14.1541618,10.7902261 C13.9988764,10.9402704 13.8384886,11.0759087 13.6727768,11.1975842 C13.507065,11.3190381 13.3298177,11.4225399 13.1408131,11.5076463 C12.9518084,11.5929743 12.7488281,11.6603502 12.5314284,11.7093307 C12.3140287,11.7585328 12.0757764,11.7829122 11.8171152,11.7829122 C11.3769917,11.7829122 10.987447,11.7068927 10.6487027,11.5541888 C10.3095149,11.4019282 10.0235677,11.1884973 9.79063947,10.9143395 C9.55771123,10.6401817 9.38157311,10.3170434 9.26266879,9.94470301 C9.14354263,9.57236259 9.08409047,9.16389628 9.08409047,8.71908245 L9.08409047,3.61491578 L11.4910156,3.61491578 Z" id="Fill-11"></path>
            <path d="M18.2457571,11.6589982 L18.2457571,3.61489362 L19.6743837,3.61489362 C19.793288,3.61489362 19.8928926,3.62531028 19.9731973,3.64592199 C20.0535021,3.66653369 20.1207186,3.69911348 20.1750685,3.74277482 C20.2294184,3.78687943 20.2709018,3.84494681 20.2992969,3.91742021 C20.3276919,3.98989362 20.3523158,4.07788121 20.3731684,4.18116135 L20.5051611,4.93359929 C20.8002035,4.47859043 21.1314053,4.11910461 21.4989882,3.85536348 C21.8663493,3.59162234 22.2676514,3.45975177 22.7024508,3.45975177 C23.0698119,3.45975177 23.3648544,3.54773936 23.5875781,3.72349291 L23.2770071,5.49210993 C23.2561545,5.60070922 23.2148929,5.67717199 23.1527787,5.72083333 C23.0906645,5.76493794 23.0076977,5.78687943 22.904322,5.78687943 C22.8162529,5.78687943 22.7126553,5.77513298 22.593751,5.75208333 C22.4746248,5.72859043 22.3244416,5.7170656 22.143423,5.7170656 C21.5118547,5.7170656 21.0149412,6.05328014 20.6526823,6.72548759 L20.6526823,11.6589982 L18.2457571,11.6589982 Z" id="Fill-13"></path>
            <path d="M27.5005951,7.21425089 C27.8992351,7.21425089 28.1878443,7.11473848 28.3664226,6.91549202 C28.545001,6.7164672 28.6341792,6.45915337 28.6341792,6.14377216 C28.6341792,5.81775266 28.545001,5.56199025 28.3664226,5.37582004 C28.1878443,5.18942819 27.8992351,5.09634309 27.5005951,5.09634309 C27.1019551,5.09634309 26.8135677,5.18942819 26.6349894,5.37582004 C26.4564111,5.56199025 26.367011,5.81775266 26.367011,6.14377216 C26.367011,6.29891401 26.3889728,6.44120124 26.4331182,6.57041223 C26.4770419,6.69962323 26.5455893,6.81221188 26.6387606,6.90773493 C26.7319319,7.00347961 26.849727,7.07839096 26.992146,7.1326906 C27.1343432,7.18699025 27.3038262,7.21425089 27.5005951,7.21425089 M29.2863783,11.9363254 C29.2863783,11.8040115 29.2462259,11.6985151 29.1661429,11.6193927 C29.0858382,11.5402704 28.9771383,11.4766622 28.8400434,11.4292332 C28.7027267,11.3818041 28.5423389,11.3472296 28.3586584,11.3261746 C28.174756,11.3051197 27.9766561,11.2944814 27.7645804,11.2944814 L27.1046171,11.2944814 C26.8767911,11.2944814 26.6516271,11.2725399 26.4291252,11.2284353 C26.2789419,11.3321587 26.1560446,11.4476285 26.0604331,11.5746232 C25.9645997,11.7016179 25.9166831,11.8454566 25.9166831,12.0061392 C25.9166831,12.1202793 25.9413069,12.2240027 25.9905546,12.3170878 C26.0395804,12.4103945 26.1263185,12.4908466 26.2505469,12.5582225 C26.3747753,12.6255984 26.5418181,12.6787899 26.7514535,12.717797 C26.9610889,12.7565824 27.2261834,12.776086 27.5471807,12.776086 C27.8939111,12.776086 28.178749,12.7548094 28.401251,12.7126995 C28.6237529,12.6703679 28.801222,12.6120789 28.9332147,12.5382757 C29.0652074,12.4642509 29.1570476,12.37582 29.2087355,12.2727615 C29.2604234,12.169703 29.2863783,12.0577793 29.2863783,11.9363254 M27.5005951,3.47533245 C27.8422232,3.47533245 28.1645515,3.50879876 28.4673582,3.57617465 C28.7701649,3.64355053 29.050788,3.73885195 29.3096711,3.86318706 L31.7398891,3.86318706 L31.7398891,4.73973848 C31.7398891,4.87404699 31.7023987,4.98020833 31.627418,5.05777926 C31.5522155,5.13535018 31.4242159,5.19496897 31.2429755,5.23597074 L30.6528906,5.36806294 C30.7254311,5.60077571 30.7615905,5.84124557 30.7615905,6.08947252 C30.7615905,6.49284131 30.6775145,6.85476507 30.5093625,7.17524379 C30.3409886,7.49594415 30.1107224,7.76877216 29.818342,7.99394947 C29.5257398,8.21868351 29.1803405,8.39199911 28.7817004,8.51345301 C28.3830604,8.63512855 27.9560253,8.6958555 27.5005951,8.6958555 C27.2470361,8.6958555 27.0087838,8.68011968 26.7862818,8.64931294 C26.6103655,8.75370124 26.5222965,8.87360372 26.5222965,9.00946365 C26.5222965,9.14532358 26.593506,9.24306294 26.735925,9.303125 C26.8781221,9.36318706 27.0657957,9.40507535 27.298724,9.42834663 C27.5316522,9.45206117 27.7982996,9.46358599 28.0984443,9.46358599 C28.3985889,9.46358599 28.7040577,9.47799202 29.0146287,9.50658245 C29.3251997,9.53517287 29.6306684,9.58304521 29.9308131,9.6504211 C30.2309578,9.71801862 30.4976051,9.82683954 30.7305334,9.97732713 C30.9634616,10.1278147 31.1511352,10.3288342 31.2935542,10.5803856 C31.4357514,10.8319371 31.5069608,11.1524158 31.5069608,11.5413785 C31.5069608,11.9046321 31.4188918,12.2599069 31.2429755,12.6074246 C31.0670592,12.9549424 30.8081761,13.263453 30.466548,13.5333998 C30.1249199,13.803125 29.7056491,14.0196587 29.2087355,14.1832225 C28.711822,14.3465647 28.1423679,14.4283466 27.5005951,14.4283466 C26.8690268,14.4283466 26.3244184,14.3685062 25.8663262,14.2497119 C25.408234,14.1306959 25.0277845,13.9740027 24.7249778,13.7798537 C24.4221711,13.5857048 24.1981163,13.3616356 24.0532571,13.1083112 C23.908398,12.8543218 23.8358574,12.5905807 23.8358574,12.3162012 C23.8358574,11.9587101 23.9445573,11.6572917 24.161957,11.411281 C24.3793567,11.165492 24.6768393,10.9726729 25.0548486,10.8328236 C24.8736082,10.7140293 24.728749,10.5617686 24.6200492,10.3760417 C24.5113493,10.1900931 24.4569994,9.95516401 24.4569994,9.6710328 C24.4569994,9.55246011 24.4776302,9.42701684 24.5191136,9.29558954 C24.560597,9.1639406 24.6251514,9.0360594 24.7132205,8.91194592 C24.8012895,8.78827571 24.9124296,8.66925975 25.0470843,8.55578457 C25.181739,8.44208777 25.3421267,8.3414672 25.5284693,8.25347961 C25.1091985,8.03140514 24.7793277,7.73641401 24.5386352,7.3691711 C24.2977209,7.00214982 24.1774855,6.57550975 24.1774855,6.08947252 C24.1774855,5.68588209 24.2628926,5.32285018 24.4337066,4.99949025 C24.6045206,4.67635195 24.8385581,4.40219415 25.1364844,4.17723848 C25.433967,3.9522828 25.7846904,3.77918883 26.1884327,3.6575133 C26.592175,3.5360594 27.0296364,3.47533245 27.5005951,3.47533245" id="Fill-15"></path>
            <path d="M32.8578115,11.6589096 L35.2647367,11.6589096 L35.2647367,3.61480496 L32.8578115,3.61480496 L32.8578115,11.6589096 Z M35.5442506,1.41179078 C35.5442506,1.60328014 35.5054292,1.78302305 35.4277865,1.9510195 C35.3501437,2.11901596 35.2441059,2.26662234 35.1094512,2.39317376 C34.9747965,2.51994681 34.8184018,2.62078901 34.6398235,2.69570035 C34.4612452,2.77083333 34.2709095,2.80828901 34.0690384,2.80828901 C33.8722695,2.80828901 33.6885889,2.77083333 33.5177749,2.69570035 C33.3469608,2.62078901 33.1954466,2.51994681 33.0636757,2.39317376 C32.9316831,2.26662234 32.8280855,2.11901596 32.7531047,1.9510195 C32.6779022,1.78302305 32.6404118,1.60328014 32.6404118,1.41179078 C32.6404118,1.21542553 32.6779022,1.03169326 32.7531047,0.861258865 C32.8280855,0.690381206 32.9316831,0.540558511 33.0636757,0.411125887 C33.1954466,0.281914894 33.3469608,0.181072695 33.5177749,0.108599291 C33.6885889,0.0363475177 33.8722695,3.99680289e-14 34.0690384,3.99680289e-14 C34.2709095,3.99680289e-14 34.4612452,0.0363475177 34.6398235,0.108599291 C34.8184018,0.181072695 34.9747965,0.281914894 35.1094512,0.411125887 C35.2441059,0.540558511 35.3501437,0.690381206 35.4277865,0.861258865 C35.5054292,1.03169326 35.5442506,1.21542553 35.5442506,1.41179078 L35.5442506,1.41179078 Z" id="Fill-17"></path>
            <path d="M43.0133275,5.52324911 C42.940787,5.61101507 42.8709086,5.68105053 42.8036921,5.73246897 C42.7362539,5.78433067 42.6406424,5.81026152 42.516414,5.81026152 C42.3972878,5.81026152 42.289919,5.78189273 42.1943075,5.72471188 C42.0982523,5.66797429 41.9911053,5.60458777 41.8719792,5.53477394 C41.752853,5.46496011 41.6130961,5.40157358 41.4527083,5.34461436 C41.2923206,5.28787677 41.0928897,5.25950798 40.8548592,5.25950798 C40.5598167,5.25950798 40.3049267,5.31380762 40.090189,5.42240691 C39.8752296,5.53078457 39.6979823,5.68592642 39.5582253,5.88783245 C39.4184684,6.08951684 39.3148708,6.33641401 39.2476543,6.62852394 C39.1804379,6.9208555 39.1467187,7.2504211 39.1467187,7.61744238 C39.1467187,8.38827571 39.295571,8.98025266 39.5932755,9.39403812 C39.8907581,9.80782358 40.3009336,10.0146055 40.8238021,10.0146055 C41.103316,10.0146055 41.3247087,9.97958777 41.4877585,9.90977394 C41.6505864,9.84018174 41.7890123,9.76238918 41.9030363,9.67706117 C42.0168383,9.59173316 42.1215451,9.51305408 42.2176003,9.44058067 C42.3132118,9.36810727 42.433669,9.33198138 42.5785282,9.33198138 C42.769973,9.33198138 42.915054,9.40179521 43.0133275,9.54142287 L43.7121123,10.4024601 C43.4636555,10.6868129 43.2023322,10.9181959 42.9279205,11.096609 C42.6535089,11.2750222 42.3728858,11.4146498 42.0853858,11.515492 C41.7981076,11.6163342 41.5097203,11.686148 41.2197801,11.7249335 C40.9298399,11.763719 40.647664,11.7830009 40.3734742,11.7830009 C39.8816628,11.7830009 39.4120351,11.6899158 38.9643692,11.5037456 C38.5164815,11.317797 38.1231655,11.0476285 37.7841995,10.6932402 C37.4450116,10.3390736 37.175924,9.90334663 36.9767149,9.38628103 C36.777284,8.86921543 36.6776794,8.27967642 36.6776794,7.61744238 C36.6776794,7.03854167 36.7644174,6.49665337 36.9378935,5.99244238 C37.1111478,5.48823138 37.3673688,5.05117465 37.7065567,4.68149379 C38.0453009,4.31181294 38.4647936,4.0210328 38.9643692,3.80893174 C39.463723,3.59683067 40.0420505,3.49066933 40.6995737,3.49066933 C41.331142,3.49066933 41.8848457,3.59151152 42.3611285,3.79319592 C42.8374113,3.99488032 43.2668866,4.28987145 43.6499981,4.67772606 L43.0133275,5.52324911 Z" id="Fill-19"></path>
            <path d="M47.547553,10.1928635 C47.858124,10.1928635 48.1298736,10.1385638 48.3628019,10.0301862 C48.5957301,9.92136525 48.8313204,9.7456117 49.0693509,9.50248227 L49.0693509,8.40097518 C48.5879659,8.40097518 48.1919878,8.43244681 47.8814169,8.49494681 C47.5708459,8.55744681 47.3250511,8.63590426 47.1438108,8.72965426 C46.9625704,8.82362589 46.8372328,8.93067376 46.7673544,9.05057624 C46.6972541,9.17070035 46.6624257,9.3010195 46.6624257,9.44153369 C46.6624257,9.71812943 46.7374064,9.9125 46.8875897,10.0246454 C47.037773,10.1370124 47.2576128,10.1928635 47.547553,10.1928635 L47.547553,10.1928635 Z M50.3116348,11.6589539 C50.0838088,11.6589539 49.9118856,11.6281472 49.7954215,11.5658688 C49.6789574,11.5038121 49.581793,11.3746011 49.5041503,11.1780142 L49.3333362,10.7358599 C49.1314651,10.9067376 48.9373582,11.0565603 48.7510156,11.1857713 C48.564673,11.3149823 48.3718972,11.425133 48.1726881,11.5155585 C47.9732571,11.605984 47.7611815,11.6733599 47.5360176,11.7172429 C47.3108536,11.7611259 47.0610658,11.7830674 46.7866541,11.7830674 C46.4190712,11.7830674 46.0852074,11.735195 45.7850627,11.6390071 C45.484918,11.5432624 45.230028,11.4018617 45.0203926,11.2150266 C44.8107571,11.0284131 44.6488166,10.7961436 44.5350145,10.5184397 C44.4212124,10.2409574 44.3642004,9.92047872 44.3642004,9.55744681 C44.3642004,9.27220745 44.4367409,8.97876773 44.5816001,8.67801418 C44.7264593,8.37726064 44.9775781,8.10332447 45.3347348,7.85687057 C45.6918914,7.6106383 46.1732764,7.40429965 46.7788899,7.23829787 C47.3845033,7.0722961 48.1480642,6.9891844 49.0693509,6.9891844 L49.0693509,6.6447695 C49.0693509,6.17003546 48.9724084,5.82672872 48.7783015,5.61529255 C48.5841946,5.40407801 48.308452,5.2981383 47.9512953,5.2981383 C47.6666792,5.2981383 47.433751,5.3293883 47.2525106,5.3912234 C47.0712703,5.45328014 46.9095515,5.5233156 46.7673544,5.60066489 C46.6249354,5.67823582 46.4865095,5.74804965 46.3518547,5.81032801 C46.2172,5.87216312 46.0568123,5.90341312 45.8704697,5.90341312 C45.7047579,5.90341312 45.5638918,5.86329787 45.4474277,5.78306738 C45.3309635,5.70283688 45.2389014,5.60332447 45.171685,5.48430851 L44.7368856,4.73187057 C45.2233729,4.30279255 45.7631009,3.98320035 46.3558478,3.7739805 C46.9483729,3.56453901 47.5837124,3.45970745 48.2618663,3.45970745 C48.7483536,3.45970745 49.187146,3.53882979 49.5780218,3.69640957 C49.9686757,3.85398936 50.3000993,4.07406915 50.571849,4.35576241 C50.8435986,4.6376773 51.051903,4.97234043 51.1967622,5.36019504 C51.3416213,5.74804965 51.4141618,6.17203014 51.4141618,6.63257979 L51.4141618,11.6589539 L50.3116348,11.6589539 Z" id="Fill-20"></path>
            <polygon id="Fill-21" points="53.1997676 11.6589096 55.6066927 11.6589096 55.6066927 0.0465425532 53.1997676 0.0465425532"></polygon>
            <path d="M63.8055228,7.33827571 L66.8957041,7.33827571 L65.8552913,4.24319592 C65.7880748,4.04660904 65.7091011,3.81522606 65.61837,3.54882535 C65.5278607,3.28264628 65.4386825,2.99430408 65.3506134,2.68402039 C65.2678684,2.99962323 65.1824614,3.29173316 65.0943924,3.56057181 C65.0063233,3.82963209 64.9235783,4.06234486 64.8459356,4.25871011 L63.8055228,7.33827571 Z M71.0728839,11.6589761 L69.0386439,11.6589761 C68.8108179,11.6589761 68.6233661,11.6060062 68.4758449,11.4998449 C68.3283237,11.3941268 68.2260571,11.2582668 68.1690451,11.0927083 L67.5013175,9.12240691 L63.1999093,9.12240691 L62.5321817,11.0927083 C62.480272,11.2376551 62.3795583,11.3681959 62.229375,11.4845523 C62.0791917,11.6006871 61.8955112,11.6589761 61.6781115,11.6589761 L59.628343,11.6589761 L64.0073939,0.35689273 L66.6938329,0.35689273 L71.0728839,11.6589761 Z" id="Fill-22"></path>
            <path d="M74.2407079,3.61491578 L74.2407079,8.71908245 C74.2407079,9.11735372 74.3312172,9.42497784 74.5124576,9.64217642 C74.6936979,9.859375 74.9601235,9.96797429 75.3121779,9.96797429 C75.5761632,9.96797429 75.823289,9.91367465 76.0535552,9.80507535 C76.2838214,9.69625443 76.5078762,9.54399379 76.7252758,9.34740691 L76.7252758,3.61491578 L79.132201,3.61491578 L79.132201,11.6590204 L77.6414603,11.6590204 C77.3413156,11.6590204 77.1445467,11.5244902 77.0513754,11.2556516 L76.9038542,10.7902261 C76.7485687,10.9402704 76.5881809,11.0759087 76.4224691,11.1975842 C76.2567573,11.3190381 76.07951,11.4225399 75.8905054,11.5076463 C75.7015008,11.5929743 75.4985204,11.6603502 75.2811208,11.7093307 C75.0637211,11.7585328 74.8254688,11.7829122 74.5668075,11.7829122 C74.126684,11.7829122 73.7371393,11.7068927 73.3983951,11.5541888 C73.0592072,11.4019282 72.77326,11.1884973 72.5403318,10.9143395 C72.3074035,10.6401817 72.1312654,10.3170434 72.0123611,9.94470301 C71.893235,9.57236259 71.8337828,9.16389628 71.8337828,8.71908245 L71.8337828,3.61491578 L74.2407079,3.61491578 Z" id="Fill-23"></path>
            <path d="M83.8216011,11.783023 C83.4384896,11.783023 83.1006327,11.7273936 82.8084742,11.6163564 C82.5158719,11.5050975 82.2698553,11.3475177 82.0706462,11.1431738 C81.8714371,10.9388298 81.7199228,10.6919326 81.6165471,10.4024823 C81.5129495,10.1128103 81.4612616,9.78967199 81.4612616,9.43284574 L81.4612616,5.27504433 L80.7780054,5.27504433 C80.653777,5.27504433 80.5477392,5.23492908 80.4596701,5.15469858 C80.3716011,5.07446809 80.3276775,4.95678191 80.3276775,4.80164007 L80.3276775,3.86325355 L81.6087828,3.6150266 L82.0824035,1.65226064 C82.1445177,1.40425532 82.320434,1.27992021 82.6103742,1.27992021 L83.8681867,1.27992021 L83.8681867,3.63054078 L85.824784,3.63054078 L85.824784,5.27504433 L83.8681867,5.27504433 L83.8681867,9.26972518 C83.8681867,9.45589539 83.9134414,9.60992908 84.0041725,9.73138298 C84.0944599,9.85283688 84.2253434,9.91356383 84.3961574,9.91356383 C84.4840046,9.91356383 84.5578762,9.90469858 84.6173283,9.88652482 C84.6767805,9.86835106 84.7286902,9.84773936 84.7728356,9.82446809 C84.8165374,9.80119681 84.8580208,9.78058511 84.897064,9.76241135 C84.9356636,9.74445922 84.98114,9.73537234 85.0328279,9.73537234 C85.1053684,9.73537234 85.1634896,9.75221631 85.207635,9.78568262 C85.2513368,9.81937057 85.2968133,9.87234043 85.3433989,9.9445922 L86.0732407,11.0851064 C85.7626698,11.3175975 85.4132774,11.4922429 85.0250637,11.6085993 C84.6368499,11.7249557 84.2357697,11.783023 83.8216011,11.783023" id="Fill-24"></path>
            <path d="M90.7939641,9.99893617 C91.3476678,9.99893617 91.7554032,9.80390071 92.0167265,9.41316489 C92.2778279,9.02309397 92.4087114,8.4295656 92.4087114,7.63302305 C92.4087114,6.83670213 92.2778279,6.24472518 92.0167265,5.85687057 C91.7554032,5.46901596 91.3476678,5.27508865 90.7939641,5.27508865 C90.2242882,5.27508865 89.8079012,5.46901596 89.5436941,5.85687057 C89.2797087,6.24472518 89.1479379,6.83670213 89.1479379,7.63302305 C89.1479379,8.4295656 89.2797087,9.02309397 89.5436941,9.41316489 C89.8079012,9.80390071 90.2242882,9.99893617 90.7939641,9.99893617 M90.7939641,3.49073582 C91.4044579,3.49073582 91.9610455,3.5864805 92.4630613,3.77796986 C92.9650772,3.96923759 93.3961053,4.24317376 93.755924,4.60022163 C94.1155208,4.95682624 94.3950347,5.39011525 94.5944657,5.89942376 C94.7934529,6.40873227 94.8932793,6.9814273 94.8932793,7.61750887 C94.8932793,8.25868794 94.7934529,8.83670213 94.5944657,9.35132979 C94.3950347,9.86573582 94.1155208,10.3027926 93.755924,10.6622784 C93.3961053,11.0217642 92.9650772,11.2981383 92.4630613,11.4920656 C91.9610455,11.6859929 91.4044579,11.7830674 90.7939641,11.7830674 C90.1779244,11.7830674 89.6175656,11.6859929 89.1128877,11.4920656 C88.607988,11.2981383 88.1734105,11.0217642 87.8084896,10.6622784 C87.4433468,10.3027926 87.1613927,9.86573582 86.9621836,9.35132979 C86.7627527,8.83670213 86.6631481,8.25868794 86.6631481,7.61750887 C86.6631481,6.9814273 86.7627527,6.40873227 86.9621836,5.89942376 C87.1613927,5.39011525 87.4433468,4.95682624 87.8084896,4.60022163 C88.1734105,4.24317376 88.607988,3.96923759 89.1128877,3.77796986 C89.6175656,3.5864805 90.1779244,3.49073582 90.7939641,3.49073582" id="Fill-25"></path>
            <path d="M96.2131395,11.6589982 L96.2131395,3.61489362 L97.7038802,3.61489362 C97.8538416,3.61489362 97.979401,3.64858156 98.0803366,3.71573582 C98.1812722,3.7831117 98.2522598,3.8839539 98.2939651,4.01826241 L98.433722,4.48368794 C98.5890075,4.33896277 98.7493953,4.20443262 98.9151071,4.08031915 C99.0808189,3.95620567 99.2580662,3.85137411 99.446849,3.76626773 C99.6358536,3.68093972 99.8403868,3.61356383 100.060448,3.56458333 C100.280288,3.51538121 100.51965,3.49078014 100.778311,3.49078014 C101.218435,3.49078014 101.607979,3.56702128 101.946945,3.71972518 C102.286133,3.87220745 102.57208,4.08408688 102.805009,4.35580674 C103.037937,4.62708333 103.213853,4.95044326 103.332979,5.32544326 C103.452106,5.70022163 103.511336,6.10757979 103.511336,6.54707447 L103.511336,11.6589982 L101.104633,11.6589982 L101.104633,6.54707447 C101.104633,6.15412234 101.014123,5.84760638 100.832883,5.62774823 C100.651643,5.4081117 100.384995,5.29818262 100.033163,5.29818262 C99.7691773,5.29818262 99.5204986,5.35514184 99.2877922,5.46883865 C99.054864,5.58275709 98.8321402,5.73523936 98.6200646,5.92650709 L98.6200646,11.6589982 L96.2131395,11.6589982 Z" id="Fill-26"></path>
            <path d="M108.80646,9.99893617 C109.360164,9.99893617 109.767899,9.80390071 110.029666,9.41316489 C110.290768,9.02309397 110.421651,8.4295656 110.421651,7.63302305 C110.421651,6.83670213 110.290768,6.24472518 110.029666,5.85687057 C109.767899,5.46901596 109.360164,5.27508865 108.80646,5.27508865 C108.237228,5.27508865 107.820397,5.46901596 107.556412,5.85687057 C107.292649,6.24472518 107.160434,6.83670213 107.160434,7.63302305 C107.160434,8.4295656 107.292649,9.02309397 107.556412,9.41316489 C107.820397,9.80390071 108.237228,9.99893617 108.80646,9.99893617 M108.80646,3.49073582 C109.417398,3.49073582 109.973764,3.5864805 110.475779,3.77796986 C110.978017,3.96923759 111.408601,4.24317376 111.768864,4.60022163 C112.128461,4.95682624 112.407753,5.39011525 112.607184,5.89942376 C112.806393,6.40873227 112.905997,6.9814273 112.905997,7.61750887 C112.905997,8.25868794 112.806393,8.83670213 112.607184,9.35132979 C112.407753,9.86573582 112.128461,10.3027926 111.768864,10.6622784 C111.408601,11.0217642 110.978017,11.2981383 110.475779,11.4920656 C109.973764,11.6859929 109.417398,11.7830674 108.80646,11.7830674 C108.190421,11.7830674 107.630062,11.6859929 107.125606,11.4920656 C106.620928,11.2981383 106.185907,11.0217642 105.821208,10.6622784 C105.456287,10.3027926 105.174111,9.86573582 104.975123,9.35132979 C104.775693,8.83670213 104.676088,8.25868794 104.676088,7.61750887 C104.676088,6.9814273 104.775693,6.40873227 104.975123,5.89942376 C105.174111,5.39011525 105.456287,4.95682624 105.821208,4.60022163 C106.185907,4.24317376 106.620928,3.96923759 107.125606,3.77796986 C107.630062,3.5864805 108.190421,3.49073582 108.80646,3.49073582" id="Fill-27"></path>
            <path d="M114.225857,11.6589982 L114.225857,3.61489362 L115.716598,3.61489362 C115.86656,3.61489362 115.992119,3.64858156 116.093055,3.71573582 C116.19399,3.7831117 116.264978,3.8839539 116.306683,4.01826241 L116.438676,4.45265957 C116.573109,4.31303191 116.712866,4.18492908 116.857947,4.06879433 C117.002806,3.95243794 117.159422,3.85137411 117.327574,3.76626773 C117.495726,3.68093972 117.677188,3.61356383 117.871295,3.56458333 C118.065402,3.51538121 118.278809,3.49078014 118.511515,3.49078014 C118.998224,3.49078014 119.400636,3.6162234 119.719193,3.86710993 C120.037306,4.11799645 120.27933,4.45265957 120.445041,4.87154255 C120.579696,4.6233156 120.743855,4.41143617 120.937962,4.23546099 C121.132069,4.05970745 121.341704,3.91742021 121.56709,3.80882092 C121.792032,3.70022163 122.030285,3.62021277 122.281403,3.56835106 C122.532079,3.51671099 122.781866,3.49078014 123.030323,3.49078014 C123.491299,3.49078014 123.899922,3.55926418 124.2573,3.69623227 C124.614457,3.83342199 124.913492,4.03266844 125.154185,4.29375 C125.394878,4.55483156 125.577227,4.87553191 125.701234,5.2554078 C125.825684,5.63550532 125.887576,6.06613475 125.887576,6.54707447 L125.887576,11.6589982 L123.480873,11.6589982 L123.480873,6.54707447 C123.480873,5.71462766 123.123494,5.29818262 122.409403,5.29818262 C122.083303,5.29818262 121.812663,5.40545213 121.597925,5.62021277 C121.383188,5.83475177 121.275819,6.14370567 121.275819,6.54707447 L121.275819,11.6589982 L118.868894,11.6589982 L118.868894,6.54707447 C118.868894,6.08674645 118.778163,5.76360816 118.597144,5.57743794 C118.415904,5.39126773 118.149478,5.29818262 117.797424,5.29818262 C117.580024,5.29818262 117.37416,5.34738475 117.180053,5.44556738 C116.985946,5.54375 116.803597,5.6758422 116.632783,5.84117908 L116.632783,11.6589982 L114.225857,11.6589982 Z" id="Fill-28"></path>
            <path d="M130.57742,13.7456782 C130.504879,13.9059176 130.41681,14.0236037 130.313435,14.0987367 C130.209837,14.173648 130.044347,14.2111037 129.816521,14.2111037 L128.015209,14.2111037 L129.568064,10.953125 L126.353655,3.61491578 L128.481066,3.61491578 C128.667408,3.61491578 128.812268,3.65636082 128.915865,3.73902926 C129.019463,3.82191933 129.091781,3.92010195 129.133265,4.03379876 L130.453192,7.50121897 C130.57742,7.82191933 130.678356,8.14261968 130.755998,8.4630984 C130.807686,8.29776152 130.864698,8.13486259 130.926812,7.9744016 C130.988705,7.81416223 131.048379,7.6512633 131.105391,7.48570479 L132.301089,4.03379876 C132.342351,3.91500443 132.423986,3.81527039 132.545553,3.73503989 C132.667341,3.65503103 132.798003,3.61491578 132.937759,3.61491578 L134.878828,3.61491578 L130.57742,13.7456782 Z" id="Fill-29"></path>
            <path d="M141.493768,5.9033023 L142.860281,5.9033023 C143.543315,5.9033023 144.035126,5.74040337 144.335493,5.4146055 C144.635638,5.08880762 144.785821,4.63357713 144.785821,4.04935727 C144.785821,3.79071365 144.746999,3.55556294 144.669135,3.34346188 C144.591714,3.13136082 144.473919,2.94917996 144.316193,2.79647606 C144.158024,2.64399379 143.958815,2.52652926 143.718122,2.44363918 C143.47743,2.36097074 143.191261,2.31952571 142.860281,2.31952571 L141.493768,2.31952571 L141.493768,5.9033023 Z M141.493768,7.88136082 L141.493768,11.6590647 L138.869443,11.6590647 L138.869443,0.356981383 L142.860281,0.356981383 C143.657339,0.356981383 144.341926,0.451174645 144.91382,0.640004433 C145.485715,0.82883422 145.956895,1.08858599 146.326918,1.41970301 C146.696942,1.75082004 146.970244,2.14089096 147.145938,2.59102394 C147.321855,3.04093528 147.410146,3.52697252 147.410146,4.04935727 C147.410146,4.61318706 147.319415,5.13025266 147.138174,5.60077571 C146.957156,6.07129876 146.680304,6.47466755 146.307619,6.81088209 C145.934933,7.146875 145.462644,7.40950798 144.890749,7.59811613 C144.318411,7.78694592 143.64181,7.88136082 142.860281,7.88136082 L141.493768,7.88136082 Z" id="Fill-30"></path>
            <path d="M148.776458,11.6589982 L148.776458,3.61489362 L150.204863,3.61489362 C150.324211,3.61489362 150.423594,3.62531028 150.503899,3.64592199 C150.583981,3.66653369 150.65142,3.69911348 150.70577,3.74277482 C150.76012,3.78687943 150.801603,3.84494681 150.829998,3.91742021 C150.858615,3.98989362 150.883017,4.07788121 150.90387,4.18116135 L151.035862,4.93359929 C151.330905,4.47859043 151.662106,4.11910461 152.029689,3.85536348 C152.397051,3.59162234 152.798353,3.45975177 153.233152,3.45975177 C153.600513,3.45975177 153.895556,3.54773936 154.118279,3.72349291 L153.807708,5.49210993 C153.786856,5.60070922 153.745372,5.67717199 153.68348,5.72083333 C153.621366,5.76493794 153.538399,5.78687943 153.435023,5.78687943 C153.346954,5.78687943 153.243578,5.77513298 153.124452,5.75208333 C153.005104,5.72859043 152.855365,5.7170656 152.673902,5.7170656 C152.042556,5.7170656 151.545421,6.05328014 151.183383,6.72548759 L151.183383,11.6589982 L148.776458,11.6589982 Z" id="Fill-31"></path>
            <path d="M158.776644,9.99893617 C159.330348,9.99893617 159.738084,9.80390071 159.999629,9.41316489 C160.26073,9.02309397 160.391614,8.4295656 160.391614,7.63302305 C160.391614,6.83670213 160.26073,6.24472518 159.999629,5.85687057 C159.738084,5.46901596 159.330348,5.27508865 158.776644,5.27508865 C158.20719,5.27508865 157.790582,5.46901596 157.526596,5.85687057 C157.262611,6.24472518 157.130618,6.83670213 157.130618,7.63302305 C157.130618,8.4295656 157.262611,9.02309397 157.526596,9.41316489 C157.790582,9.80390071 158.20719,9.99893617 158.776644,9.99893617 M158.776644,3.49073582 C159.38736,3.49073582 159.943948,3.5864805 160.445742,3.77796986 C160.947979,3.96923759 161.378786,4.24317376 161.738826,4.60022163 C162.098423,4.95682624 162.377715,5.39011525 162.577368,5.89942376 C162.776355,6.40873227 162.87596,6.9814273 162.87596,7.61750887 C162.87596,8.25868794 162.776355,8.83670213 162.577368,9.35132979 C162.377715,9.86573582 162.098423,10.3027926 161.738826,10.6622784 C161.378786,11.0217642 160.947979,11.2981383 160.445742,11.4920656 C159.943948,11.6859929 159.38736,11.7830674 158.776644,11.7830674 C158.160605,11.7830674 157.600246,11.6859929 157.09579,11.4920656 C156.59089,11.2981383 156.156091,11.0217642 155.79117,10.6622784 C155.426249,10.3027926 155.144073,9.86573582 154.945086,9.35132979 C154.745655,8.83670213 154.64605,8.25868794 154.64605,7.61750887 C154.64605,6.9814273 154.745655,6.40873227 154.945086,5.89942376 C155.144073,5.39011525 155.426249,4.95682624 155.79117,4.60022163 C156.156091,4.24317376 156.59089,3.96923759 157.09579,3.77796986 C157.600246,3.5864805 158.160605,3.49073582 158.776644,3.49073582" id="Fill-32"></path>
            <path d="M167.037655,7.21425089 C167.436295,7.21425089 167.724905,7.11473848 167.903261,6.91549202 C168.082061,6.7164672 168.171239,6.45915337 168.171239,6.14377216 C168.171239,5.81775266 168.082061,5.56199025 167.903261,5.37582004 C167.724905,5.18942819 167.436295,5.09634309 167.037655,5.09634309 C166.639015,5.09634309 166.350406,5.18942819 166.17205,5.37582004 C165.993471,5.56199025 165.904293,5.81775266 165.904293,6.14377216 C165.904293,6.29891401 165.926033,6.44120124 165.970178,6.57041223 C166.014102,6.69962323 166.082649,6.81221188 166.175821,6.90773493 C166.268992,7.00347961 166.386565,7.07839096 166.529206,7.1326906 C166.671625,7.18699025 166.840886,7.21425089 167.037655,7.21425089 M168.823438,11.9363254 C168.823438,11.8040115 168.783286,11.6985151 168.703203,11.6193927 C168.622898,11.5402704 168.513977,11.4766622 168.377104,11.4292332 C168.239787,11.3818041 168.079177,11.3472296 167.895719,11.3261746 C167.711816,11.3051197 167.513716,11.2944814 167.301641,11.2944814 L166.641677,11.2944814 C166.413851,11.2944814 166.188687,11.2725399 165.966185,11.2284353 C165.816002,11.3321587 165.693105,11.4476285 165.597493,11.5746232 C165.50166,11.7016179 165.453743,11.8454566 165.453743,12.0061392 C165.453743,12.1202793 165.478367,12.2240027 165.527393,12.3170878 C165.576641,12.4103945 165.663601,12.4908466 165.787607,12.5582225 C165.911835,12.6255984 166.078878,12.6787899 166.288514,12.717797 C166.497927,12.7565824 166.763465,12.776086 167.084241,12.776086 C167.430971,12.776086 167.715809,12.7548094 167.938533,12.7126995 C168.160813,12.6703679 168.33806,12.6120789 168.470275,12.5382757 C168.602268,12.4642509 168.694108,12.37582 168.745796,12.2727615 C168.797705,12.169703 168.823438,12.0577793 168.823438,11.9363254 M167.037655,3.47533245 C167.379283,3.47533245 167.701612,3.50879876 168.004197,3.57617465 C168.307225,3.64355053 168.587848,3.73885195 168.846731,3.86318706 L171.276949,3.86318706 L171.276949,4.73973848 C171.276949,4.87404699 171.239237,4.98020833 171.164478,5.05777926 C171.089497,5.13535018 170.961276,5.19496897 170.780036,5.23597074 L170.189951,5.36806294 C170.262491,5.60077571 170.298651,5.84124557 170.298651,6.08947252 C170.298651,6.49284131 170.214353,6.85476507 170.046423,7.17524379 C169.878271,7.49594415 169.647783,7.76877216 169.35518,7.99394947 C169.0628,8.21868351 168.717179,8.39199911 168.318761,8.51345301 C167.920342,8.63512855 167.493085,8.6958555 167.037655,8.6958555 C166.783874,8.6958555 166.545844,8.68011968 166.323342,8.64931294 C166.147204,8.75370124 166.059357,8.87360372 166.059357,9.00946365 C166.059357,9.14532358 166.130566,9.24306294 166.272985,9.303125 C166.415182,9.36318706 166.602856,9.40507535 166.835784,9.42834663 C167.068934,9.45206117 167.33536,9.46358599 167.635504,9.46358599 C167.935649,9.46358599 168.241118,9.47799202 168.551689,9.50658245 C168.862482,9.53517287 169.167729,9.58304521 169.467873,9.6504211 C169.76824,9.71801862 170.034665,9.82683954 170.267815,9.97732713 C170.500522,10.1278147 170.688195,10.3288342 170.830614,10.5803856 C170.972812,10.8319371 171.044243,11.1524158 171.044243,11.5413785 C171.044243,11.9046321 170.955952,12.2599069 170.780036,12.6074246 C170.604119,12.9549424 170.345236,13.263453 170.003608,13.5333998 C169.66198,13.803125 169.242709,14.0196587 168.745796,14.1832225 C168.248882,14.3465647 167.67965,14.4283466 167.037655,14.4283466 C166.406087,14.4283466 165.861257,14.3685062 165.403386,14.2497119 C164.945072,14.1306959 164.564845,13.9740027 164.261816,13.7798537 C163.959231,13.5857048 163.735177,13.3616356 163.590317,13.1083112 C163.445458,12.8543218 163.372918,12.5905807 163.372918,12.3162012 C163.372918,11.9587101 163.481839,11.6572917 163.699017,11.411281 C163.916639,11.165492 164.213899,10.9726729 164.592131,10.8328236 C164.410668,10.7140293 164.265809,10.5617686 164.157331,10.3760417 C164.04841,10.1900931 163.99406,9.95516401 163.99406,9.6710328 C163.99406,9.55246011 164.01469,9.42701684 164.056396,9.29558954 C164.097657,9.1639406 164.162212,9.0360594 164.250503,8.91194592 C164.33835,8.78827571 164.44949,8.66925975 164.584144,8.55578457 C164.718799,8.44208777 164.879409,8.3414672 165.06553,8.25347961 C164.646481,8.03140514 164.316166,7.73641401 164.075474,7.3691711 C163.834781,7.00214982 163.714768,6.57550975 163.714768,6.08947252 C163.714768,5.68588209 163.799953,5.32285018 163.970767,4.99949025 C164.141581,4.67635195 164.37584,4.40219415 164.673545,4.17723848 C164.971249,3.9522828 165.321972,3.77918883 165.725493,3.6575133 C166.129235,3.5360594 166.566697,3.47533245 167.037655,3.47533245" id="Fill-33"></path>
            <path d="M172.317318,11.6589982 L172.317318,3.61489362 L173.745722,3.61489362 C173.86507,3.61489362 173.964453,3.62531028 174.044758,3.64592199 C174.124841,3.66653369 174.192279,3.69911348 174.246629,3.74277482 C174.300979,3.78687943 174.342462,3.84494681 174.370857,3.91742021 C174.399474,3.98989362 174.423876,4.07788121 174.444729,4.18116135 L174.576722,4.93359929 C174.871764,4.47859043 175.202966,4.11910461 175.570549,3.85536348 C175.93791,3.59162234 176.339212,3.45975177 176.774011,3.45975177 C177.141372,3.45975177 177.436415,3.54773936 177.659139,3.72349291 L177.348568,5.49210993 C177.327715,5.60070922 177.286232,5.67717199 177.224339,5.72083333 C177.162225,5.76493794 177.079258,5.78687943 176.975883,5.78687943 C176.887813,5.78687943 176.784438,5.77513298 176.665312,5.75208333 C176.545964,5.72859043 176.396224,5.7170656 176.214762,5.7170656 C175.583415,5.7170656 175.08628,6.05328014 174.724243,6.72548759 L174.724243,11.6589982 L172.317318,11.6589982 Z" id="Fill-34"></path>
            <path d="M181.370373,10.1928635 C181.680944,10.1928635 181.952694,10.1385638 182.185622,10.0301862 C182.418772,9.92136525 182.654141,9.7456117 182.892171,9.50248227 L182.892171,8.40097518 C182.410786,8.40097518 182.014808,8.43244681 181.704237,8.49494681 C181.393666,8.55744681 181.147871,8.63590426 180.966853,8.72965426 C180.785391,8.82362589 180.660053,8.93067376 180.589953,9.05057624 C180.520296,9.17070035 180.485246,9.3010195 180.485246,9.44153369 C180.485246,9.71812943 180.560448,9.9125 180.71041,10.0246454 C180.860593,10.1370124 181.080433,10.1928635 181.370373,10.1928635 L181.370373,10.1928635 Z M184.134455,11.6589539 C183.906851,11.6589539 183.734484,11.6281472 183.618242,11.5658688 C183.501556,11.5038121 183.404613,11.3746011 183.32697,11.1780142 L183.156156,10.7358599 C182.954507,10.9067376 182.7604,11.0565603 182.573836,11.1857713 C182.387493,11.3149823 182.194717,11.425133 181.995286,11.5155585 C181.796077,11.605984 181.584002,11.6733599 181.358616,11.7172429 C181.133674,11.7611259 180.883886,11.7830674 180.609474,11.7830674 C180.241891,11.7830674 179.908028,11.735195 179.608105,11.6390071 C179.307738,11.5432624 179.052848,11.4018617 178.842991,11.2150266 C178.633577,11.0284131 178.471859,10.7961436 178.357835,10.5184397 C178.243811,10.2409574 178.187021,9.92047872 178.187021,9.55744681 C178.187021,9.27220745 178.259561,8.97876773 178.40442,8.67801418 C178.54928,8.37726064 178.800398,8.10332447 179.157555,7.85687057 C179.514712,7.6106383 179.996318,7.40429965 180.60171,7.23829787 C181.207545,7.0722961 181.970884,6.9891844 182.892171,6.9891844 L182.892171,6.6447695 C182.892171,6.17003546 182.795229,5.82672872 182.601122,5.61529255 C182.407015,5.40407801 182.131494,5.2981383 181.774116,5.2981383 C181.489499,5.2981383 181.256349,5.3293883 181.075331,5.3912234 C180.894312,5.45328014 180.732372,5.5233156 180.589953,5.60066489 C180.447756,5.67823582 180.30933,5.74804965 180.174675,5.81032801 C180.04002,5.87216312 179.879633,5.90341312 179.69329,5.90341312 C179.527578,5.90341312 179.386712,5.86329787 179.270026,5.78306738 C179.153784,5.70283688 179.061722,5.60332447 178.994505,5.48430851 L178.559706,4.73187057 C179.046193,4.30279255 179.585921,3.98320035 180.178668,3.7739805 C180.771193,3.56453901 181.406533,3.45970745 182.084687,3.45970745 C182.571174,3.45970745 183.009966,3.53882979 183.40062,3.69640957 C183.791496,3.85398936 184.122698,4.07406915 184.394669,4.35576241 C184.666197,4.6376773 184.874723,4.97234043 185.019582,5.36019504 C185.164663,5.74804965 185.237204,6.17203014 185.237204,6.63257979 L185.237204,11.6589539 L184.134455,11.6589539 Z" id="Fill-35"></path>
            <path d="M186.9451,11.6589982 L186.9451,3.61489362 L188.435841,3.61489362 C188.585802,3.61489362 188.711362,3.64858156 188.812297,3.71573582 C188.913233,3.7831117 188.984221,3.8839539 189.025926,4.01826241 L189.157919,4.45265957 C189.292351,4.31303191 189.432108,4.18492908 189.577189,4.06879433 C189.722049,3.95243794 189.878665,3.85137411 190.046817,3.76626773 C190.214969,3.68093972 190.396431,3.61356383 190.590538,3.56458333 C190.784645,3.51538121 190.998052,3.49078014 191.230758,3.49078014 C191.717467,3.49078014 192.119878,3.6162234 192.438436,3.86710993 C192.756549,4.11799645 192.998573,4.45265957 193.164284,4.87154255 C193.298939,4.6233156 193.463098,4.41143617 193.657205,4.23546099 C193.851312,4.05970745 194.060947,3.91742021 194.286333,3.80882092 C194.511275,3.70022163 194.749527,3.62021277 195.000646,3.56835106 C195.251321,3.51671099 195.501109,3.49078014 195.749566,3.49078014 C196.210542,3.49078014 196.619165,3.55926418 196.976543,3.69623227 C197.3337,3.83342199 197.632735,4.03266844 197.873428,4.29375 C198.11412,4.55483156 198.29647,4.87553191 198.420476,5.2554078 C198.544927,5.63550532 198.606819,6.06613475 198.606819,6.54707447 L198.606819,11.6589982 L196.200116,11.6589982 L196.200116,6.54707447 C196.200116,5.71462766 195.842737,5.29818262 195.128646,5.29818262 C194.802546,5.29818262 194.531906,5.40545213 194.317168,5.62021277 C194.102431,5.83475177 193.995062,6.14370567 193.995062,6.54707447 L193.995062,11.6589982 L191.588137,11.6589982 L191.588137,6.54707447 C191.588137,6.08674645 191.497405,5.76360816 191.316387,5.57743794 C191.135147,5.39126773 190.868721,5.29818262 190.516667,5.29818262 C190.299267,5.29818262 190.093403,5.34738475 189.899296,5.44556738 C189.705189,5.54375 189.52284,5.6758422 189.352025,5.84117908 L189.352025,11.6589982 L186.9451,11.6589982 Z" id="Fill-36"></path>
        </g>
    </g>
</svg>