<?xml version="1.0" encoding="UTF-8"?>
<svg width="62px" height="60px" viewBox="0 0 62 60" version="1.1" xmlns="http://www.w3.org/2000/svg" xmlns:xlink="http://www.w3.org/1999/xlink">
    <!-- Generator: Sketch 56.3 (81716) - https://sketch.com -->
    <title>security</title>
    <desc>Created with Sketch.</desc>
    <g id="security" stroke="none" stroke-width="1" fill="none" fill-rule="evenodd">
        <g id="Group-41" transform="translate(6.000000, 1.000000)">
            <polygon id="Fill-1" fill="#00BBA6" points="13.93972 44.932194 35.94028 44.932194 35.94028 22.932214 13.93972 22.932214"></polygon>
            <path d="M48.72,30.91632 L48.72,8.97898 C36.94774,8.7986 26.8772,2.55548 24.94,1.2789 C23.0028,2.5549 12.9311,8.79802 1.16,8.97898 L1.16,30.93894 C1.16,37.57182 3.5699,43.76042 7.94658,48.36504 C12.33602,52.98416 18.05308,55.83312 24.94,56.83362 C31.49168,55.88126 36.9953,53.2498 41.29948,49.01116 C46.01488,44.36594 48.72,37.77076 48.72,30.91632 Z M49.71006,7.9924 C49.8191,8.10144 49.88,8.24876 49.88,8.40304 L49.88,30.91632 C49.88,38.07932 47.04902,44.97552 42.11322,49.83766 C37.61126,54.27176 31.86114,57.01632 25.02236,57.99362 C24.9951,57.99768 24.96726,57.99942 24.94,57.99942 C24.91274,57.99942 24.8849,57.99768 24.85764,57.99362 C17.66912,56.96644 11.69686,53.99568 7.10558,49.16428 C2.52358,44.34274 0,37.87052 0,30.93894 L0,8.40304 C0,8.24876 0.0609,8.10144 0.16994,7.9924 C0.27898,7.88394 0.4263,7.82304 0.58,7.82304 C0.5916,7.82594 0.6206,7.82304 0.6409,7.82304 C13.53778,7.82304 24.49572,0.18328 24.60476,0.10614 C24.80602,-0.03538 25.07398,-0.03538 25.27524,0.10614 C25.38428,0.18328 36.34338,7.82304 49.2391,7.82304 C49.25998,7.82304 49.2884,7.8271 49.3,7.82304 C49.4537,7.82304 49.60102,7.88394 49.71006,7.9924 Z M29.131428,13.693626 L29.073428,13.635626 C26.778368,11.340566 23.043748,11.339986 20.748688,13.635626 C19.636828,14.747486 19.024928,16.225326 19.024928,17.797706 L19.024928,22.352446 L30.855188,22.352446 L30.855188,17.855706 C30.855188,16.283326 30.243288,14.805486 29.131428,13.693626 Z M14.519488,44.352426 L35.360048,44.352426 L35.360048,23.512446 L14.519488,23.512446 L14.519488,44.352426 Z M19.928568,12.815506 C22.676028,10.068046 27.146668,10.068046 29.893548,12.815506 L29.951548,12.873506 C31.282068,14.204026 32.015188,15.973606 32.015188,17.855706 L32.015188,22.352446 L35.940048,22.352446 C36.260788,22.352446 36.520048,22.611706 36.520048,22.932446 L36.520048,44.932426 C36.520048,45.252586 36.260788,45.512426 35.940048,45.512426 L13.940068,45.512426 C13.619328,45.512426 13.360068,45.252586 13.360068,44.932426 L13.360068,22.932446 C13.360068,22.611706 13.619328,22.352446 13.940068,22.352446 L17.864928,22.352446 L17.864928,17.797706 C17.864928,15.915606 18.597468,14.146026 19.928568,12.815506 Z M22.470186,38.742898 L17.975186,34.339538 C17.746086,34.115078 17.742606,33.747938 17.966486,33.519418 C18.190946,33.290318 18.558666,33.286838 18.786606,33.510718 L22.868066,37.508658 L31.084926,29.129398 C31.309386,28.900878 31.676526,28.897398 31.905046,29.121858 C32.134146,29.345738 32.137046,29.712878 31.913166,29.941978 L23.290306,38.734778 C23.176626,38.850778 23.026406,38.908778 22.876186,38.908778 C22.729446,38.908778 22.582706,38.853098 22.470186,38.742898 Z" id="Combined-Shape" fill="#231F20"></path>
        </g>
    </g>
</svg>