<?xml version="1.0" encoding="UTF-8"?>
<svg width="45px" height="45px" viewBox="0 0 45 45" version="1.1" xmlns="http://www.w3.org/2000/svg" xmlns:xlink="http://www.w3.org/1999/xlink">
    <!-- Generator: Sketch 56.3 (81716) - https://sketch.com -->
    <title>server</title>
    <desc>Created with Sketch.</desc>
    <g id="server" stroke="none" stroke-width="1" fill="none" fill-rule="evenodd">
        <g id="Group-29" transform="translate(1.000000, 7.000000)">
            <path d="M38.4900695,28.6572821 L4.30914316,28.6572821 C2.64345895,28.6572821 1.29280632,27.3066295 1.29280632,25.6409453 L1.29280632,24.2047453 L41.5064063,24.2047453 L41.5064063,25.6409453 C41.5064063,27.3066295 40.1562063,28.6572821 38.4900695,28.6572821" id="Fill-1" fill="#8F50F4"></path>
            <path d="M41.0876316,25.5750421 L41.0876316,24.7186632 L39.4961789,24.7186632 C39.4925579,24.7186632 39.4893895,24.7209263 39.4857684,24.7209263 L3.32005263,24.7209263 C3.31643158,24.7209263 3.31326316,24.7186632 3.31009474,24.7186632 L1.71185263,24.7186632 L1.71185263,25.5750421 C1.71185263,26.9908737 2.8638,28.1428211 4.28008421,28.1428211 L38.5194,28.1428211 C39.9356842,28.1428211 41.0876316,26.9908737 41.0876316,25.5750421 Z M4.17643158,2.56823158 L4.17643158,23.0068105 L38.6298421,23.0068105 L38.6298421,2.56823158 C38.6298421,2.09613684 38.2464632,1.71185263 37.7739158,1.71185263 L5.03235789,1.71185263 C4.55981053,1.71185263 4.17643158,2.09613684 4.17643158,2.56823158 Z M41.9435579,23.0068105 C42.4165579,23.0068105 42.7994842,23.3901895 42.7994842,23.8631895 L42.7994842,25.5750421 C42.7994842,27.9346105 40.8794211,29.8546737 38.5194,29.8546737 L4.28008421,29.8546737 C1.92006316,29.8546737 3.48165941e-13,27.9346105 3.48165941e-13,25.5750421 L3.48165941e-13,23.8631895 C3.48165941e-13,23.3901895 0.382473684,23.0068105 0.855926316,23.0068105 L2.46412632,23.0068105 L2.46412632,2.56823158 C2.46412632,1.15194737 3.61607368,2.7000624e-13 5.03235789,2.7000624e-13 L37.7739158,2.7000624e-13 C39.1902,2.7000624e-13 40.3421474,1.15194737 40.3421474,2.56823158 L40.3421474,23.0068105 L41.9435579,23.0068105 Z M29.0466811,17.1135474 C29.9750284,17.1135474 30.7300179,17.8685368 30.7300179,18.7964316 C30.7300179,19.7247789 29.9750284,20.4802211 29.0466811,20.4802211 C28.4075653,20.4802211 27.8236705,20.1167579 27.5385126,19.5482526 L22.9080916,19.5482526 C22.6224811,20.1167579 22.0385863,20.4802211 21.3999232,20.4802211 C20.7608074,20.4802211 20.17646,20.1167579 19.8913021,19.5482526 L15.2613337,19.5482526 C14.9757232,20.1167579 14.3918284,20.4802211 13.7527126,20.4802211 C12.8243653,20.4802211 12.0693758,19.7247789 12.0693758,18.7964316 C12.0693758,17.8685368 12.8243653,17.1135474 13.7527126,17.1135474 C14.3859442,17.1135474 14.9675758,17.4770105 15.2540916,18.0459684 L19.8899442,18.0459684 C20.0601337,17.6625895 20.3149653,17.3996105 20.6485547,17.2633684 L20.6485547,16.0036947 L16.7369126,16.0036947 C14.6774389,16.0036947 13.0017968,14.3280526 13.0017968,12.2685789 C13.0017968,10.5838842 14.1374495,9.11645263 15.7714495,8.67785263 C16.2041653,7.25025263 17.4833021,6.29565263 18.9751758,6.29565263 C19.3721337,6.29565263 19.7654705,6.37938947 20.1755547,6.55138947 C20.9572495,5.22110526 22.3142389,4.43035789 23.8242179,4.43035789 C26.1923863,4.43035789 28.1187863,6.35721053 28.1187863,8.72492632 C28.1187863,8.78105263 28.1156179,8.83627368 28.1110916,8.89104211 C29.1684389,9.62611579 29.7975968,10.8142737 29.7975968,12.0820947 C29.7975968,14.2447684 28.0386705,16.0036947 25.8759968,16.0036947 L22.1508389,16.0036947 L22.1508389,17.2946 C22.4753758,17.4575474 22.7388074,17.7209789 22.9017547,18.0459684 L27.5453021,18.0459684 C27.8313653,17.4770105 28.4129968,17.1135474 29.0466811,17.1135474 Z M26.9849442,9.93028421 C26.6961653,9.78046316 26.5359337,9.46407368 26.5866284,9.14361053 C26.6069968,9.01008421 26.6169547,8.87293684 26.6169547,8.72492632 C26.6169547,7.18507368 25.3640705,5.93218947 23.8242179,5.93218947 C22.6473758,5.93218947 21.5913863,6.67722105 21.1962389,7.78571579 C21.0577337,8.17497895 20.6281863,8.38002105 20.2375653,8.24151579 C20.1732916,8.21843158 20.1130916,8.18765263 20.0592284,8.14917895 C19.7374074,7.91924211 19.3626284,7.79793684 18.9751758,7.79793684 C18.0459232,7.79793684 17.2520074,8.49136842 17.1288916,9.41066316 C17.0827232,9.75058947 16.8129547,10.0162842 16.4725758,10.0561158 C15.3500495,10.1887368 14.5036284,11.1397158 14.5036284,12.2685789 C14.5036284,13.5001895 15.5057547,14.5018632 16.7369126,14.5018632 L25.8759968,14.5018632 C27.2329863,14.5018632 28.2957653,13.4390842 28.2957653,12.0820947 C28.2957653,11.1691368 27.7937968,10.3448947 26.9853968,9.93028421 L26.9849442,9.93028421 Z M13.7527126,18.6149263 C13.6477021,18.6149263 13.5712074,18.6914211 13.5712074,18.7964316 C13.5712074,18.9018947 13.6477021,18.9783895 13.7527126,18.9783895 C13.8577232,18.9783895 13.9342179,18.9018947 13.9342179,18.7964316 C13.9342179,18.6914211 13.8577232,18.6149263 13.7527126,18.6149263 Z M21.3999232,18.6149263 C21.29446,18.6149263 21.2179653,18.6914211 21.2179653,18.7964316 C21.2179653,18.9018947 21.29446,18.9783895 21.3999232,18.9783895 C21.5049337,18.9783895 21.5814284,18.9018947 21.5814284,18.7964316 C21.5814284,18.6914211 21.5049337,18.6149263 21.3999232,18.6149263 Z M29.0466811,18.6149263 C28.9416705,18.6149263 28.8651758,18.6914211 28.8651758,18.7964316 C28.8651758,18.9018947 28.9416705,18.9783895 29.0466811,18.9783895 C29.1516916,18.9783895 29.2281863,18.9018947 29.2281863,18.7964316 C29.2281863,18.6914211 29.1516916,18.6149263 29.0466811,18.6149263 Z" id="Combined-Shape" fill="#4A4A4A"></path>
        </g>
    </g>
</svg>