<?xml version="1.0" encoding="UTF-8"?>
<svg width="62px" height="60px" viewBox="0 0 62 60" version="1.1" xmlns="http://www.w3.org/2000/svg" xmlns:xlink="http://www.w3.org/1999/xlink">
    <!-- Generator: Sketch 56.3 (81716) - https://sketch.com -->
    <title>team-strength</title>
    <desc>Created with Sketch.</desc>
    <g id="team-strength" stroke="none" stroke-width="1" fill="none" fill-rule="evenodd">
        <g id="Group-15" transform="translate(1.000000, 4.000000)">
            <path d="M19.7588317,19.3748317 C19.7588317,19.3748317 22.4243762,15.3102772 29.9528911,14.9164158 C37.4808119,14.5219604 40.1172475,19.5352277 40.1172475,19.5352277 C40.1172475,19.5352277 35.2002178,24.9334455 30.5647723,24.9382049 C22.8574455,24.9453267 19.7588317,19.3748317 19.7588317,19.3748317" id="Fill-1" fill="#00BBA6"></path>
            <path d="M2.48964356,46.1884158 C2.48964356,46.1884158 5.15518812,42.1238614 12.683703,41.73 C20.2116238,41.3355446 22.8480594,46.3488119 22.8480594,46.3488119 C22.8480594,46.3488119 17.9310297,51.7470297 13.2955842,51.7511961 C5.58825743,51.7589109 2.48964356,46.1884158 2.48964356,46.1884158" id="Fill-3" fill="#00BBA6"></path>
            <path d="M37.0283762,46.1884158 C37.0283762,46.1884158 39.6939208,42.1238614 47.2224356,41.73 C54.7503564,41.3355446 57.3867921,46.3488119 57.3867921,46.3488119 C57.3867921,46.3488119 52.4697624,51.7470297 47.8343168,51.7511961 C40.1269901,51.7589109 37.0283762,46.1884158 37.0283762,46.1884158" id="Fill-5" fill="#00BBA6"></path>
            <path d="M47.2071089,51.4467921 C43.288099,51.4467921 39.8253267,49.4703564 37.7526535,46.4650099 C37.7829505,46.4430297 37.8162178,46.4287723 37.8423564,46.4002574 L38.2712673,45.9339208 C40.5643366,43.4418416 43.8209703,42.0125347 47.2071089,42.0125347 C50.5932475,42.0125347 53.8498812,43.4418416 56.1429505,45.9333267 L56.5718614,46.4002574 C56.598,46.4287723 56.6324554,46.4418416 56.6621584,46.4644158 C54.5894851,49.4697624 51.1261188,51.4467921 47.2071089,51.4467921 M47.2071089,28.4852079 C53.5374059,28.4852079 58.687901,33.635703 58.687901,39.966 C58.687901,41.9454059 58.1847327,43.8089703 57.2989901,45.436099 L57.0168119,45.1289703 C54.4997822,42.3933267 50.9247327,40.8244158 47.2071089,40.8244158 C43.4894851,40.8244158 39.9144356,42.3933267 37.3974059,45.1295644 L37.1152277,45.436099 C36.2300792,43.8089703 35.7263168,41.9454059 35.7263168,39.966 C35.7263168,33.635703 40.8768119,28.4852079 47.2071089,28.4852079 M20.6360198,19.415703 L20.9692871,19.0533267 C23.2617624,16.5612475 26.5189901,15.1319406 29.9051287,15.1319406 C33.2906733,15.1319406 36.547901,16.5606535 38.8409703,19.0527327 L39.1742376,19.4151089 C37.0843366,22.2784752 33.7130495,24.1497624 29.9051287,24.1497624 C26.0972079,24.1497624 22.7259208,22.2784752 20.6360198,19.415703 M29.9051287,1.18817822 C36.2354257,1.18817822 41.3859208,6.33807921 41.3859208,12.6689703 C41.3859208,14.7523366 40.8191881,16.7026337 39.8443366,18.3897624 L39.7148317,18.2483762 C37.197802,15.5127327 33.6221584,13.9438218 29.9051287,13.9438218 C26.187505,13.9438218 22.6118614,15.5127327 20.0954257,18.2489703 L19.9659208,18.3897624 C18.9910693,16.7032277 18.4243366,14.7523366 18.4243366,12.6689703 C18.4243366,6.33807921 23.5748317,1.18817822 29.9051287,1.18817822 M22.7609703,45.436099 L22.4787921,45.1289703 C19.9617624,42.3933267 16.3861188,40.8244158 12.6690891,40.8244158 L12.668495,40.8244158 C8.95146535,40.8244158 5.37582178,42.3933267 2.85879208,45.1295644 L2.57720792,45.436099 C1.69146535,43.8089703 1.18829703,41.9454059 1.18829703,39.966 C1.18829703,33.635703 6.33819802,28.4852079 12.668495,28.4852079 C18.9993861,28.4852079 24.1498812,33.635703 24.1498812,39.966 C24.1498812,41.9454059 23.6461188,43.8089703 22.7609703,45.436099 M12.668495,51.4467921 C8.75007921,51.4467921 5.28730693,49.4703564 3.21463366,46.4650099 C3.24433663,46.4430297 3.27819802,46.4287723 3.30374257,46.4002574 L3.73324752,45.9339208 C6.02572277,43.4412475 9.2829505,42.0125347 12.6690891,42.0125347 C16.0552277,42.0125347 19.3118614,43.4418416 21.6043366,45.9333267 L22.0338416,46.4002574 C22.0593861,46.4287723 22.0938416,46.4418416 22.1235446,46.4644158 C20.0514653,49.4697624 16.588099,51.4467921 12.668495,51.4467921 M47.2071089,27.2970891 C41.5528515,27.2970891 36.7546337,31.0218416 35.1298812,36.145604 L30.4991881,31.046198 L30.4991881,25.3075842 C37.207901,24.9945149 42.5740396,19.4543168 42.5740396,12.6689703 C42.5740396,5.68342574 36.8906733,5.94059406e-05 29.9051287,5.94059406e-05 C22.9195842,5.94059406e-05 17.2362178,5.68342574 17.2362178,12.6689703 C17.2362178,19.4543168 22.6023564,24.9945149 29.3110693,25.3075842 L29.3110693,31.046198 L24.7273069,36.0939208 C23.0865149,30.9974851 18.3037426,27.2970891 12.668495,27.2970891 C5.68354455,27.2970891 0.000178217822,32.9804554 0.000178217822,39.966 C0.000178217822,46.9515446 5.68354455,52.6349109 12.668495,52.6349109 C19.6546337,52.6349109 25.338,46.9515446 25.338,39.966 C25.338,39.1022376 25.2494851,38.2586733 25.0837426,37.4430297 C25.1051287,37.4252079 25.1312673,37.416297 25.1502772,37.395505 L29.9051287,32.1588713 L34.6593861,37.395505 C34.6962178,37.4353069 34.7419604,37.4602574 34.7853267,37.4875842 C34.6255248,38.2901584 34.538198,39.1176832 34.538198,39.966 C34.538198,46.9515446 40.2215644,52.6349109 47.2071089,52.6349109 C54.1926535,52.6349109 59.8760198,46.9515446 59.8760198,39.966 C59.8760198,32.9804554 54.1926535,27.2970891 47.2071089,27.2970891" id="Fill-7" fill="#404042"></path>
            <path d="M29.9051287,4.9639604 C31.678396,4.9639604 33.1219604,6.40693069 33.1219604,8.18079208 C33.1219604,9.95465347 31.678396,11.3976238 29.9051287,11.3976238 C28.1312673,11.3976238 26.688297,9.95465347 26.688297,8.18079208 C26.688297,6.40693069 28.1312673,4.9639604 29.9051287,4.9639604 M29.9051287,12.5857426 C32.3336436,12.5857426 34.3100792,10.609901 34.3100792,8.18079208 C34.3100792,5.75168317 32.3336436,3.77584158 29.9051287,3.77584158 C27.4760198,3.77584158 25.5001782,5.75168317 25.5001782,8.18079208 C25.5001782,10.609901 27.4760198,12.5857426 29.9051287,12.5857426" id="Fill-9" fill="#404042"></path>
            <path d="M12.6687327,38.4317228 C10.8954653,38.4317228 9.45190099,36.9887525 9.45190099,35.2148911 C9.45190099,33.4410297 10.8954653,31.9980594 12.6687327,31.9980594 C14.4425941,31.9980594 15.8855644,33.4410297 15.8855644,35.2148911 C15.8855644,36.9887525 14.4425941,38.4317228 12.6687327,38.4317228 M12.6687327,30.8099406 C10.2402178,30.8099406 8.26378218,32.7857822 8.26378218,35.2148911 C8.26378218,37.644 10.2402178,39.6198416 12.6687327,39.6198416 C15.0978416,39.6198416 17.0736832,37.644 17.0736832,35.2148911 C17.0736832,32.7857822 15.0978416,30.8099406 12.6687327,30.8099406" id="Fill-11" fill="#404042"></path>
            <path d="M47.2071089,31.998 C48.9809703,31.998 50.4239406,33.4409703 50.4239406,35.2148317 C50.4239406,36.9886931 48.9809703,38.4316634 47.2071089,38.4316634 C45.4332475,38.4316634 43.9902772,36.9886931 43.9902772,35.2148317 C43.9902772,33.4409703 45.4332475,31.998 47.2071089,31.998 M47.2071089,39.6197822 C49.6362178,39.6197822 51.6120594,37.6439406 51.6120594,35.2148317 C51.6120594,32.7857228 49.6362178,30.8098812 47.2071089,30.8098812 C44.778,30.8098812 42.8021584,32.7857228 42.8021584,35.2148317 C42.8021584,37.6439406 44.778,39.6197822 47.2071089,39.6197822" id="Fill-13" fill="#404042"></path>
        </g>
    </g>
</svg>