<?xml version="1.0" encoding="UTF-8"?>
<svg width="24px" height="24px" viewBox="0 0 24 24" version="1.1" xmlns="http://www.w3.org/2000/svg" xmlns:xlink="http://www.w3.org/1999/xlink">
    <!-- Generator: Sketch 56.3 (81716) - https://sketch.com -->
    <title>twitter</title>
    <desc>Created with Sketch.</desc>
    <g id="twitter" stroke="none" stroke-width="1" fill="none" fill-rule="evenodd">
        <path d="M20,7.53125 C19.4166637,7.79166797 18.7864617,7.96874953 18.109375,8.0625 C18.8177119,7.64583125 19.302082,7.03646234 19.5625,6.234375 C18.8854133,6.63021031 18.1875036,6.89583266 17.46875,7.03125 C16.8333302,6.34374656 16.0364631,6 15.078125,6 C14.1718705,6 13.3984407,6.3203093 12.7578125,6.9609375 C12.1171843,7.6015657 11.796875,8.37499547 11.796875,9.28125 C11.796875,9.58333484 11.8229164,9.83333234 11.875,10.03125 C10.5312433,9.95833297 9.27083922,9.61979469 8.09375,9.015625 C6.91666078,8.41145531 5.91667078,7.60417172 5.09375,6.59375 C4.79166516,7.11458594 4.640625,7.66666375 4.640625,8.25 C4.640625,9.43750594 5.11457859,10.3489552 6.0625,10.984375 C5.57291422,10.9739583 5.05208609,10.838543 4.5,10.578125 L4.5,10.609375 C4.5,11.3906289 4.76041406,12.0859345 5.28125,12.6953125 C5.80208594,13.3046905 6.44270453,13.6822909 7.203125,13.828125 C6.90104016,13.9114587 6.63541781,13.953125 6.40625,13.953125 C6.27083266,13.953125 6.06770969,13.9322919 5.796875,13.890625 C6.01562609,14.5468783 6.40364305,15.0885395 6.9609375,15.515625 C7.51823195,15.9427105 8.15103812,16.1614583 8.859375,16.171875 C7.65103562,17.1093797 6.29167422,17.578125 4.78125,17.578125 C4.51041531,17.578125 4.25000125,17.5625002 4,17.53125 C5.54167437,18.5104216 7.21874094,19 9.03125,19 C10.1979225,19 11.2916616,18.815106 12.3125,18.4453125 C13.3333384,18.075519 14.2083297,17.5807323 14.9375,16.9609375 C15.6666703,16.3411427 16.2942682,15.6276082 16.8203125,14.8203125 C17.3463568,14.0130168 17.7369779,13.1692752 17.9921875,12.2890625 C18.2473971,11.4088498 18.375,10.5312544 18.375,9.65625 C18.375,9.46874906 18.3697917,9.32812547 18.359375,9.234375 C19.0156283,8.76562266 19.5624978,8.19792 20,7.53125 Z M24,4.5 L24,19.5 C24,20.7395895 23.5599002,21.7994748 22.6796875,22.6796875 C21.7994748,23.5599002 20.7395895,24 19.5,24 L4.5,24 C3.26041047,24 2.20052523,23.5599002 1.3203125,22.6796875 C0.440099766,21.7994748 0,20.7395895 0,19.5 L0,4.5 C0,3.26041047 0.440099766,2.20052523 1.3203125,1.3203125 C2.20052523,0.440099766 3.26041047,0 4.5,0 L19.5,0 C20.7395895,0 21.7994748,0.440099766 22.6796875,1.3203125 C23.5599002,2.20052523 24,3.26041047 24,4.5 Z" id="ï‚" fill="#00BBA6" fill-rule="nonzero"></path>
    </g>
</svg>