<?xml version="1.0" encoding="UTF-8"?>
<svg width="62px" height="60px" viewBox="0 0 62 60" version="1.1" xmlns="http://www.w3.org/2000/svg" xmlns:xlink="http://www.w3.org/1999/xlink">
    <!-- Generator: Sketch 56.3 (81716) - https://sketch.com -->
    <title>user-centered-design</title>
    <desc>Created with Sketch.</desc>
    <g id="user-centered-design" stroke="none" stroke-width="1" fill="none" fill-rule="evenodd">
        <g id="Group" transform="translate(4.000173, 0.576577)">
            <path d="M22.7888654,7.63823077 L22.7888654,0.929192308 L29.7327115,0.929192308 L29.7327115,7.63823077 L22.7888654,7.63823077 Z M1.15367308,27.3695769 L1.15367308,22.9393846 L5.58386538,22.9393846 L5.58386538,27.3695769 L1.15367308,27.3695769 Z M47.1536731,27.3695769 L47.1536731,22.9393846 L51.5838654,22.9393846 L51.5838654,27.3695769 L47.1536731,27.3695769 Z" id="Combined-Shape" fill="#00BBA6"></path>
            <path d="M2.49576923,6.08451923 C1.5975,6.08451923 0.868269231,5.35586538 0.868269231,4.45701923 L0.868269231,4.29663462 C0.868269231,3.39778846 1.5975,2.66913462 2.49576923,2.66913462 L2.65615385,2.66913462 C3.555,2.66913462 4.28365385,3.39778846 4.28365385,4.29663462 L4.28365385,4.45701923 C4.28365385,5.35586538 3.555,6.08451923 2.65615385,6.08451923 L2.49576923,6.08451923 Z M50.4957692,6.08451923 C49.5975,6.08451923 48.8682692,5.35586538 48.8682692,4.45701923 L48.8682692,4.29663462 C48.8682692,3.39778846 49.5975,2.66913462 50.4957692,2.66913462 L50.6561538,2.66913462 C51.555,2.66913462 52.2836538,3.39778846 52.2836538,4.29663462 L52.2836538,4.45701923 C52.2836538,5.35586538 51.555,6.08451923 50.6561538,6.08451923 L50.4957692,6.08451923 Z" id="Combined-Shape" fill="#00BBA6"></path>
            <path d="M32.3745,29.1411346 C33.4891154,29.0569038 33.1487308,29.6263269 32.9900769,29.9580577 L28.4335385,39.5003654 L24.0448846,39.8372885 L19.2171923,29.1336346 C23.4702692,29.1295962 26.0895,19.1938269 26.0895,19.1938269 L32.3745,29.1411346 Z M26.4998269,33.4234231 C27.328254,33.4234231 27.9998269,32.7518502 27.9998269,31.9234231 C27.9998269,31.094996 27.328254,30.4234231 26.4998269,30.4234231 C25.6713998,30.4234231 24.9998269,31.094996 24.9998269,31.9234231 C24.9998269,32.7518502 25.6713998,33.4234231 26.4998269,33.4234231 Z" id="Combined-Shape" fill="#00BBA6"></path>
            <path d="M1.68375,26.9264423 L1.67509615,23.60625 L4.99586538,23.5970192 L5.00394231,26.9177885 L1.68375,26.9264423 Z M6.14682692,22.4408654 L0.518365385,22.4552885 L0.532788462,28.0831731 L6.16067308,28.06875 L6.14682692,22.4408654 Z" id="Fill-7" fill="#404042"></path>
            <path d="M29.2326923,1.15673077 L29.2482692,7.19365385 L23.2113462,7.20923077 L23.1957692,1.17230769 L29.2326923,1.15673077 Z M8.01173077,4.87384615 L8.01288462,4.87384615 L20.1519231,4.84615385 C5.84826923,7.17115385 3.31615385,20.6544231 3.29134615,20.7969231 C3.23653846,21.1101923 3.44653846,21.4090385 3.75980769,21.4638462 C3.79384615,21.4696154 3.82730769,21.4725 3.86019231,21.4725 C4.13538462,21.4725 4.37826923,21.2757692 4.42788462,20.9959615 C4.52884615,20.4253846 7.05519231,7.11576923 22.0540385,5.76634615 L22.0603846,8.36596154 L30.405,8.34461538 L30.3986538,5.79634615 C45.5469231,7.63846154 48.3530769,20.8725 48.3796154,21.0075 C48.4338462,21.2821154 48.675,21.4725 48.945,21.4725 C48.9819231,21.4725 49.0194231,21.4690385 49.0569231,21.4615385 C49.3696154,21.4003846 49.5726923,21.0975 49.5115385,20.7848077 C49.4844231,20.6451923 46.6742308,7.22134615 31.6153846,4.79711538 L45.6375,4.75903846 C45.9559615,4.75788462 46.2132692,4.49884615 46.2126923,4.18038462 C46.2115385,3.86192308 45.9536538,3.60519231 45.6357692,3.60519231 L45.6340385,3.60519231 L30.3928846,3.64673077 L30.3836538,-7.28306304e-14 L22.0390385,0.0213461538 L22.0482692,3.68769231 L8.01,3.72 C7.69153846,3.72057692 7.43365385,3.97961538 7.43480769,4.29807692 C7.43538462,4.61653846 7.69384615,4.87384615 8.01173077,4.87384615 L8.01173077,4.87384615 Z" id="Fill-9" fill="#404042"></path>
            <path d="M28.4337692,39.5001346 L24.4299231,39.5001346 C23.3297308,34.5991731 20.8593462,30.84225 19.8572308,29.4651346 C22.9449231,27.7280192 24.7085769,24.29475 25.6991538,21.3426346 L25.6991538,30.2428269 C24.8706923,30.4926346 24.2614615,31.2541731 24.2614615,32.1634038 C24.2614615,33.2739808 25.1649231,34.1774423 26.2760769,34.1774423 C27.3872308,34.1774423 28.2906923,33.2739808 28.2906923,32.1634038 C28.2906923,31.2541731 27.6814615,30.4926346 26.853,30.2428269 L26.853,21.1891731 C28.1078077,25.2253269 30.0647308,28.0268654 32.6343462,29.4178269 C30.1189615,32.39475 28.7891538,37.8576346 28.4337692,39.5001346 M26.2760769,31.3026346 C26.7508846,31.3026346 27.1368462,31.6885962 27.1368462,32.1634038 C27.1368462,32.6376346 26.7508846,33.0235962 26.2760769,33.0235962 C25.8012692,33.0235962 25.4153077,32.6376346 25.4153077,32.1634038 C25.4153077,31.6885962 25.8012692,31.3026346 26.2760769,31.3026346 M33.6099231,28.6159038 C30.2268462,27.0662885 27.8383846,22.57725 26.8847308,15.9766731 C26.8426154,15.6887885 26.5778077,15.4799423 26.3020385,15.4822311 C26.2974231,15.4822311 26.2939615,15.4851346 26.2893462,15.4851346 C26.2847308,15.4851346 26.2806923,15.4822311 26.2760769,15.4822311 C25.9576154,15.4822311 25.6991538,15.7407115 25.6991538,16.0591731 L25.6991538,16.3170577 C25.4591538,18.0351346 24.0410769,26.30475 18.7397308,28.7410962 C18.5776154,28.8155192 18.4593462,28.9609038 18.4189615,29.1345577 C18.3785769,29.3082115 18.4206923,29.4910962 18.5331923,29.6295577 C18.5683846,29.67225 21.888,33.8116731 23.2385769,39.5001346 L21.3064615,39.5001346 C20.988,39.5001346 20.7295385,39.7585962 20.7295385,40.0770577 C20.7295385,40.3955192 20.988,40.6539808 21.3064615,40.6539808 L23.9631923,40.6539808 L28.9033846,40.6539808 L31.2456923,40.6539808 C31.5641538,40.6539808 31.8226154,40.3955192 31.8226154,40.0770577 C31.8226154,39.7585962 31.5641538,39.5001346 31.2456923,39.5001346 L29.6181923,39.5001346 C30.0566538,37.57725 31.4822308,32.1028269 33.9653077,29.6780192 L33.9647308,29.6774423 C34.0835769,29.5614808 34.1545385,29.3964808 34.1476154,29.22975 C34.1320385,28.8553269 33.8303077,28.7168654 33.6099231,28.6159038" id="Fill-12" fill="#404042"></path>
            <path d="M39.89925,39.7381731 C36.8179038,43.9831731 36.2755962,48.2697115 36.2755962,55.70625 L36.2755962,57.69375 L18.6973269,57.69375 L18.6973269,49.99875 C18.6973269,49.6797115 18.4388654,49.4218269 18.1204038,49.4218269 L13.99425,49.4218269 C11.8902115,49.4218269 10.1784808,47.7095192 10.1784808,45.6054808 L10.1784808,38.4227885 C10.1784808,38.1043269 9.92001923,37.8458654 9.60155769,37.8458654 L6.71175,37.8458654 C6.38348077,37.8458654 6.09328846,37.6877885 5.91559615,37.4120192 C5.73732692,37.13625 5.71309615,36.8068269 5.84809615,36.5074038 L10.1271346,27.0470192 C10.1600192,26.9743269 10.1773269,26.8952885 10.1784808,26.81625 C10.1859808,26.20875 10.5471346,11.9483654 26.4921346,11.9483654 C33.30675,11.9483654 38.5705962,14.9114423 41.3132885,20.29125 C44.3496346,26.2474038 43.7548269,34.4258654 39.89925,39.7381731 M26.4921346,10.7945192 C10.21425,10.7945192 9.10021154,25.1552885 9.02925,26.6743269 L4.79694231,36.0320192 C4.50155769,36.6856731 4.55694231,37.4356731 4.94578846,38.0379808 C5.33463462,38.6402885 5.99463462,38.9997115 6.71175,38.9997115 L9.02463462,38.9997115 L9.02463462,45.6054808 C9.02463462,48.3458654 11.2538654,50.5756731 13.99425,50.5756731 L17.5434808,50.5756731 L17.5434808,58.2706731 C17.5434808,58.5891346 17.8013654,58.8475962 18.1204038,58.8475962 L36.8525192,58.8475962 C37.1709808,58.8475962 37.4294423,58.5891346 37.4294423,58.2706731 L37.4294423,55.70625 C37.4294423,48.5235577 37.9388654,44.4031731 40.8327115,40.4160577 C44.9952115,34.6808654 45.6159808,26.1902885 42.3413654,19.7674038 C39.3915577,13.9808654 33.7625192,10.7945192 26.4921346,10.7945192" id="Fill-14" fill="#404042"></path>
            <path d="M47.6443269,26.9264423 L47.6356731,23.60625 L50.9564423,23.5970192 L50.9645192,26.9177885 L47.6443269,26.9264423 Z M46.4789423,22.4552885 L46.4933654,28.0831731 L52.12125,28.06875 L52.1074038,22.4408654 L46.4789423,22.4552885 Z" id="Fill-16" fill="#404042"></path>
            <path d="M2.65615385,2.79426923 C3.48461538,2.79426923 4.15846154,3.46811538 4.15846154,4.29657692 C4.15846154,5.12561538 3.48461538,5.79888462 2.65615385,5.79888462 C1.82769231,5.79888462 1.15384615,5.12561538 1.15384615,4.29657692 C1.15384615,3.46811538 1.82769231,2.79426923 2.65615385,2.79426923 M2.65615385,6.95273077 C4.12096154,6.95273077 5.31230769,5.76138462 5.31230769,4.29657692 C5.31230769,2.83176923 4.12096154,1.64042308 2.65615385,1.64042308 C1.19134615,1.64042308 -9.05941988e-14,2.83176923 -9.05941988e-14,4.29657692 C-9.05941988e-14,5.76138462 1.19134615,6.95273077 2.65615385,6.95273077" id="Fill-18" fill="#404042"></path>
            <path d="M50.5039038,5.79917308 C49.6754423,5.79917308 49.0015962,5.12532692 49.0015962,4.29686538 C49.0015962,3.46840385 49.6754423,2.79455769 50.5039038,2.79455769 C51.3323654,2.79455769 52.0062115,3.46840385 52.0062115,4.29686538 C52.0062115,5.12532692 51.3323654,5.79917308 50.5039038,5.79917308 M50.5039038,1.64071154 C49.0390962,1.64071154 47.84775,2.83205769 47.84775,4.29686538 C47.84775,5.76167308 49.0390962,6.95301923 50.5039038,6.95301923 C51.9687115,6.95301923 53.1600577,5.76167308 53.1600577,4.29686538 C53.1600577,2.83205769 51.9687115,1.64071154 50.5039038,1.64071154" id="Fill-20" fill="#404042"></path>
        </g>
    </g>
</svg>